<svg width="600" height="400" version="1.1" xmlns="http://www.w3.org/2000/svg" xmlns:xlink="http://www.w3.org/1999/xlink"> <rect width="600" height="400" x="0" y="0" fill="#ffffff"></rect> <line x1="60" x2="540" y1="340.0" y2="340.0" stroke-dasharray="none" stroke="#eeeeee" stroke-width="1"></line> <line x1="55" x2="60" y1="340.0" y2="340.0" stroke="#000000" stroke-width="1"></line> <text fill="#000000" font-size="10px" text-anchor="end" y="344.0" x="50"> 5.0</text> <line x1="60" x2="540" y1="284.0" y2="284.0" stroke-dasharray="none" stroke="#eeeeee" stroke-width="1"></line> <line x1="55" x2="60" y1="284.0" y2="284.0" stroke="#000000" stroke-width="1"></line> <text fill="#000000" font-size="10px" text-anchor="end" y="288.0" x="50"> 5.3</text> <line x1="60" x2="540" y1="228.0" y2="228.0" stroke-dasharray="none" stroke="#eeeeee" stroke-width="1"></line> <line x1="55" x2="60" y1="228.0" y2="228.0" stroke="#000000" stroke-width="1"></line> <text fill="#000000" font-size="10px" text-anchor="end" y="232.0" x="50"> 5.6</text> <line x1="60" x2="540" y1="172.0" y2="172.0" stroke-dasharray="none" stroke="#eeeeee" stroke-width="1"></line> <line x1="55" x2="60" y1="172.0" y2="172.0" stroke="#000000" stroke-width="1"></line> <text fill="#000000" font-size="10px" text-anchor="end" y="176.0" x="50"> 6.0</text> <line x1="60" x2="540" y1="116.0" y2="116.0" stroke-dasharray="none" stroke="#eeeeee" stroke-width="1"></line> <line x1="55" x2="60" y1="116.0" y2="116.0" stroke="#000000" stroke-width="1"></line> <text fill="#000000" font-size="10px" text-anchor="end" y="120.0" x="50"> 6.3</text> <line x1="60" x2="540" y1="60.0" y2="60.0" stroke-dasharray="none" stroke="#eeeeee" stroke-width="1"></line> <line x1="55" x2="60" y1="60.0" y2="60.0" stroke="#000000" stroke-width="1"></line> <text fill="#000000" font-size="10px" text-anchor="end" y="64.0" x="50"> 6.6</text> <line x1="108.0" x2="108.0" y1="60" y2="340" stroke-dasharray="none" stroke="#eeeeee" stroke-width="1"></line> <text fill="#000000" font-size="10px" text-anchor="middle" y="360" x="108.0"> setosa</text> <line x1="300.0" x2="300.0" y1="60" y2="340" stroke-dasharray="none" stroke="#eeeeee" stroke-width="1"></line> <text fill="#000000" font-size="10px" text-anchor="middle" y="360" x="300.0"> virginica</text> <line x1="492.0" x2="492.0" y1="60" y2="340" stroke-dasharray="none" stroke="#eeeeee" stroke-width="1"></line> <text fill="#000000" font-size="10px" text-anchor="middle" y="360" x="492.0"> versicolor</text> <line x1="60" x2="60" y1="60" y2="340" stroke="#000000" stroke-width="1"></line> <line x1="60" x2="540" y1="340" y2="340" stroke="#000000" stroke-width="1"></line> <text fill="#000000" font-size="12px" text-anchor="middle" y="380" x="300"> :species</text> <text transform="rotate(-90 10 200)" fill="#000000" font-size="12px" text-anchor="middle" y="200" x="10"> :avg_sepal_length</text> <rect width="96.0" height="0.0" x="60.0" y="340.0" stroke="white" fill="steelblue"><title>:species: setosa
:avg_sepal_length: 5.005999999999999</title> width="96.0" height="0.0" x="60.0" y="340.0" drake-tooltip=":species: setosa
:avg_sepal_length: 5.005999999999999" stroke="white" fill="steelblue"></rect> <rect width="96.0" height="280.0" x="252.0" y="60.0" stroke="white" fill="steelblue"><title>:species: virginica
:avg_sepal_length: 6.587999999999998</title> width="96.0" height="280.0" x="252.0" y="60.0" drake-tooltip=":species: virginica
:avg_sepal_length: 6.587999999999998" stroke="white" fill="steelblue"></rect> <rect width="96.0" height="164.60176991150462" x="444.0" y="175.39823008849538" stroke="white" fill="steelblue"><title>:species: versicolor
:avg_sepal_length: 5.936</title> width="96.0" height="164.60176991150462" x="444.0" y="175.39823008849538" drake-tooltip=":species: versicolor
:avg_sepal_length: 5.936" stroke="white" fill="steelblue"></rect> <text font-weight="bold" fill="#000000" font-size="16px" text-anchor="middle" y="30" x="300"> Average Sepal Length by Species</text></svg>