<svg width="600" height="400" version="1.1" xmlns="http://www.w3.org/2000/svg" xmlns:xlink="http://www.w3.org/1999/xlink"> <rect width="600" height="400" x="0" y="0" fill="#ffffff"></rect> <line x1="60" x2="540" y1="340.0" y2="340.0" stroke-dasharray="none" stroke="#eeeeee" stroke-width="1"></line> <line x1="55" x2="60" y1="340.0" y2="340.0" stroke="#000000" stroke-width="1"></line> <text fill="#000000" font-size="10px" text-anchor="end" y="344.0" x="50"> 1.0</text> <line x1="60" x2="540" y1="284.0" y2="284.0" stroke-dasharray="none" stroke="#eeeeee" stroke-width="1"></line> <line x1="55" x2="60" y1="284.0" y2="284.0" stroke="#000000" stroke-width="1"></line> <text fill="#000000" font-size="10px" text-anchor="end" y="288.0" x="50"> 18.2</text> <line x1="60" x2="540" y1="228.0" y2="228.0" stroke-dasharray="none" stroke="#eeeeee" stroke-width="1"></line> <line x1="55" x2="60" y1="228.0" y2="228.0" stroke="#000000" stroke-width="1"></line> <text fill="#000000" font-size="10px" text-anchor="end" y="232.0" x="50"> 35.4</text> <line x1="60" x2="540" y1="172.0" y2="172.0" stroke-dasharray="none" stroke="#eeeeee" stroke-width="1"></line> <line x1="55" x2="60" y1="172.0" y2="172.0" stroke="#000000" stroke-width="1"></line> <text fill="#000000" font-size="10px" text-anchor="end" y="176.0" x="50"> 52.6</text> <line x1="60" x2="540" y1="116.0" y2="116.0" stroke-dasharray="none" stroke="#eeeeee" stroke-width="1"></line> <line x1="55" x2="60" y1="116.0" y2="116.0" stroke="#000000" stroke-width="1"></line> <text fill="#000000" font-size="10px" text-anchor="end" y="120.0" x="50"> 69.8</text> <line x1="60" x2="540" y1="60.0" y2="60.0" stroke-dasharray="none" stroke="#eeeeee" stroke-width="1"></line> <line x1="55" x2="60" y1="60.0" y2="60.0" stroke="#000000" stroke-width="1"></line> <text fill="#000000" font-size="10px" text-anchor="end" y="64.0" x="50"> 87.0</text> <line x1="108.0" x2="108.0" y1="60" y2="340" stroke-dasharray="none" stroke="#eeeeee" stroke-width="1"></line> <text fill="#000000" font-size="10px" text-anchor="middle" y="360" x="108.0"> Sun</text> <line x1="236.0" x2="236.0" y1="60" y2="340" stroke-dasharray="none" stroke="#eeeeee" stroke-width="1"></line> <text fill="#000000" font-size="10px" text-anchor="middle" y="360" x="236.0"> Sat</text> <line x1="364.0" x2="364.0" y1="60" y2="340" stroke-dasharray="none" stroke="#eeeeee" stroke-width="1"></line> <text fill="#000000" font-size="10px" text-anchor="middle" y="360" x="364.0"> Thur</text> <line x1="492.0" x2="492.0" y1="60" y2="340" stroke-dasharray="none" stroke="#eeeeee" stroke-width="1"></line> <text fill="#000000" font-size="10px" text-anchor="middle" y="360" x="492.0"> Fri</text> <line x1="60" x2="60" y1="60" y2="340" stroke="#000000" stroke-width="1"></line> <line x1="60" x2="540" y1="340" y2="340" stroke="#000000" stroke-width="1"></line> <text fill="#000000" font-size="12px" text-anchor="middle" y="380" x="300"> :day</text> <text transform="rotate(-90 10 200)" fill="#000000" font-size="12px" text-anchor="middle" y="200" x="10"> :count</text> <rect width="51.199999999999996" height="244.1860465116279" x="82.4" y="95.8139534883721" stroke="white" fill="#66c2a5"><title>:day: Sun
:count: 76
:time: Dinner</title> width="51.199999999999996" height="244.1860465116279" x="82.4" y="95.8139534883721" drake-tooltip=":day: Sun
:count: 76
:time: Dinner" stroke="white" fill="#66c2a5"></rect> <rect width="51.199999999999996" height="280.0" x="210.4" y="60.0" stroke="white" fill="#66c2a5"><title>:day: Sat
:count: 87
:time: Dinner</title> width="51.199999999999996" height="280.0" x="210.4" y="60.0" drake-tooltip=":day: Sat
:count: 87
:time: Dinner" stroke="white" fill="#66c2a5"></rect> <rect width="51.199999999999996" height="195.34883720930233" x="338.4" y="144.65116279069767" stroke="white" fill="#fc8d62"><title>:day: Thur
:count: 61
:time: Lunch</title> width="51.199999999999996" height="195.34883720930233" x="338.4" y="144.65116279069767" drake-tooltip=":day: Thur
:count: 61
:time: Lunch" stroke="white" fill="#fc8d62"></rect> <rect width="51.199999999999996" height="35.81395348837209" x="466.4" y="304.1860465116279" stroke="white" fill="#66c2a5"><title>:day: Fri
:count: 12
:time: Dinner</title> width="51.199999999999996" height="35.81395348837209" x="466.4" y="304.1860465116279" drake-tooltip=":day: Fri
:count: 12
:time: Dinner" stroke="white" fill="#66c2a5"></rect> <rect width="51.199999999999996" height="19.53488372093023" x="466.4" y="320.4651162790698" stroke="white" fill="#fc8d62"><title>:day: Fri
:count: 7
:time: Lunch</title> width="51.199999999999996" height="19.53488372093023" x="466.4" y="320.4651162790698" drake-tooltip=":day: Fri
:count: 7
:time: Lunch" stroke="white" fill="#fc8d62"></rect> <rect width="51.199999999999996" height="0.0" x="338.4" y="340.0" stroke="white" fill="#66c2a5"><title>:day: Thur
:count: 1
:time: Dinner</title> width="51.199999999999996" height="0.0" x="338.4" y="340.0" drake-tooltip=":day: Thur
:count: 1
:time: Dinner" stroke="white" fill="#66c2a5"></rect> <rect width="100" height="40" x="430" y="70" stroke="#cccccc" fill-opacity="0.9" fill="#ffffff"></rect> <circle cx="440" cy="80" r="5" fill="#66c2a5"></circle> <text fill="#000000" font-size="10px" y="85" x="450"> Dinner</text> <circle cx="440" cy="100" r="5" fill="#fc8d62"></circle> <text fill="#000000" font-size="10px" y="105" x="450"> Lunch</text> <text font-weight="bold" fill="#000000" font-size="16px" text-anchor="middle" y="30" x="300"> Lunch vs Dinner by Day</text></svg>