<svg width="600" height="400" version="1.1" xmlns="http://www.w3.org/2000/svg" xmlns:xlink="http://www.w3.org/1999/xlink"> <rect width="600" height="400" x="0" y="0" fill="#ffffff"></rect> <line x1="60" x2="540" y1="340.0" y2="340.0" stroke-dasharray="none" stroke="#eeeeee" stroke-width="1"></line> <line x1="55" x2="60" y1="340.0" y2="340.0" stroke="#000000" stroke-width="1"></line> <text fill="#000000" font-size="10px" text-anchor="end" y="344.0" x="50"> -0.8</text> <line x1="60" x2="540" y1="284.0" y2="284.0" stroke-dasharray="none" stroke="#eeeeee" stroke-width="1"></line> <line x1="55" x2="60" y1="284.0" y2="284.0" stroke="#000000" stroke-width="1"></line> <text fill="#000000" font-size="10px" text-anchor="end" y="288.0" x="50"> 1.7</text> <line x1="60" x2="540" y1="228.0" y2="228.0" stroke-dasharray="none" stroke="#eeeeee" stroke-width="1"></line> <line x1="55" x2="60" y1="228.0" y2="228.0" stroke="#000000" stroke-width="1"></line> <text fill="#000000" font-size="10px" text-anchor="end" y="232.0" x="50"> 4.2</text> <line x1="60" x2="540" y1="172.0" y2="172.0" stroke-dasharray="none" stroke="#eeeeee" stroke-width="1"></line> <line x1="55" x2="60" y1="172.0" y2="172.0" stroke="#000000" stroke-width="1"></line> <text fill="#000000" font-size="10px" text-anchor="end" y="176.0" x="50"> 6.8</text> <line x1="60" x2="540" y1="116.0" y2="116.0" stroke-dasharray="none" stroke="#eeeeee" stroke-width="1"></line> <line x1="55" x2="60" y1="116.0" y2="116.0" stroke="#000000" stroke-width="1"></line> <text fill="#000000" font-size="10px" text-anchor="end" y="120.0" x="50"> 9.3</text> <line x1="60" x2="540" y1="60.0" y2="60.0" stroke-dasharray="none" stroke="#eeeeee" stroke-width="1"></line> <line x1="55" x2="60" y1="60.0" y2="60.0" stroke="#000000" stroke-width="1"></line> <text fill="#000000" font-size="10px" text-anchor="end" y="64.0" x="50"> 11.8</text> <line x1="108.0" x2="108.0" y1="60" y2="340" stroke-dasharray="none" stroke="#eeeeee" stroke-width="1"></line> <text fill="#000000" font-size="10px" text-anchor="middle" y="360" x="108.0"> Thur</text> <line x1="236.0" x2="236.0" y1="60" y2="340" stroke-dasharray="none" stroke="#eeeeee" stroke-width="1"></line> <text fill="#000000" font-size="10px" text-anchor="middle" y="360" x="236.0"> Fri</text> <line x1="364.0" x2="364.0" y1="60" y2="340" stroke-dasharray="none" stroke="#eeeeee" stroke-width="1"></line> <text fill="#000000" font-size="10px" text-anchor="middle" y="360" x="364.0"> Sat</text> <line x1="492.0" x2="492.0" y1="60" y2="340" stroke-dasharray="none" stroke="#eeeeee" stroke-width="1"></line> <text fill="#000000" font-size="10px" text-anchor="middle" y="360" x="492.0"> Sun</text> <line x1="60" x2="60" y1="60" y2="340" stroke="#000000" stroke-width="1"></line> <line x1="60" x2="540" y1="340" y2="340" stroke="#000000" stroke-width="1"></line> <text fill="#000000" font-size="12px" text-anchor="middle" y="380" x="300"> :day</text> <text transform="rotate(-90 10 200)" fill="#000000" font-size="12px" text-anchor="middle" y="200" x="10"> :tip</text> <polyline points="107.34993537593748,318.6666666666667 106.7646678198513,315.27555555555557 105.79873087846049,311.88444444444445 104.31580962041744,308.49333333333334 102.19841642743081,305.1022222222222 99.38900053537705,301.7111111111111 95.9326451718616,298.32 92.0069022519093,294.9288888888889 87.92354232965295,291.5377777777778 84.09207383306045,288.14666666666665 80.94598895938289,284.7555555555556 78.84755607875977,281.3644444444444 78.0,277.97333333333336 78.39923255156397,274.58222222222224 79.84542279342992,271.1911111111111 82.01037677836055,267.8 84.53215710432485,264.4088888888889 87.09836914614577,261.0177777777778 89.49043626234172,257.62666666666667 91.585402769068,254.23555555555558 93.33311443244787,250.84444444444446 94.7321636805011,247.45333333333338 95.81715859762619,244.06222222222223 96.65357793246602,240.67111111111114 97.32807001202907,237.27999999999997 97.9273293813101,233.88888888888889 98.51200035710863,230.4977777777778 99.10120613563403,227.10666666666668 99.67947295916429,223.71555555555557 100.22302151623292,220.32444444444445 100.72816435696527,216.93333333333334 101.22251801862089,213.54222222222222 101.75187801532023,210.1511111111111 102.35255707461587,206.76000000000002 103.02800484403703,203.3688888888889 103.74387370577051,199.9777777777778 104.44245639698819,196.58666666666667 105.0660984551048,193.19555555555556 105.57677225893191,189.80444444444447 105.96452760723872,186.41333333333333 106.24493812044565,183.02222222222224 106.44985163091096,179.6311111111111 106.61600368340753,176.24 106.77467012453066,172.8488888888889 106.94450414977501,169.4577777777778 107.12906365682257,166.06666666666666 107.31938700361627,162.67555555555558 107.5001958707293,159.28444444444446 107.65689806728278,155.89333333333332 107.78057397764353,152.5022222222222 107.86955405932183,149.11111111111111 108.13044594067817,149.11111111111111 108.21942602235647,152.5022222222222 108.34310193271722,155.89333333333332 108.4998041292707,159.28444444444446 108.68061299638373,162.67555555555558 108.87093634317743,166.06666666666666 109.05549585022499,169.4577777777778 109.22532987546934,172.8488888888889 109.38399631659247,176.24 109.55014836908904,179.6311111111111 109.75506187955435,183.02222222222224 110.03547239276128,186.41333333333333 110.42322774106809,189.80444444444447 110.9339015448952,193.19555555555556 111.55754360301181,196.58666666666667 112.25612629422949,199.9777777777778 112.97199515596297,203.3688888888889 113.64744292538413,206.76000000000002 114.24812198467977,210.1511111111111 114.77748198137911,213.54222222222222 115.27183564303473,216.93333333333334 115.77697848376708,220.32444444444445 116.32052704083571,223.71555555555557 116.89879386436597,227.10666666666668 117.48799964289137,230.4977777777778 118.0726706186899,233.88888888888889 118.67192998797093,237.27999999999997 119.34642206753398,240.67111111111114 120.18284140237381,244.06222222222223 121.2678363194989,247.45333333333338 122.66688556755213,250.84444444444446 124.414597230932,254.23555555555558 126.50956373765828,257.62666666666667 128.90163085385424,261.0177777777778 131.46784289567515,264.4088888888889 133.98962322163945,267.8 136.15457720657008,271.1911111111111 137.60076744843602,274.58222222222224 138.0,277.97333333333336 137.15244392124023,281.3644444444444 135.0540110406171,284.7555555555556 131.90792616693955,288.14666666666665 128.07645767034705,291.5377777777778 123.9930977480907,294.9288888888889 120.0673548281384,298.32 116.61099946462295,301.7111111111111 113.80158357256919,305.1022222222222 111.68419037958256,308.49333333333334 110.20126912153951,311.88444444444445 109.2353321801487,315.27555555555557 108.65006462406252,318.6666666666667" stroke="#4c72b0" fill="#4c72b0" fill-opacity="0.4" stroke-width="1"><title>:day: Thur
:tip: 2.3
:time: Lunch</title> points="107.34993537593748,318.6666666666667 106.7646678198513,315.27555555555557 105.79873087846049,311.88444444444445 104.31580962041744,308.49333333333334 102.19841642743081,305.1022222222222 99.38900053537705,301.7111111111111 95.9326451718616,298.32 92.0069022519093,294.9288888888889 87.92354232965295,291.5377777777778 84.09207383306045,288.14666666666665 80.94598895938289,284.7555555555556 78.84755607875977,281.3644444444444 78.0,277.97333333333336 78.39923255156397,274.58222222222224 79.84542279342992,271.1911111111111 82.01037677836055,267.8 84.53215710432485,264.4088888888889 87.09836914614577,261.0177777777778 89.49043626234172,257.62666666666667 91.585402769068,254.23555555555558 93.33311443244787,250.84444444444446 94.7321636805011,247.45333333333338 95.81715859762619,244.06222222222223 96.65357793246602,240.67111111111114 97.32807001202907,237.27999999999997 97.9273293813101,233.88888888888889 98.51200035710863,230.4977777777778 99.10120613563403,227.10666666666668 99.67947295916429,223.71555555555557 100.22302151623292,220.32444444444445 100.72816435696527,216.93333333333334 101.22251801862089,213.54222222222222 101.75187801532023,210.1511111111111 102.35255707461587,206.76000000000002 103.02800484403703,203.3688888888889 103.74387370577051,199.9777777777778 104.44245639698819,196.58666666666667 105.0660984551048,193.19555555555556 105.57677225893191,189.80444444444447 105.96452760723872,186.41333333333333 106.24493812044565,183.02222222222224 106.44985163091096,179.6311111111111 106.61600368340753,176.24 106.77467012453066,172.8488888888889 106.94450414977501,169.4577777777778 107.12906365682257,166.06666666666666 107.31938700361627,162.67555555555558 107.5001958707293,159.28444444444446 107.65689806728278,155.89333333333332 107.78057397764353,152.5022222222222 107.86955405932183,149.11111111111111 108.13044594067817,149.11111111111111 108.21942602235647,152.5022222222222 108.34310193271722,155.89333333333332 108.4998041292707,159.28444444444446 108.68061299638373,162.67555555555558 108.87093634317743,166.06666666666666 109.05549585022499,169.4577777777778 109.22532987546934,172.8488888888889 109.38399631659247,176.24 109.55014836908904,179.6311111111111 109.75506187955435,183.02222222222224 110.03547239276128,186.41333333333333 110.42322774106809,189.80444444444447 110.9339015448952,193.19555555555556 111.55754360301181,196.58666666666667 112.25612629422949,199.9777777777778 112.97199515596297,203.3688888888889 113.64744292538413,206.76000000000002 114.24812198467977,210.1511111111111 114.77748198137911,213.54222222222222 115.27183564303473,216.93333333333334 115.77697848376708,220.32444444444445 116.32052704083571,223.71555555555557 116.89879386436597,227.10666666666668 117.48799964289137,230.4977777777778 118.0726706186899,233.88888888888889 118.67192998797093,237.27999999999997 119.34642206753398,240.67111111111114 120.18284140237381,244.06222222222223 121.2678363194989,247.45333333333338 122.66688556755213,250.84444444444446 124.414597230932,254.23555555555558 126.50956373765828,257.62666666666667 128.90163085385424,261.0177777777778 131.46784289567515,264.4088888888889 133.98962322163945,267.8 136.15457720657008,271.1911111111111 137.60076744843602,274.58222222222224 138.0,277.97333333333336 137.15244392124023,281.3644444444444 135.0540110406171,284.7555555555556 131.90792616693955,288.14666666666665 128.07645767034705,291.5377777777778 123.9930977480907,294.9288888888889 120.0673548281384,298.32 116.61099946462295,301.7111111111111 113.80158357256919,305.1022222222222 111.68419037958256,308.49333333333334 110.20126912153951,311.88444444444445 109.2353321801487,315.27555555555557 108.65006462406252,318.6666666666667" stroke="#4c72b0" fill="#4c72b0" fill-opacity="0.4" stroke-width="1" drake-tooltip=":day: Thur
:tip: 2.3
:time: Lunch"></polyline> <line x1="78.0" x2="138.0" y1="271.1111111111111" y2="271.1111111111111" stroke="black" stroke-width="2"></line> <polyline points="78.0,255.55555555555554 78.0,255.55555555555554 78.0,255.55555555555554 78.0,255.55555555555554 78.0,255.55555555555554 78.0,255.55555555555554 78.0,255.55555555555554 78.0,255.55555555555554 78.0,255.55555555555554 78.0,255.55555555555554 78.0,255.55555555555554 78.0,255.55555555555554 78.0,255.55555555555554 78.0,255.55555555555554 78.0,255.55555555555554 78.0,255.55555555555554 78.0,255.55555555555554 78.0,255.55555555555554 78.0,255.55555555555554 78.0,255.55555555555554 78.0,255.55555555555554 78.0,255.55555555555554 78.0,255.55555555555554 78.0,255.55555555555554 78.0,255.55555555555554 78.0,255.55555555555554 78.0,255.55555555555554 78.0,255.55555555555554 78.0,255.55555555555554 78.0,255.55555555555554 78.0,255.55555555555554 78.0,255.55555555555554 78.0,255.55555555555554 78.0,255.55555555555554 78.0,255.55555555555554 78.0,255.55555555555554 78.0,255.55555555555554 78.0,255.55555555555554 78.0,255.55555555555554 78.0,255.55555555555554 78.0,255.55555555555554 78.0,255.55555555555554 78.0,255.55555555555554 78.0,255.55555555555554 78.0,255.55555555555554 78.0,255.55555555555554 78.0,255.55555555555554 78.0,255.55555555555554 78.0,255.55555555555554 78.0,255.55555555555554 78.0,255.55555555555554 138.0,255.55555555555554 138.0,255.55555555555554 138.0,255.55555555555554 138.0,255.55555555555554 138.0,255.55555555555554 138.0,255.55555555555554 138.0,255.55555555555554 138.0,255.55555555555554 138.0,255.55555555555554 138.0,255.55555555555554 138.0,255.55555555555554 138.0,255.55555555555554 138.0,255.55555555555554 138.0,255.55555555555554 138.0,255.55555555555554 138.0,255.55555555555554 138.0,255.55555555555554 138.0,255.55555555555554 138.0,255.55555555555554 138.0,255.55555555555554 138.0,255.55555555555554 138.0,255.55555555555554 138.0,255.55555555555554 138.0,255.55555555555554 138.0,255.55555555555554 138.0,255.55555555555554 138.0,255.55555555555554 138.0,255.55555555555554 138.0,255.55555555555554 138.0,255.55555555555554 138.0,255.55555555555554 138.0,255.55555555555554 138.0,255.55555555555554 138.0,255.55555555555554 138.0,255.55555555555554 138.0,255.55555555555554 138.0,255.55555555555554 138.0,255.55555555555554 138.0,255.55555555555554 138.0,255.55555555555554 138.0,255.55555555555554 138.0,255.55555555555554 138.0,255.55555555555554 138.0,255.55555555555554 138.0,255.55555555555554 138.0,255.55555555555554 138.0,255.55555555555554 138.0,255.55555555555554 138.0,255.55555555555554 138.0,255.55555555555554 138.0,255.55555555555554" stroke="#55a868" fill="#55a868" fill-opacity="0.4" stroke-width="1"><title>:day: Thur
:tip: 3.0
:time: Dinner</title> points="78.0,255.55555555555554 78.0,255.55555555555554 78.0,255.55555555555554 78.0,255.55555555555554 78.0,255.55555555555554 78.0,255.55555555555554 78.0,255.55555555555554 78.0,255.55555555555554 78.0,255.55555555555554 78.0,255.55555555555554 78.0,255.55555555555554 78.0,255.55555555555554 78.0,255.55555555555554 78.0,255.55555555555554 78.0,255.55555555555554 78.0,255.55555555555554 78.0,255.55555555555554 78.0,255.55555555555554 78.0,255.55555555555554 78.0,255.55555555555554 78.0,255.55555555555554 78.0,255.55555555555554 78.0,255.55555555555554 78.0,255.55555555555554 78.0,255.55555555555554 78.0,255.55555555555554 78.0,255.55555555555554 78.0,255.55555555555554 78.0,255.55555555555554 78.0,255.55555555555554 78.0,255.55555555555554 78.0,255.55555555555554 78.0,255.55555555555554 78.0,255.55555555555554 78.0,255.55555555555554 78.0,255.55555555555554 78.0,255.55555555555554 78.0,255.55555555555554 78.0,255.55555555555554 78.0,255.55555555555554 78.0,255.55555555555554 78.0,255.55555555555554 78.0,255.55555555555554 78.0,255.55555555555554 78.0,255.55555555555554 78.0,255.55555555555554 78.0,255.55555555555554 78.0,255.55555555555554 78.0,255.55555555555554 78.0,255.55555555555554 78.0,255.55555555555554 138.0,255.55555555555554 138.0,255.55555555555554 138.0,255.55555555555554 138.0,255.55555555555554 138.0,255.55555555555554 138.0,255.55555555555554 138.0,255.55555555555554 138.0,255.55555555555554 138.0,255.55555555555554 138.0,255.55555555555554 138.0,255.55555555555554 138.0,255.55555555555554 138.0,255.55555555555554 138.0,255.55555555555554 138.0,255.55555555555554 138.0,255.55555555555554 138.0,255.55555555555554 138.0,255.55555555555554 138.0,255.55555555555554 138.0,255.55555555555554 138.0,255.55555555555554 138.0,255.55555555555554 138.0,255.55555555555554 138.0,255.55555555555554 138.0,255.55555555555554 138.0,255.55555555555554 138.0,255.55555555555554 138.0,255.55555555555554 138.0,255.55555555555554 138.0,255.55555555555554 138.0,255.55555555555554 138.0,255.55555555555554 138.0,255.55555555555554 138.0,255.55555555555554 138.0,255.55555555555554 138.0,255.55555555555554 138.0,255.55555555555554 138.0,255.55555555555554 138.0,255.55555555555554 138.0,255.55555555555554 138.0,255.55555555555554 138.0,255.55555555555554 138.0,255.55555555555554 138.0,255.55555555555554 138.0,255.55555555555554 138.0,255.55555555555554 138.0,255.55555555555554 138.0,255.55555555555554 138.0,255.55555555555554 138.0,255.55555555555554 138.0,255.55555555555554" stroke="#55a868" fill="#55a868" fill-opacity="0.4" stroke-width="1" drake-tooltip=":day: Thur
:tip: 3.0
:time: Dinner"></polyline> <line x1="78.0" x2="138.0" y1="255.55555555555554" y2="255.55555555555554" stroke="black" stroke-width="2"></line> <polyline points="226.85682814563793,295.55555555555554 225.42198614918902,294.37333333333333 223.88689117790278,293.1911111111111 222.2684615447675,292.0088888888889 220.5879289154506,290.82666666666665 218.87046526677437,289.64444444444445 217.14458327518045,288.4622222222222 215.44131960023412,287.28 213.79322462691152,286.09777777777776 212.233196556028,284.91555555555556 210.79321132801928,283.73333333333335 209.5030115921781,282.55111111111114 208.38882654653287,281.3688888888889 207.47219875720353,280.18666666666667 206.76899301248292,279.0044444444444 206.28865526847414,277.8222222222222 206.03377675905682,276.64 206.0,275.4577777777778 206.17628101418586,274.27555555555557 206.54549750986155,273.09333333333336 207.08536819079777,271.9111111111111 207.76962619604294,270.7288888888889 208.56937198754576,269.5466666666667 209.45451948446953,268.3644444444444 210.39524486514006,267.1822222222222 211.3633504182281,266.0 212.333465537673,264.8177777777778 213.28402215681297,263.6355555555556 214.19796085316227,262.4533333333333 215.0631445265746,261.2711111111111 215.87247697322329,260.08888888888885 216.62374211227507,258.90666666666664 217.31919477997434,257.72444444444443 217.96494515023042,256.5422222222222 218.5701858102379,255.36 219.1463136566978,254.17777777777778 219.70599878021727,252.99555555555554 220.2622502268641,251.81333333333333 220.82752477181128,250.6311111111111 221.4129201955115,249.4488888888889 222.0274892851863,248.26666666666665 222.67770484184365,247.08444444444444 223.3670990799362,245.90222222222224 224.0960926315562,244.72 224.86201871915264,243.5377777777778 225.65933706334022,242.35555555555555 226.48002028155673,241.17333333333332 227.31408385126593,239.9911111111111 228.15022038722105,238.80888888888887 228.9764913232346,237.62666666666667 229.7810252275088,236.44444444444446 242.2189747724912,236.44444444444446 243.0235086767654,237.62666666666667 243.84977961277895,238.80888888888887 244.68591614873407,239.9911111111111 245.51997971844327,241.17333333333332 246.34066293665978,242.35555555555555 247.13798128084736,243.5377777777778 247.9039073684438,244.72 248.6329009200638,245.90222222222224 249.32229515815635,247.08444444444444 249.9725107148137,248.26666666666665 250.5870798044885,249.4488888888889 251.17247522818872,250.6311111111111 251.7377497731359,251.81333333333333 252.29400121978273,252.99555555555554 252.8536863433022,254.17777777777778 253.4298141897621,255.36 254.03505484976958,256.5422222222222 254.68080522002566,257.72444444444443 255.37625788772493,258.90666666666664 256.1275230267767,260.08888888888885 256.9368554734254,261.2711111111111 257.8020391468377,262.4533333333333 258.71597784318703,263.6355555555556 259.66653446232704,264.8177777777778 260.6366495817719,266.0 261.60475513485994,267.1822222222222 262.54548051553047,268.3644444444444 263.43062801245424,269.5466666666667 264.23037380395704,270.7288888888889 264.9146318092022,271.9111111111111 265.45450249013845,273.09333333333336 265.82371898581414,274.27555555555557 266.0,275.4577777777778 265.9662232409432,276.64 265.71134473152586,277.8222222222222 265.23100698751705,279.0044444444444 264.52780124279644,280.18666666666667 263.61117345346713,281.3688888888889 262.4969884078219,282.55111111111114 261.2067886719807,283.73333333333335 259.766803443972,284.91555555555556 258.2067753730885,286.09777777777776 256.5586803997659,287.28 254.85541672481955,288.4622222222222 253.12953473322563,289.64444444444445 251.4120710845494,290.82666666666665 249.7315384552325,292.0088888888889 248.11310882209722,293.1911111111111 246.57801385081098,294.37333333333333 245.14317185436207,295.55555555555554" stroke="#4c72b0" fill="#4c72b0" fill-opacity="0.4" stroke-width="1"><title>:day: Fri
:tip: 2.2
:time: Lunch</title> points="226.85682814563793,295.55555555555554 225.42198614918902,294.37333333333333 223.88689117790278,293.1911111111111 222.2684615447675,292.0088888888889 220.5879289154506,290.82666666666665 218.87046526677437,289.64444444444445 217.14458327518045,288.4622222222222 215.44131960023412,287.28 213.79322462691152,286.09777777777776 212.233196556028,284.91555555555556 210.79321132801928,283.73333333333335 209.5030115921781,282.55111111111114 208.38882654653287,281.3688888888889 207.47219875720353,280.18666666666667 206.76899301248292,279.0044444444444 206.28865526847414,277.8222222222222 206.03377675905682,276.64 206.0,275.4577777777778 206.17628101418586,274.27555555555557 206.54549750986155,273.09333333333336 207.08536819079777,271.9111111111111 207.76962619604294,270.7288888888889 208.56937198754576,269.5466666666667 209.45451948446953,268.3644444444444 210.39524486514006,267.1822222222222 211.3633504182281,266.0 212.333465537673,264.8177777777778 213.28402215681297,263.6355555555556 214.19796085316227,262.4533333333333 215.0631445265746,261.2711111111111 215.87247697322329,260.08888888888885 216.62374211227507,258.90666666666664 217.31919477997434,257.72444444444443 217.96494515023042,256.5422222222222 218.5701858102379,255.36 219.1463136566978,254.17777777777778 219.70599878021727,252.99555555555554 220.2622502268641,251.81333333333333 220.82752477181128,250.6311111111111 221.4129201955115,249.4488888888889 222.0274892851863,248.26666666666665 222.67770484184365,247.08444444444444 223.3670990799362,245.90222222222224 224.0960926315562,244.72 224.86201871915264,243.5377777777778 225.65933706334022,242.35555555555555 226.48002028155673,241.17333333333332 227.31408385126593,239.9911111111111 228.15022038722105,238.80888888888887 228.9764913232346,237.62666666666667 229.7810252275088,236.44444444444446 242.2189747724912,236.44444444444446 243.0235086767654,237.62666666666667 243.84977961277895,238.80888888888887 244.68591614873407,239.9911111111111 245.51997971844327,241.17333333333332 246.34066293665978,242.35555555555555 247.13798128084736,243.5377777777778 247.9039073684438,244.72 248.6329009200638,245.90222222222224 249.32229515815635,247.08444444444444 249.9725107148137,248.26666666666665 250.5870798044885,249.4488888888889 251.17247522818872,250.6311111111111 251.7377497731359,251.81333333333333 252.29400121978273,252.99555555555554 252.8536863433022,254.17777777777778 253.4298141897621,255.36 254.03505484976958,256.5422222222222 254.68080522002566,257.72444444444443 255.37625788772493,258.90666666666664 256.1275230267767,260.08888888888885 256.9368554734254,261.2711111111111 257.8020391468377,262.4533333333333 258.71597784318703,263.6355555555556 259.66653446232704,264.8177777777778 260.6366495817719,266.0 261.60475513485994,267.1822222222222 262.54548051553047,268.3644444444444 263.43062801245424,269.5466666666667 264.23037380395704,270.7288888888889 264.9146318092022,271.9111111111111 265.45450249013845,273.09333333333336 265.82371898581414,274.27555555555557 266.0,275.4577777777778 265.9662232409432,276.64 265.71134473152586,277.8222222222222 265.23100698751705,279.0044444444444 264.52780124279644,280.18666666666667 263.61117345346713,281.3688888888889 262.4969884078219,282.55111111111114 261.2067886719807,283.73333333333335 259.766803443972,284.91555555555556 258.2067753730885,286.09777777777776 256.5586803997659,287.28 254.85541672481955,288.4622222222222 253.12953473322563,289.64444444444445 251.4120710845494,290.82666666666665 249.7315384552325,292.0088888888889 248.11310882209722,293.1911111111111 246.57801385081098,294.37333333333333 245.14317185436207,295.55555555555554" stroke="#4c72b0" fill="#4c72b0" fill-opacity="0.4" stroke-width="1" drake-tooltip=":day: Fri
:tip: 2.2
:time: Lunch"></polyline> <line x1="206.0" x2="266.0" y1="273.3333333333333" y2="273.3333333333333" stroke="black" stroke-width="2"></line> <polyline points="231.36028676956107,316.5777777777778 230.36087471769434,314.25688888888885 229.27115086449965,311.93600000000004 228.1147272428123,309.6151111111111 226.9215254183564,307.29422222222223 225.7257513207935,304.97333333333336 224.56299523978092,302.6524444444444 223.46668704698604,300.33155555555555 222.4642799259413,298.0106666666667 221.57364566548043,295.68977777777775 220.80021512685744,293.3688888888889 220.1353694959976,291.048 219.55647350806717,288.72711111111107 219.0287479829749,286.4062222222222 218.50892838727208,284.0853333333333 217.95038464253764,281.76444444444445 217.30912878765926,279.4435555555555 216.5499554603147,277.12266666666665 215.65188169701682,274.8017777777778 214.61209831146374,272.4808888888889 213.4478161401671,270.15999999999997 212.1956663575221,267.8391111111111 210.9086554300708,265.5182222222222 209.65102951449555,263.1973333333333 208.4917129666539,260.8764444444444 207.49719901615623,258.55555555555554 206.7248500492027,256.2346666666666 206.21749477373334,253.91377777777777 206.0,251.59288888888887 206.07818089345238,249.27199999999996 206.44004944053108,246.9511111111111 207.05904977747016,244.6302222222222 207.89865127251417,242.3093333333333 208.91751135586816,239.98844444444444 210.07440200807451,237.66755555555554 211.3322111716797,235.34666666666664 212.66055263743613,233.02577777777776 214.03679703606255,230.70488888888886 215.44561752535088,228.384 216.87737642908039,226.06311111111108 218.32582752754737,223.7422222222222 219.78565675072065,221.42133333333334 221.25033604749694,219.1004444444444 222.71064256180532,216.77955555555553 224.1540298536157,214.45866666666666 225.5648646819266,212.13777777777776 226.92539283711432,209.81688888888885 228.2171927792882,207.49599999999998 229.42282710748205,205.17511111111108 230.52740845456466,202.8542222222222 231.51984822218927,200.53333333333333 240.48015177781073,200.53333333333333 241.47259154543534,202.8542222222222 242.57717289251795,205.17511111111108 243.7828072207118,207.49599999999998 245.07460716288568,209.81688888888885 246.4351353180734,212.13777777777776 247.8459701463843,214.45866666666666 249.28935743819468,216.77955555555553 250.74966395250306,219.1004444444444 252.21434324927935,221.42133333333334 253.67417247245263,223.7422222222222 255.12262357091961,226.06311111111108 256.5543824746491,228.384 257.9632029639374,230.70488888888886 259.3394473625639,233.02577777777776 260.66778882832034,235.34666666666664 261.9255979919255,237.66755555555554 263.08248864413184,239.98844444444444 264.10134872748586,242.3093333333333 264.94095022252986,244.6302222222222 265.5599505594689,246.9511111111111 265.9218191065476,249.27199999999996 266.0,251.59288888888887 265.78250522626666,253.91377777777777 265.2751499507973,256.2346666666666 264.50280098384377,258.55555555555554 263.5082870333461,260.8764444444444 262.3489704855045,263.1973333333333 261.0913445699292,265.5182222222222 259.8043336424779,267.8391111111111 258.5521838598329,270.15999999999997 257.38790168853626,272.4808888888889 256.34811830298315,274.8017777777778 255.4500445396853,277.12266666666665 254.69087121234074,279.4435555555555 254.04961535746236,281.76444444444445 253.49107161272792,284.0853333333333 252.9712520170251,286.4062222222222 252.44352649193283,288.72711111111107 251.8646305040024,291.048 251.19978487314256,293.3688888888889 250.42635433451957,295.68977777777775 249.5357200740587,298.0106666666667 248.53331295301396,300.33155555555555 247.43700476021908,302.6524444444444 246.2742486792065,304.97333333333336 245.0784745816436,307.29422222222223 243.8852727571877,309.6151111111111 242.72884913550035,311.93600000000004 241.63912528230566,314.25688888888885 240.63971323043893,316.5777777777778" stroke="#55a868" fill="#55a868" fill-opacity="0.4" stroke-width="1"><title>:day: Fri
:tip: 3.0
:time: Dinner</title> points="231.36028676956107,316.5777777777778 230.36087471769434,314.25688888888885 229.27115086449965,311.93600000000004 228.1147272428123,309.6151111111111 226.9215254183564,307.29422222222223 225.7257513207935,304.97333333333336 224.56299523978092,302.6524444444444 223.46668704698604,300.33155555555555 222.4642799259413,298.0106666666667 221.57364566548043,295.68977777777775 220.80021512685744,293.3688888888889 220.1353694959976,291.048 219.55647350806717,288.72711111111107 219.0287479829749,286.4062222222222 218.50892838727208,284.0853333333333 217.95038464253764,281.76444444444445 217.30912878765926,279.4435555555555 216.5499554603147,277.12266666666665 215.65188169701682,274.8017777777778 214.61209831146374,272.4808888888889 213.4478161401671,270.15999999999997 212.1956663575221,267.8391111111111 210.9086554300708,265.5182222222222 209.65102951449555,263.1973333333333 208.4917129666539,260.8764444444444 207.49719901615623,258.55555555555554 206.7248500492027,256.2346666666666 206.21749477373334,253.91377777777777 206.0,251.59288888888887 206.07818089345238,249.27199999999996 206.44004944053108,246.9511111111111 207.05904977747016,244.6302222222222 207.89865127251417,242.3093333333333 208.91751135586816,239.98844444444444 210.07440200807451,237.66755555555554 211.3322111716797,235.34666666666664 212.66055263743613,233.02577777777776 214.03679703606255,230.70488888888886 215.44561752535088,228.384 216.87737642908039,226.06311111111108 218.32582752754737,223.7422222222222 219.78565675072065,221.42133333333334 221.25033604749694,219.1004444444444 222.71064256180532,216.77955555555553 224.1540298536157,214.45866666666666 225.5648646819266,212.13777777777776 226.92539283711432,209.81688888888885 228.2171927792882,207.49599999999998 229.42282710748205,205.17511111111108 230.52740845456466,202.8542222222222 231.51984822218927,200.53333333333333 240.48015177781073,200.53333333333333 241.47259154543534,202.8542222222222 242.57717289251795,205.17511111111108 243.7828072207118,207.49599999999998 245.07460716288568,209.81688888888885 246.4351353180734,212.13777777777776 247.8459701463843,214.45866666666666 249.28935743819468,216.77955555555553 250.74966395250306,219.1004444444444 252.21434324927935,221.42133333333334 253.67417247245263,223.7422222222222 255.12262357091961,226.06311111111108 256.5543824746491,228.384 257.9632029639374,230.70488888888886 259.3394473625639,233.02577777777776 260.66778882832034,235.34666666666664 261.9255979919255,237.66755555555554 263.08248864413184,239.98844444444444 264.10134872748586,242.3093333333333 264.94095022252986,244.6302222222222 265.5599505594689,246.9511111111111 265.9218191065476,249.27199999999996 266.0,251.59288888888887 265.78250522626666,253.91377777777777 265.2751499507973,256.2346666666666 264.50280098384377,258.55555555555554 263.5082870333461,260.8764444444444 262.3489704855045,263.1973333333333 261.0913445699292,265.5182222222222 259.8043336424779,267.8391111111111 258.5521838598329,270.15999999999997 257.38790168853626,272.4808888888889 256.34811830298315,274.8017777777778 255.4500445396853,277.12266666666665 254.69087121234074,279.4435555555555 254.04961535746236,281.76444444444445 253.49107161272792,284.0853333333333 252.9712520170251,286.4062222222222 252.44352649193283,288.72711111111107 251.8646305040024,291.048 251.19978487314256,293.3688888888889 250.42635433451957,295.68977777777775 249.5357200740587,298.0106666666667 248.53331295301396,300.33155555555555 247.43700476021908,302.6524444444444 246.2742486792065,304.97333333333336 245.0784745816436,307.29422222222223 243.8852727571877,309.6151111111111 242.72884913550035,311.93600000000004 241.63912528230566,314.25688888888885 240.63971323043893,316.5777777777778" stroke="#55a868" fill="#55a868" fill-opacity="0.4" stroke-width="1" drake-tooltip=":day: Fri
:tip: 3.0
:time: Dinner"></polyline> <line x1="206.0" x2="266.0" y1="255.55555555555554" y2="255.55555555555554" stroke="black" stroke-width="2"></line> <polyline points="363.9003023280597,340.0 363.72012192785917,334.4 363.3065338677739,328.8 362.47612967539686,323.2 361.01194359117864,317.6 358.7328426864058,312.0 355.58174564401395,306.4 351.68911688905206,300.8 347.37771769942515,295.2 343.10274985160515,289.6 339.34199923583816,284.0 336.46938322678295,278.4 334.676036822205,272.8 334.0,267.2 334.4355207179159,261.6 335.99198250347195,256.0 338.6149041628373,250.39999999999998 342.05494594131886,244.8 345.8569825590087,239.2 349.5165992159571,233.6 352.67447558917866,228.0 355.20062405610884,222.4 357.1443723364917,216.79999999999998 358.62668817688706,211.2 359.75363050001204,205.6 360.5848710588749,200.0 361.1524412825825,194.4 361.49940037062066,188.79999999999998 361.70037808443504,183.2 361.8459518117611,177.60000000000002 362.0070727182288,171.99999999999997 362.21176719232113,166.4 362.44979482480386,160.79999999999998 362.69274107603775,155.2 362.90881756311603,149.60000000000002 363.0682140872161,143.99999999999997 363.149769835313,138.4 363.1526540902344,132.8 363.1014185615142,127.19999999999999 363.03491410822375,121.6 362.98779787976014,116.0 362.981490881708,110.39999999999998 363.02764895869564,104.80000000000001 363.13153474753136,99.19999999999996 363.2870569016191,93.59999999999997 363.47145018714525,88.0 363.6511455836395,82.39999999999998 363.7970690865191,76.80000000000001 363.8966375133614,71.19999999999999 363.95408545390757,65.59999999999997 363.9822549124974,60.0 364.0177450875026,60.0 364.04591454609243,65.59999999999997 364.1033624866386,71.19999999999999 364.2029309134809,76.80000000000001 364.3488544163605,82.39999999999998 364.52854981285475,88.0 364.7129430983809,93.59999999999997 364.86846525246864,99.19999999999996 364.97235104130436,104.80000000000001 365.018509118292,110.39999999999998 365.01220212023986,116.0 364.96508589177625,121.6 364.8985814384858,127.19999999999999 364.8473459097656,132.8 364.850230164687,138.4 364.9317859127839,143.99999999999997 365.09118243688397,149.60000000000002 365.30725892396225,155.2 365.55020517519614,160.79999999999998 365.78823280767887,166.4 365.9929272817712,171.99999999999997 366.1540481882389,177.60000000000002 366.29962191556496,183.2 366.50059962937934,188.79999999999998 366.8475587174175,194.4 367.4151289411251,200.0 368.24636949998796,205.6 369.37331182311294,211.2 370.8556276635083,216.79999999999998 372.79937594389116,222.4 375.32552441082134,228.0 378.4834007840429,233.6 382.1430174409913,239.2 385.94505405868114,244.8 389.3850958371627,250.39999999999998 392.00801749652805,256.0 393.5644792820841,261.6 394.0,267.2 393.323963177795,272.8 391.53061677321705,278.4 388.65800076416184,284.0 384.89725014839485,289.6 380.62228230057485,295.2 376.31088311094794,300.8 372.41825435598605,306.4 369.2671573135942,312.0 366.98805640882136,317.6 365.52387032460314,323.2 364.6934661322261,328.8 364.27987807214083,334.4 364.0996976719403,340.0" stroke="#55a868" fill="#55a868" fill-opacity="0.4" stroke-width="1"><title>:day: Sat
:tip: 2.75
:time: Dinner</title> points="363.9003023280597,340.0 363.72012192785917,334.4 363.3065338677739,328.8 362.47612967539686,323.2 361.01194359117864,317.6 358.7328426864058,312.0 355.58174564401395,306.4 351.68911688905206,300.8 347.37771769942515,295.2 343.10274985160515,289.6 339.34199923583816,284.0 336.46938322678295,278.4 334.676036822205,272.8 334.0,267.2 334.4355207179159,261.6 335.99198250347195,256.0 338.6149041628373,250.39999999999998 342.05494594131886,244.8 345.8569825590087,239.2 349.5165992159571,233.6 352.67447558917866,228.0 355.20062405610884,222.4 357.1443723364917,216.79999999999998 358.62668817688706,211.2 359.75363050001204,205.6 360.5848710588749,200.0 361.1524412825825,194.4 361.49940037062066,188.79999999999998 361.70037808443504,183.2 361.8459518117611,177.60000000000002 362.0070727182288,171.99999999999997 362.21176719232113,166.4 362.44979482480386,160.79999999999998 362.69274107603775,155.2 362.90881756311603,149.60000000000002 363.0682140872161,143.99999999999997 363.149769835313,138.4 363.1526540902344,132.8 363.1014185615142,127.19999999999999 363.03491410822375,121.6 362.98779787976014,116.0 362.981490881708,110.39999999999998 363.02764895869564,104.80000000000001 363.13153474753136,99.19999999999996 363.2870569016191,93.59999999999997 363.47145018714525,88.0 363.6511455836395,82.39999999999998 363.7970690865191,76.80000000000001 363.8966375133614,71.19999999999999 363.95408545390757,65.59999999999997 363.9822549124974,60.0 364.0177450875026,60.0 364.04591454609243,65.59999999999997 364.1033624866386,71.19999999999999 364.2029309134809,76.80000000000001 364.3488544163605,82.39999999999998 364.52854981285475,88.0 364.7129430983809,93.59999999999997 364.86846525246864,99.19999999999996 364.97235104130436,104.80000000000001 365.018509118292,110.39999999999998 365.01220212023986,116.0 364.96508589177625,121.6 364.8985814384858,127.19999999999999 364.8473459097656,132.8 364.850230164687,138.4 364.9317859127839,143.99999999999997 365.09118243688397,149.60000000000002 365.30725892396225,155.2 365.55020517519614,160.79999999999998 365.78823280767887,166.4 365.9929272817712,171.99999999999997 366.1540481882389,177.60000000000002 366.29962191556496,183.2 366.50059962937934,188.79999999999998 366.8475587174175,194.4 367.4151289411251,200.0 368.24636949998796,205.6 369.37331182311294,211.2 370.8556276635083,216.79999999999998 372.79937594389116,222.4 375.32552441082134,228.0 378.4834007840429,233.6 382.1430174409913,239.2 385.94505405868114,244.8 389.3850958371627,250.39999999999998 392.00801749652805,256.0 393.5644792820841,261.6 394.0,267.2 393.323963177795,272.8 391.53061677321705,278.4 388.65800076416184,284.0 384.89725014839485,289.6 380.62228230057485,295.2 376.31088311094794,300.8 372.41825435598605,306.4 369.2671573135942,312.0 366.98805640882136,317.6 365.52387032460314,323.2 364.6934661322261,328.8 364.27987807214083,334.4 364.0996976719403,340.0" stroke="#55a868" fill="#55a868" fill-opacity="0.4" stroke-width="1" drake-tooltip=":day: Sat
:tip: 2.75
:time: Dinner"></polyline> <line x1="334.0" x2="394.0" y1="261.1111111111111" y2="261.1111111111111" stroke="black" stroke-width="2"></line> <polyline points="491.83013687808307,324.1777777777778 491.660138102515,320.76177777777775 491.36059995454593,317.34577777777776 490.8641697759769,313.92977777777776 490.0876337666874,310.51377777777776 488.93897589805385,307.09777777777776 487.33264516547916,303.68177777777777 485.2147181901128,300.26577777777777 482.5954601830742,296.8497777777778 479.57941491532233,293.4337777777778 476.37610512654146,290.0177777777778 473.2743266516893,286.6017777777778 470.5751714434948,283.1857777777778 468.5010143777128,279.7697777777778 467.117635199843,276.3537777777778 466.3090876253242,272.9377777777778 465.82372648809815,269.52177777777774 465.3754331049321,266.1057777777778 464.75738866666563,262.68977777777775 463.92214404211455,259.2737777777778 463.00019678399536,255.85777777777778 462.2558736875815,252.44177777777776 462.0,249.02577777777776 462.4884057486217,245.60977777777777 463.8359579265625,242.19377777777777 465.97059137138854,238.77777777777777 468.6415616012984,235.36177777777777 471.48144290111304,231.94577777777778 474.10519144175373,228.52977777777778 476.2167535452135,225.11377777777778 477.6888376013075,221.6977777777778 478.58765785585564,218.2817777777778 479.1322975540109,214.8657777777778 479.6036371840882,211.4497777777778 480.2399601423058,208.0337777777778 481.16236698227453,204.6177777777778 482.3571821699663,201.20177777777778 483.7129757072987,197.78577777777778 485.0847781652217,194.36977777777778 486.35179736588594,190.9537777777778 487.4473865131018,187.5377777777778 488.3591343632901,184.1217777777778 489.1101917405172,180.7057777777778 489.7359584788408,177.2897777777778 490.26631576557526,173.8737777777778 490.7177248431362,170.4577777777778 491.09454437817607,167.0417777777778 491.39571300059043,163.6257777777778 491.62191593764646,160.2097777777778 491.77960126357357,156.7937777777778 491.8808470605875,153.3777777777778 492.1191529394125,153.3777777777778 492.22039873642643,156.7937777777778 492.37808406235354,160.2097777777778 492.60428699940957,163.6257777777778 492.90545562182393,167.0417777777778 493.2822751568638,170.4577777777778 493.73368423442474,173.8737777777778 494.2640415211592,177.2897777777778 494.8898082594828,180.7057777777778 495.6408656367099,184.1217777777778 496.5526134868982,187.5377777777778 497.64820263411406,190.9537777777778 498.9152218347783,194.36977777777778 500.2870242927013,197.78577777777778 501.6428178300337,201.20177777777778 502.83763301772547,204.6177777777778 503.7600398576942,208.0337777777778 504.3963628159118,211.4497777777778 504.8677024459891,214.8657777777778 505.41234214414436,218.2817777777778 506.3111623986925,221.6977777777778 507.7832464547865,225.11377777777778 509.89480855824627,228.52977777777778 512.518557098887,231.94577777777778 515.3584383987017,235.36177777777777 518.0294086286115,238.77777777777777 520.1640420734375,242.19377777777777 521.5115942513784,245.60977777777777 522.0,249.02577777777776 521.7441263124185,252.44177777777776 520.9998032160047,255.85777777777778 520.0778559578855,259.2737777777778 519.2426113333344,262.68977777777775 518.6245668950679,266.1057777777778 518.1762735119019,269.52177777777774 517.6909123746758,272.9377777777778 516.882364800157,276.3537777777778 515.4989856222871,279.7697777777778 513.4248285565052,283.1857777777778 510.7256733483107,286.6017777777778 507.62389487345854,290.0177777777778 504.42058508467767,293.4337777777778 501.4045398169258,296.8497777777778 498.7852818098872,300.26577777777777 496.66735483452084,303.68177777777777 495.06102410194615,307.09777777777776 493.9123662333126,310.51377777777776 493.1358302240231,313.92977777777776 492.63940004545407,317.34577777777776 492.339861897485,320.76177777777775 492.16986312191693,324.1777777777778" stroke="#55a868" fill="#55a868" fill-opacity="0.4" stroke-width="1"><title>:day: Sun
:tip: 3.1500000000000004
:time: Dinner</title> points="491.83013687808307,324.1777777777778 491.660138102515,320.76177777777775 491.36059995454593,317.34577777777776 490.8641697759769,313.92977777777776 490.0876337666874,310.51377777777776 488.93897589805385,307.09777777777776 487.33264516547916,303.68177777777777 485.2147181901128,300.26577777777777 482.5954601830742,296.8497777777778 479.57941491532233,293.4337777777778 476.37610512654146,290.0177777777778 473.2743266516893,286.6017777777778 470.5751714434948,283.1857777777778 468.5010143777128,279.7697777777778 467.117635199843,276.3537777777778 466.3090876253242,272.9377777777778 465.82372648809815,269.52177777777774 465.3754331049321,266.1057777777778 464.75738866666563,262.68977777777775 463.92214404211455,259.2737777777778 463.00019678399536,255.85777777777778 462.2558736875815,252.44177777777776 462.0,249.02577777777776 462.4884057486217,245.60977777777777 463.8359579265625,242.19377777777777 465.97059137138854,238.77777777777777 468.6415616012984,235.36177777777777 471.48144290111304,231.94577777777778 474.10519144175373,228.52977777777778 476.2167535452135,225.11377777777778 477.6888376013075,221.6977777777778 478.58765785585564,218.2817777777778 479.1322975540109,214.8657777777778 479.6036371840882,211.4497777777778 480.2399601423058,208.0337777777778 481.16236698227453,204.6177777777778 482.3571821699663,201.20177777777778 483.7129757072987,197.78577777777778 485.0847781652217,194.36977777777778 486.35179736588594,190.9537777777778 487.4473865131018,187.5377777777778 488.3591343632901,184.1217777777778 489.1101917405172,180.7057777777778 489.7359584788408,177.2897777777778 490.26631576557526,173.8737777777778 490.7177248431362,170.4577777777778 491.09454437817607,167.0417777777778 491.39571300059043,163.6257777777778 491.62191593764646,160.2097777777778 491.77960126357357,156.7937777777778 491.8808470605875,153.3777777777778 492.1191529394125,153.3777777777778 492.22039873642643,156.7937777777778 492.37808406235354,160.2097777777778 492.60428699940957,163.6257777777778 492.90545562182393,167.0417777777778 493.2822751568638,170.4577777777778 493.73368423442474,173.8737777777778 494.2640415211592,177.2897777777778 494.8898082594828,180.7057777777778 495.6408656367099,184.1217777777778 496.5526134868982,187.5377777777778 497.64820263411406,190.9537777777778 498.9152218347783,194.36977777777778 500.2870242927013,197.78577777777778 501.6428178300337,201.20177777777778 502.83763301772547,204.6177777777778 503.7600398576942,208.0337777777778 504.3963628159118,211.4497777777778 504.8677024459891,214.8657777777778 505.41234214414436,218.2817777777778 506.3111623986925,221.6977777777778 507.7832464547865,225.11377777777778 509.89480855824627,228.52977777777778 512.518557098887,231.94577777777778 515.3584383987017,235.36177777777777 518.0294086286115,238.77777777777777 520.1640420734375,242.19377777777777 521.5115942513784,245.60977777777777 522.0,249.02577777777776 521.7441263124185,252.44177777777776 520.9998032160047,255.85777777777778 520.0778559578855,259.2737777777778 519.2426113333344,262.68977777777775 518.6245668950679,266.1057777777778 518.1762735119019,269.52177777777774 517.6909123746758,272.9377777777778 516.882364800157,276.3537777777778 515.4989856222871,279.7697777777778 513.4248285565052,283.1857777777778 510.7256733483107,286.6017777777778 507.62389487345854,290.0177777777778 504.42058508467767,293.4337777777778 501.4045398169258,296.8497777777778 498.7852818098872,300.26577777777777 496.66735483452084,303.68177777777777 495.06102410194615,307.09777777777776 493.9123662333126,310.51377777777776 493.1358302240231,313.92977777777776 492.63940004545407,317.34577777777776 492.339861897485,320.76177777777775 492.16986312191693,324.1777777777778" stroke="#55a868" fill="#55a868" fill-opacity="0.4" stroke-width="1" drake-tooltip=":day: Sun
:tip: 3.1500000000000004
:time: Dinner"></polyline> <line x1="462.0" x2="522.0" y1="252.22222222222223" y2="252.22222222222223" stroke="black" stroke-width="2"></line> <rect width="100" height="40" x="430" y="70" stroke="#cccccc" fill-opacity="0.9" fill="#ffffff"></rect> <circle cx="440" cy="80" r="5" fill="#4c72b0"></circle> <text fill="#000000" font-size="10px" y="85" x="450"> Lunch</text> <circle cx="440" cy="100" r="5" fill="#55a868"></circle> <text fill="#000000" font-size="10px" y="105" x="450"> Dinner</text> <text font-weight="bold" fill="#000000" font-size="16px" text-anchor="middle" y="30" x="300"> Tip Distribution by Day and Time</text></svg>