<svg width="600" height="400" version="1.1" xmlns="http://www.w3.org/2000/svg" xmlns:xlink="http://www.w3.org/1999/xlink"> <rect width="600" height="400" x="0" y="0" fill="#ffffff"></rect> <line x1="60" x2="540" y1="340.0" y2="340.0" stroke-dasharray="none" stroke="#eeeeee" stroke-width="1"></line> <line x1="55" x2="60" y1="340.0" y2="340.0" stroke="#000000" stroke-width="1"></line> <text fill="#000000" font-size="10px" text-anchor="end" y="344.0" x="50"> 19.0</text> <line x1="60" x2="540" y1="284.0" y2="284.0" stroke-dasharray="none" stroke="#eeeeee" stroke-width="1"></line> <line x1="55" x2="60" y1="284.0" y2="284.0" stroke="#000000" stroke-width="1"></line> <text fill="#000000" font-size="10px" text-anchor="end" y="288.0" x="50"> 32.6</text> <line x1="60" x2="540" y1="228.0" y2="228.0" stroke-dasharray="none" stroke="#eeeeee" stroke-width="1"></line> <line x1="55" x2="60" y1="228.0" y2="228.0" stroke="#000000" stroke-width="1"></line> <text fill="#000000" font-size="10px" text-anchor="end" y="232.0" x="50"> 46.2</text> <line x1="60" x2="540" y1="172.0" y2="172.0" stroke-dasharray="none" stroke="#eeeeee" stroke-width="1"></line> <line x1="55" x2="60" y1="172.0" y2="172.0" stroke="#000000" stroke-width="1"></line> <text fill="#000000" font-size="10px" text-anchor="end" y="176.0" x="50"> 59.8</text> <line x1="60" x2="540" y1="116.0" y2="116.0" stroke-dasharray="none" stroke="#eeeeee" stroke-width="1"></line> <line x1="55" x2="60" y1="116.0" y2="116.0" stroke="#000000" stroke-width="1"></line> <text fill="#000000" font-size="10px" text-anchor="end" y="120.0" x="50"> 73.4</text> <line x1="60" x2="540" y1="60.0" y2="60.0" stroke-dasharray="none" stroke="#eeeeee" stroke-width="1"></line> <line x1="55" x2="60" y1="60.0" y2="60.0" stroke="#000000" stroke-width="1"></line> <text fill="#000000" font-size="10px" text-anchor="end" y="64.0" x="50"> 87.0</text> <line x1="108.0" x2="108.0" y1="60" y2="340" stroke-dasharray="none" stroke="#eeeeee" stroke-width="1"></line> <text fill="#000000" font-size="10px" text-anchor="middle" y="360" x="108.0"> Sat</text> <line x1="236.0" x2="236.0" y1="60" y2="340" stroke-dasharray="none" stroke="#eeeeee" stroke-width="1"></line> <text fill="#000000" font-size="10px" text-anchor="middle" y="360" x="236.0"> Sun</text> <line x1="364.0" x2="364.0" y1="60" y2="340" stroke-dasharray="none" stroke="#eeeeee" stroke-width="1"></line> <text fill="#000000" font-size="10px" text-anchor="middle" y="360" x="364.0"> Thur</text> <line x1="492.0" x2="492.0" y1="60" y2="340" stroke-dasharray="none" stroke="#eeeeee" stroke-width="1"></line> <text fill="#000000" font-size="10px" text-anchor="middle" y="360" x="492.0"> Fri</text> <line x1="60" x2="60" y1="60" y2="340" stroke="#000000" stroke-width="1"></line> <line x1="60" x2="540" y1="340" y2="340" stroke="#000000" stroke-width="1"></line> <text fill="#000000" font-size="12px" text-anchor="middle" y="380" x="300"> :day</text> <text transform="rotate(-90 10 200)" fill="#000000" font-size="12px" text-anchor="middle" y="200" x="10"> :count</text> <rect width="96.0" height="280.0" x="60.0" y="60.0" stroke="white" fill="steelblue"><title>:day: Sat
:count: 87</title> width="96.0" height="280.0" x="60.0" y="60.0" drake-tooltip=":day: Sat
:count: 87" stroke="white" fill="steelblue"></rect> <rect width="96.0" height="234.7058823529412" x="188.0" y="105.29411764705881" stroke="white" fill="steelblue"><title>:day: Sun
:count: 76</title> width="96.0" height="234.7058823529412" x="188.0" y="105.29411764705881" drake-tooltip=":day: Sun
:count: 76" stroke="white" fill="steelblue"></rect> <rect width="96.0" height="177.05882352941177" x="316.0" y="162.94117647058823" stroke="white" fill="steelblue"><title>:day: Thur
:count: 62</title> width="96.0" height="177.05882352941177" x="316.0" y="162.94117647058823" drake-tooltip=":day: Thur
:count: 62" stroke="white" fill="steelblue"></rect> <rect width="96.0" height="0.0" x="444.0" y="340.0" stroke="white" fill="steelblue"><title>:day: Fri
:count: 19</title> width="96.0" height="0.0" x="444.0" y="340.0" drake-tooltip=":day: Fri
:count: 19" stroke="white" fill="steelblue"></rect> <text font-weight="bold" fill="#000000" font-size="16px" text-anchor="middle" y="30" x="300"> Most Popular Days</text></svg>