<svg width="600" height="400" version="1.1" xmlns="http://www.w3.org/2000/svg" xmlns:xlink="http://www.w3.org/1999/xlink"> <rect width="600" height="400" x="0" y="0" fill="#ffffff"></rect> <line x1="60" x2="540" y1="340.0" y2="340.0" stroke-dasharray="none" stroke="#eeeeee" stroke-width="1"></line> <line x1="55" x2="60" y1="340.0" y2="340.0" stroke="#000000" stroke-width="1"></line> <text fill="#000000" font-size="10px" text-anchor="end" y="344.0" x="50"> 15.4</text> <line x1="60" x2="540" y1="284.0" y2="284.0" stroke-dasharray="none" stroke="#eeeeee" stroke-width="1"></line> <line x1="55" x2="60" y1="284.0" y2="284.0" stroke="#000000" stroke-width="1"></line> <text fill="#000000" font-size="10px" text-anchor="end" y="288.0" x="50"> 16.2</text> <line x1="60" x2="540" y1="228.0" y2="228.0" stroke-dasharray="none" stroke="#eeeeee" stroke-width="1"></line> <line x1="55" x2="60" y1="228.0" y2="228.0" stroke="#000000" stroke-width="1"></line> <text fill="#000000" font-size="10px" text-anchor="end" y="232.0" x="50"> 17.1</text> <line x1="60" x2="540" y1="172.0" y2="172.0" stroke-dasharray="none" stroke="#eeeeee" stroke-width="1"></line> <line x1="55" x2="60" y1="172.0" y2="172.0" stroke="#000000" stroke-width="1"></line> <text fill="#000000" font-size="10px" text-anchor="end" y="176.0" x="50"> 17.9</text> <line x1="60" x2="540" y1="116.0" y2="116.0" stroke-dasharray="none" stroke="#eeeeee" stroke-width="1"></line> <line x1="55" x2="60" y1="116.0" y2="116.0" stroke="#000000" stroke-width="1"></line> <text fill="#000000" font-size="10px" text-anchor="end" y="120.0" x="50"> 18.8</text> <line x1="60" x2="540" y1="60.0" y2="60.0" stroke-dasharray="none" stroke="#eeeeee" stroke-width="1"></line> <line x1="55" x2="60" y1="60.0" y2="60.0" stroke="#000000" stroke-width="1"></line> <text fill="#000000" font-size="10px" text-anchor="end" y="64.0" x="50"> 19.6</text> <line x1="60.0" x2="60.0" y1="60" y2="340" stroke-dasharray="none" stroke="#eeeeee" stroke-width="1"></line> <text fill="#000000" font-size="10px" text-anchor="middle" y="360" x="60.0"> Sun</text> <line x1="220.0" x2="220.0" y1="60" y2="340" stroke-dasharray="none" stroke="#eeeeee" stroke-width="1"></line> <text fill="#000000" font-size="10px" text-anchor="middle" y="360" x="220.0"> Sat</text> <line x1="380.0" x2="380.0" y1="60" y2="340" stroke-dasharray="none" stroke="#eeeeee" stroke-width="1"></line> <text fill="#000000" font-size="10px" text-anchor="middle" y="360" x="380.0"> Thur</text> <line x1="540.0" x2="540.0" y1="60" y2="340" stroke-dasharray="none" stroke="#eeeeee" stroke-width="1"></line> <text fill="#000000" font-size="10px" text-anchor="middle" y="360" x="540.0"> Fri</text> <line x1="60" x2="60" y1="60" y2="340" stroke="#000000" stroke-width="1"></line> <line x1="60" x2="540" y1="340" y2="340" stroke="#000000" stroke-width="1"></line> <text fill="#000000" font-size="12px" text-anchor="middle" y="380" x="300"> :day</text> <text transform="rotate(-90 10 200)" fill="#000000" font-size="12px" text-anchor="middle" y="200" x="10"> :total_bill</text> <line x1="60.0" x2="60.0" y1="875.623529411765" y2="-1820.2823529411771" stroke="black"></line> <rect width="30" height="699.0117647058826" x="45.0" y="-333.1529411764707" stroke="black" fill="steelblue"><title>:day: Sun
:total_bill: 19.63</title> width="30" height="699.0117647058826" x="45.0" y="-333.1529411764707" drake-tooltip=":day: Sun
:total_bill: 19.63" stroke="black" fill="steelblue"></rect> <line x1="45.0" x2="75.0" y1="60.0" y2="60.0" stroke="black" stroke-width="2"></line> <line x1="220.0" x2="220.0" y1="1151.0117647058828" y2="-1994.211764705883" stroke="black"></line> <rect width="30" height="713.8352941176474" x="205.0" y="-276.6588235294121" stroke="black" fill="steelblue"><title>:day: Sat
:total_bill: 18.24</title> width="30" height="713.8352941176474" x="205.0" y="-276.6588235294121" drake-tooltip=":day: Sat
:total_bill: 18.24" stroke="black" fill="steelblue"></rect> <line x1="205.0" x2="235.0" y1="151.57647058823537" y2="151.57647058823537" stroke="black" stroke-width="2"></line> <line x1="380.0" x2="380.0" y1="858.494117647059" y2="-1486.9176470588243" stroke="black"></line> <rect width="30" height="508.1176470588239" x="365.0" y="25.411764705882206" stroke="black" fill="steelblue"><title>:day: Thur
:total_bill: 16.2</title> width="30" height="508.1176470588239" x="365.0" y="25.411764705882206" drake-tooltip=":day: Thur
:total_bill: 16.2" stroke="black" fill="steelblue"></rect> <line x1="365.0" x2="395.0" y1="285.9764705882354" y2="285.9764705882354" stroke="black" stroke-width="2"></line> <line x1="540.0" x2="540.0" y1="974.4470588235297" y2="-1293.2235294117652" stroke="black"></line> <rect width="30" height="636.0941176470592" x="525.0" y="-79.67058823529425" stroke="black" fill="steelblue"><title>:day: Fri
:total_bill: 15.38</title> width="30" height="636.0941176470592" x="525.0" y="-79.67058823529425" drake-tooltip=":day: Fri
:total_bill: 15.38" stroke="black" fill="steelblue"></rect> <line x1="525.0" x2="555.0" y1="340.0" y2="340.0" stroke="black" stroke-width="2"></line> <text font-weight="bold" fill="#000000" font-size="16px" text-anchor="middle" y="30" x="300"> Bill Amount by Day of Week</text></svg>