<svg width="600" height="400" version="1.1" xmlns="http://www.w3.org/2000/svg" xmlns:xlink="http://www.w3.org/1999/xlink"> <rect width="600" height="400" x="0" y="0" fill="#ffffff"></rect> <line x1="60" x2="540" y1="340.0" y2="340.0" stroke-dasharray="none" stroke="#eeeeee" stroke-width="1"></line> <line x1="55" x2="60" y1="340.0" y2="340.0" stroke="#000000" stroke-width="1"></line> <text fill="#000000" font-size="10px" text-anchor="end" y="344.0" x="50"> -6.5</text> <line x1="60" x2="540" y1="284.0" y2="284.0" stroke-dasharray="none" stroke="#eeeeee" stroke-width="1"></line> <line x1="55" x2="60" y1="284.0" y2="284.0" stroke="#000000" stroke-width="1"></line> <text fill="#000000" font-size="10px" text-anchor="end" y="288.0" x="50"> 6.9</text> <line x1="60" x2="540" y1="228.0" y2="228.0" stroke-dasharray="none" stroke="#eeeeee" stroke-width="1"></line> <line x1="55" x2="60" y1="228.0" y2="228.0" stroke="#000000" stroke-width="1"></line> <text fill="#000000" font-size="10px" text-anchor="end" y="232.0" x="50"> 20.3</text> <line x1="60" x2="540" y1="172.0" y2="172.0" stroke-dasharray="none" stroke="#eeeeee" stroke-width="1"></line> <line x1="55" x2="60" y1="172.0" y2="172.0" stroke="#000000" stroke-width="1"></line> <text fill="#000000" font-size="10px" text-anchor="end" y="176.0" x="50"> 33.6</text> <line x1="60" x2="540" y1="116.0" y2="116.0" stroke-dasharray="none" stroke="#eeeeee" stroke-width="1"></line> <line x1="55" x2="60" y1="116.0" y2="116.0" stroke="#000000" stroke-width="1"></line> <text fill="#000000" font-size="10px" text-anchor="end" y="120.0" x="50"> 47.0</text> <line x1="60" x2="540" y1="60.0" y2="60.0" stroke-dasharray="none" stroke="#eeeeee" stroke-width="1"></line> <line x1="55" x2="60" y1="60.0" y2="60.0" stroke="#000000" stroke-width="1"></line> <text fill="#000000" font-size="10px" text-anchor="end" y="64.0" x="50"> 60.4</text> <line x1="60.0" x2="60.0" y1="60" y2="340" stroke-dasharray="none" stroke="#eeeeee" stroke-width="1"></line> <text fill="#000000" font-size="10px" text-anchor="middle" y="360" x="60.0"> Thur</text> <line x1="220.0" x2="220.0" y1="60" y2="340" stroke-dasharray="none" stroke="#eeeeee" stroke-width="1"></line> <text fill="#000000" font-size="10px" text-anchor="middle" y="360" x="220.0"> Fri</text> <line x1="380.0" x2="380.0" y1="60" y2="340" stroke-dasharray="none" stroke="#eeeeee" stroke-width="1"></line> <text fill="#000000" font-size="10px" text-anchor="middle" y="360" x="380.0"> Sat</text> <line x1="540.0" x2="540.0" y1="60" y2="340" stroke-dasharray="none" stroke="#eeeeee" stroke-width="1"></line> <text fill="#000000" font-size="10px" text-anchor="middle" y="360" x="540.0"> Sun</text> <line x1="60" x2="60" y1="60" y2="340" stroke="#000000" stroke-width="1"></line> <line x1="60" x2="540" y1="340" y2="340" stroke="#000000" stroke-width="1"></line> <text fill="#000000" font-size="12px" text-anchor="middle" y="380" x="300"> :day</text> <text transform="rotate(-90 10 200)" fill="#000000" font-size="12px" text-anchor="middle" y="200" x="10"> :total_bill</text> <line x1="60.0" x2="60.0" y1="281.39924591537493" y2="132.25806451612902" stroke="black"></line> <rect width="30" height="32.31043150397991" x="45.0" y="228.42480100544614" stroke="black" fill="steelblue"><title>:day: Thur
:total_bill: 16.2</title> width="30" height="32.31043150397991" x="45.0" y="228.42480100544614" drake-tooltip=":day: Thur
:total_bill: 16.2" stroke="black" fill="steelblue"></rect> <line x1="45.0" x2="75.0" y1="244.9937159614579" y2="244.9937159614579" stroke="black" stroke-width="2"></line> <line x1="220.0" x2="220.0" y1="288.7725178047759" y2="144.57478005865102" stroke="black"></line> <rect width="30" height="40.44826141600339" x="205.0" y="221.74277335567655" stroke="black" fill="steelblue"><title>:day: Fri
:total_bill: 15.38</title> width="30" height="40.44826141600339" x="205.0" y="221.74277335567655" drake-tooltip=":day: Fri
:total_bill: 15.38" stroke="black" fill="steelblue"></rect> <line x1="205.0" x2="235.0" y1="248.42899036447423" y2="248.42899036447423" stroke="black" stroke-width="2"></line> <line x1="380.0" x2="380.0" y1="300.0" y2="99.99999999999997" stroke="black"></line> <rect width="30" height="45.39170506912444" x="365.0" y="209.21658986175112" stroke="black" fill="steelblue"><title>:day: Sat
:total_bill: 18.24</title> width="30" height="45.39170506912444" x="365.0" y="209.21658986175112" drake-tooltip=":day: Sat
:total_bill: 18.24" stroke="black" fill="steelblue"></rect> <line x1="365.0" x2="395.0" y1="236.44742354419776" y2="236.44742354419776" stroke="black" stroke-width="2"></line> <line x1="540.0" x2="540.0" y1="282.4884792626728" y2="111.05990783410138" stroke="black"></line> <rect width="30" height="44.449099287808934" x="525.0" y="205.62421449518226" stroke="black" fill="steelblue"><title>:day: Sun
:total_bill: 19.63</title> width="30" height="44.449099287808934" x="525.0" y="205.62421449518226" drake-tooltip=":day: Sun
:total_bill: 19.63" stroke="black" fill="steelblue"></rect> <line x1="525.0" x2="555.0" y1="230.62421449518226" y2="230.62421449518226" stroke="black" stroke-width="2"></line> <text font-weight="bold" fill="#000000" font-size="16px" text-anchor="middle" y="30" x="300"> Bill Amount by Day of Week</text></svg>