<svg width="600" height="400" version="1.1" xmlns="http://www.w3.org/2000/svg" xmlns:xlink="http://www.w3.org/1999/xlink"> <rect width="600" height="400" x="0" y="0" fill="#ffffff"></rect> <line x1="60" x2="540" y1="340.0" y2="340.0" stroke-dasharray="none" stroke="#eeeeee" stroke-width="1"></line> <line x1="55" x2="60" y1="340.0" y2="340.0" stroke="#000000" stroke-width="1"></line> <text fill="#000000" font-size="10px" text-anchor="end" y="344.0" x="50"> 2.2</text> <line x1="60" x2="540" y1="284.0" y2="284.0" stroke-dasharray="none" stroke="#eeeeee" stroke-width="1"></line> <line x1="55" x2="60" y1="284.0" y2="284.0" stroke="#000000" stroke-width="1"></line> <text fill="#000000" font-size="10px" text-anchor="end" y="288.0" x="50"> 2.4</text> <line x1="60" x2="540" y1="228.0" y2="228.0" stroke-dasharray="none" stroke="#eeeeee" stroke-width="1"></line> <line x1="55" x2="60" y1="228.0" y2="228.0" stroke="#000000" stroke-width="1"></line> <text fill="#000000" font-size="10px" text-anchor="end" y="232.0" x="50"> 2.6</text> <line x1="60" x2="540" y1="172.0" y2="172.0" stroke-dasharray="none" stroke="#eeeeee" stroke-width="1"></line> <line x1="55" x2="60" y1="172.0" y2="172.0" stroke="#000000" stroke-width="1"></line> <text fill="#000000" font-size="10px" text-anchor="end" y="176.0" x="50"> 2.8</text> <line x1="60" x2="540" y1="116.0" y2="116.0" stroke-dasharray="none" stroke="#eeeeee" stroke-width="1"></line> <line x1="55" x2="60" y1="116.0" y2="116.0" stroke="#000000" stroke-width="1"></line> <text fill="#000000" font-size="10px" text-anchor="end" y="120.0" x="50"> 3.0</text> <line x1="60" x2="540" y1="60.0" y2="60.0" stroke-dasharray="none" stroke="#eeeeee" stroke-width="1"></line> <line x1="55" x2="60" y1="60.0" y2="60.0" stroke="#000000" stroke-width="1"></line> <text fill="#000000" font-size="10px" text-anchor="end" y="64.0" x="50"> 3.2</text> <line x1="60.0" x2="60.0" y1="60" y2="340" stroke-dasharray="none" stroke="#eeeeee" stroke-width="1"></line> <text fill="#000000" font-size="10px" text-anchor="middle" y="360" x="60.0"> Sun</text> <line x1="220.0" x2="220.0" y1="60" y2="340" stroke-dasharray="none" stroke="#eeeeee" stroke-width="1"></line> <text fill="#000000" font-size="10px" text-anchor="middle" y="360" x="220.0"> Sat</text> <line x1="380.0" x2="380.0" y1="60" y2="340" stroke-dasharray="none" stroke="#eeeeee" stroke-width="1"></line> <text fill="#000000" font-size="10px" text-anchor="middle" y="360" x="380.0"> Thur</text> <line x1="540.0" x2="540.0" y1="60" y2="340" stroke-dasharray="none" stroke="#eeeeee" stroke-width="1"></line> <text fill="#000000" font-size="10px" text-anchor="middle" y="360" x="540.0"> Fri</text> <line x1="60" x2="60" y1="60" y2="340" stroke="#000000" stroke-width="1"></line> <line x1="60" x2="540" y1="340" y2="340" stroke="#000000" stroke-width="1"></line> <text fill="#000000" font-size="12px" text-anchor="middle" y="380" x="300"> :day</text> <text transform="rotate(-90 10 200)" fill="#000000" font-size="12px" text-anchor="middle" y="200" x="10"> :tip</text> <polyline points="59.83013687808309 (980.6400000000001), 59.66013810251504 (937.5984000000001), 59.36059995454593 (894.5568000000001), 58.86416977597688 (851.5152), 58.08763376668742 (808.4736), 56.938975898053876 (765.432), 55.33264516547914 (722.3904), 53.21471819011284 (679.3488000000001), 50.59546018307417 (636.3072000000001), 47.57941491532233 (593.2656000000001), 44.37610512654144 (550.2240000000002), 41.27432665168931 (507.1824000000001), 38.57517144349484 (464.14080000000007), 36.501014377712806 (421.0992000000001), 35.11763519984301 (378.05760000000015), 34.3090876253242 (335.0160000000001), 33.82372648809816 (291.97440000000006), 33.3754331049321 (248.93280000000013), 32.757388666665626 (205.89120000000005), 31.922144042114528 (162.8496000000001), 31.00019678399536 (119.80800000000013), 30.255873687581524 (76.76640000000003), 30.0 (33.72480000000007), 30.488405748621684 (-9.316799999999887), 31.835957926562504 (-52.35839999999996), 33.97059137138855 (-95.39999999999992), 36.64156160129839 (-138.44159999999988), 39.48144290111307 (-181.4831999999999), 42.10519144175376 (-224.5247999999998), 44.21675354521352 (-267.56640000000004), 45.68883760130749 (-310.60799999999995), 46.58765785585565 (-353.64959999999996), 47.132297554010925 (-396.69119999999987), 47.6036371840882 (-439.7327999999999), 48.23996014230581 (-482.7743999999998), 49.16236698227452 (-525.8159999999998), 50.35718216996625 (-568.8575999999999), 51.71297570729868 (-611.8992), 53.084778165221685 (-654.9407999999999), 54.35179736588594 (-697.9823999999999), 55.44738651310177 (-741.0239999999999), 56.359134363290096 (-784.0655999999997), 57.11019174051721 (-827.1071999999999), 57.7359584788408 (-870.1487999999999), 58.26631576557524 (-913.1904), 58.7177248431362 (-956.232), 59.09454437817606 (-999.2735999999998), 59.395713000590405 (-1042.3151999999998), 59.621915937646435 (-1085.3568), 59.779601263573554 (-1128.3984), 59.880847060587485 (-1171.4399999999998), 60.119152939412515 (-1171.4399999999998), 60.220398736426446 (-1128.3984), 60.378084062353565 (-1085.3568), 60.604286999409595 (-1042.3151999999998), 60.90545562182394 (-999.2735999999998), 61.2822751568638 (-956.232), 61.73368423442476 (-913.1904), 62.2640415211592 (-870.1487999999999), 62.88980825948279 (-827.1071999999999), 63.640865636709904 (-784.0655999999997), 64.55261348689824 (-741.0239999999999), 65.64820263411406 (-697.9823999999999), 66.91522183477832 (-654.9407999999999), 68.28702429270132 (-611.8992), 69.64281783003375 (-568.8575999999999), 70.83763301772548 (-525.8159999999998), 71.76003985769418 (-482.7743999999998), 72.3963628159118 (-439.7327999999999), 72.86770244598908 (-396.69119999999987), 73.41234214414435 (-353.64959999999996), 74.31116239869252 (-310.60799999999995), 75.78324645478648 (-267.56640000000004), 77.89480855824624 (-224.5247999999998), 80.51855709888693 (-181.4831999999999), 83.35843839870161 (-138.44159999999988), 86.02940862861145 (-95.39999999999992), 88.1640420734375 (-52.35839999999996), 89.51159425137831 (-9.316799999999887), 90.0 (33.72480000000007), 89.74412631241847 (76.76640000000003), 88.99980321600464 (119.80800000000013), 88.07785595788548 (162.8496000000001), 87.24261133333437 (205.89120000000005), 86.6245668950679 (248.93280000000013), 86.17627351190184 (291.97440000000006), 85.6909123746758 (335.0160000000001), 84.88236480015699 (378.05760000000015), 83.4989856222872 (421.0992000000001), 81.42482855650516 (464.14080000000007), 78.72567334831069 (507.1824000000001), 75.62389487345855 (550.2240000000002), 72.42058508467767 (593.2656000000001), 69.40453981692583 (636.3072000000001), 66.78528180988715 (679.3488000000001), 64.66735483452086 (722.3904), 63.061024101946124 (765.432), 61.91236623331258 (808.4736), 61.13583022402312 (851.5152), 60.63940004545407 (894.5568000000001), 60.33986189748496 (937.5984000000001), 60.16986312191691 (980.6400000000001)" stroke="#4c72b0" fill-opacity="0.4" fill="#4c72b0" stroke-width="1"><title>:day: Sun
:tip: 3.1500000000000004
:time: Dinner</title> points="59.83013687808309 (980.6400000000001), 59.66013810251504 (937.5984000000001), 59.36059995454593 (894.5568000000001), 58.86416977597688 (851.5152), 58.08763376668742 (808.4736), 56.938975898053876 (765.432), 55.33264516547914 (722.3904), 53.21471819011284 (679.3488000000001), 50.59546018307417 (636.3072000000001), 47.57941491532233 (593.2656000000001), 44.37610512654144 (550.2240000000002), 41.27432665168931 (507.1824000000001), 38.57517144349484 (464.14080000000007), 36.501014377712806 (421.0992000000001), 35.11763519984301 (378.05760000000015), 34.3090876253242 (335.0160000000001), 33.82372648809816 (291.97440000000006), 33.3754331049321 (248.93280000000013), 32.757388666665626 (205.89120000000005), 31.922144042114528 (162.8496000000001), 31.00019678399536 (119.80800000000013), 30.255873687581524 (76.76640000000003), 30.0 (33.72480000000007), 30.488405748621684 (-9.316799999999887), 31.835957926562504 (-52.35839999999996), 33.97059137138855 (-95.39999999999992), 36.64156160129839 (-138.44159999999988), 39.48144290111307 (-181.4831999999999), 42.10519144175376 (-224.5247999999998), 44.21675354521352 (-267.56640000000004), 45.68883760130749 (-310.60799999999995), 46.58765785585565 (-353.64959999999996), 47.132297554010925 (-396.69119999999987), 47.6036371840882 (-439.7327999999999), 48.23996014230581 (-482.7743999999998), 49.16236698227452 (-525.8159999999998), 50.35718216996625 (-568.8575999999999), 51.71297570729868 (-611.8992), 53.084778165221685 (-654.9407999999999), 54.35179736588594 (-697.9823999999999), 55.44738651310177 (-741.0239999999999), 56.359134363290096 (-784.0655999999997), 57.11019174051721 (-827.1071999999999), 57.7359584788408 (-870.1487999999999), 58.26631576557524 (-913.1904), 58.7177248431362 (-956.232), 59.09454437817606 (-999.2735999999998), 59.395713000590405 (-1042.3151999999998), 59.621915937646435 (-1085.3568), 59.779601263573554 (-1128.3984), 59.880847060587485 (-1171.4399999999998), 60.119152939412515 (-1171.4399999999998), 60.220398736426446 (-1128.3984), 60.378084062353565 (-1085.3568), 60.604286999409595 (-1042.3151999999998), 60.90545562182394 (-999.2735999999998), 61.2822751568638 (-956.232), 61.73368423442476 (-913.1904), 62.2640415211592 (-870.1487999999999), 62.88980825948279 (-827.1071999999999), 63.640865636709904 (-784.0655999999997), 64.55261348689824 (-741.0239999999999), 65.64820263411406 (-697.9823999999999), 66.91522183477832 (-654.9407999999999), 68.28702429270132 (-611.8992), 69.64281783003375 (-568.8575999999999), 70.83763301772548 (-525.8159999999998), 71.76003985769418 (-482.7743999999998), 72.3963628159118 (-439.7327999999999), 72.86770244598908 (-396.69119999999987), 73.41234214414435 (-353.64959999999996), 74.31116239869252 (-310.60799999999995), 75.78324645478648 (-267.56640000000004), 77.89480855824624 (-224.5247999999998), 80.51855709888693 (-181.4831999999999), 83.35843839870161 (-138.44159999999988), 86.02940862861145 (-95.39999999999992), 88.1640420734375 (-52.35839999999996), 89.51159425137831 (-9.316799999999887), 90.0 (33.72480000000007), 89.74412631241847 (76.76640000000003), 88.99980321600464 (119.80800000000013), 88.07785595788548 (162.8496000000001), 87.24261133333437 (205.89120000000005), 86.6245668950679 (248.93280000000013), 86.17627351190184 (291.97440000000006), 85.6909123746758 (335.0160000000001), 84.88236480015699 (378.05760000000015), 83.4989856222872 (421.0992000000001), 81.42482855650516 (464.14080000000007), 78.72567334831069 (507.1824000000001), 75.62389487345855 (550.2240000000002), 72.42058508467767 (593.2656000000001), 69.40453981692583 (636.3072000000001), 66.78528180988715 (679.3488000000001), 64.66735483452086 (722.3904), 63.061024101946124 (765.432), 61.91236623331258 (808.4736), 61.13583022402312 (851.5152), 60.63940004545407 (894.5568000000001), 60.33986189748496 (937.5984000000001), 60.16986312191691 (980.6400000000001)" drake-tooltip=":day: Sun
:tip: 3.1500000000000004
:time: Dinner" stroke="#4c72b0" fill-opacity="0.4" fill="#4c72b0" stroke-width="1"></polyline> <polyline points="219.9003023280597 (1180.0), 219.72012192785914 (1109.44), 219.3065338677739 (1038.88), 218.47612967539683 (968.32), 217.01194359117866 (897.7600000000001), 214.73284268640577 (827.2), 211.58174564401392 (756.6400000000001), 207.68911688905206 (686.08), 203.37771769942515 (615.52), 199.10274985160518 (544.9600000000002), 195.34199923583816 (474.4000000000001), 192.46938322678292 (403.84), 190.67603682220502 (333.28), 190.0 (262.72), 190.43552071791586 (192.1600000000001), 191.99198250347192 (121.59999999999994), 194.61490416283732 (51.039999999999964), 198.05494594131883 (-19.519999999999925), 201.8569825590087 (-90.07999999999987), 205.51659921595711 (-160.6400000000001), 208.67447558917863 (-231.20000000000005), 211.2006240561088 (-301.76), 213.1443723364917 (-372.32000000000016), 214.62668817688706 (-442.8800000000001), 215.75363050001206 (-513.44), 216.5848710588749 (-584.0), 217.1524412825825 (-654.56), 217.49940037062066 (-725.1200000000001), 217.70037808443507 (-795.6800000000001), 217.8459518117611 (-866.24), 218.0070727182288 (-936.8000000000002), 218.21176719232116 (-1007.3600000000001), 218.4497948248039 (-1077.92), 218.69274107603775 (-1148.4800000000002), 218.90881756311606 (-1219.04), 219.0682140872161 (-1289.6), 219.14976983531304 (-1360.1599999999996), 219.1526540902344 (-1430.7199999999998), 219.10141856151418 (-1501.28), 219.03491410822377 (-1571.8399999999997), 218.98779787976014 (-1642.3999999999999), 218.981490881708 (-1712.96), 219.02764895869566 (-1783.5199999999995), 219.13153474753133 (-1854.08), 219.28705690161908 (-1924.6400000000003), 219.47145018714525 (-1995.1999999999998), 219.65114558363953 (-2065.7599999999998), 219.79706908651914 (-2136.3199999999993), 219.8966375133614 (-2206.88), 219.9540854539076 (-2277.4399999999996), 219.98225491249744 (-2347.9999999999995), 220.01774508750256 (-2347.9999999999995), 220.0459145460924 (-2277.4399999999996), 220.1033624866386 (-2206.88), 220.20293091348086 (-2136.3199999999993), 220.34885441636047 (-2065.7599999999998), 220.52854981285475 (-1995.1999999999998), 220.71294309838092 (-1924.6400000000003), 220.86846525246867 (-1854.08), 220.97235104130434 (-1783.5199999999995), 221.018509118292 (-1712.96), 221.01220212023986 (-1642.3999999999999), 220.96508589177623 (-1571.8399999999997), 220.89858143848582 (-1501.28), 220.8473459097656 (-1430.7199999999998), 220.85023016468696 (-1360.1599999999996), 220.9317859127839 (-1289.6), 221.09118243688394 (-1219.04), 221.30725892396225 (-1148.4800000000002), 221.5502051751961 (-1077.92), 221.78823280767884 (-1007.3600000000001), 221.9929272817712 (-936.8000000000002), 222.1540481882389 (-866.24), 222.29962191556493 (-795.6800000000001), 222.50059962937934 (-725.1200000000001), 222.8475587174175 (-654.56), 223.4151289411251 (-584.0), 224.24636949998794 (-513.44), 225.37331182311294 (-442.8800000000001), 226.8556276635083 (-372.32000000000016), 228.7993759438912 (-301.76), 231.32552441082137 (-231.20000000000005), 234.48340078404289 (-160.6400000000001), 238.1430174409913 (-90.07999999999987), 241.94505405868117 (-19.519999999999925), 245.38509583716268 (51.039999999999964), 248.00801749652808 (121.59999999999994), 249.56447928208414 (192.1600000000001), 250.0 (262.72), 249.32396317779498 (333.28), 247.53061677321708 (403.84), 244.65800076416184 (474.4000000000001), 240.89725014839482 (544.9600000000002), 236.62228230057485 (615.52), 232.31088311094794 (686.08), 228.41825435598608 (756.6400000000001), 225.26715731359423 (827.2), 222.98805640882134 (897.7600000000001), 221.52387032460317 (968.32), 220.6934661322261 (1038.88), 220.27987807214086 (1109.44), 220.0996976719403 (1180.0)" stroke="#4c72b0" fill-opacity="0.4" fill="#4c72b0" stroke-width="1"><title>:day: Sat
:tip: 2.75
:time: Dinner</title> points="219.9003023280597 (1180.0), 219.72012192785914 (1109.44), 219.3065338677739 (1038.88), 218.47612967539683 (968.32), 217.01194359117866 (897.7600000000001), 214.73284268640577 (827.2), 211.58174564401392 (756.6400000000001), 207.68911688905206 (686.08), 203.37771769942515 (615.52), 199.10274985160518 (544.9600000000002), 195.34199923583816 (474.4000000000001), 192.46938322678292 (403.84), 190.67603682220502 (333.28), 190.0 (262.72), 190.43552071791586 (192.1600000000001), 191.99198250347192 (121.59999999999994), 194.61490416283732 (51.039999999999964), 198.05494594131883 (-19.519999999999925), 201.8569825590087 (-90.07999999999987), 205.51659921595711 (-160.6400000000001), 208.67447558917863 (-231.20000000000005), 211.2006240561088 (-301.76), 213.1443723364917 (-372.32000000000016), 214.62668817688706 (-442.8800000000001), 215.75363050001206 (-513.44), 216.5848710588749 (-584.0), 217.1524412825825 (-654.56), 217.49940037062066 (-725.1200000000001), 217.70037808443507 (-795.6800000000001), 217.8459518117611 (-866.24), 218.0070727182288 (-936.8000000000002), 218.21176719232116 (-1007.3600000000001), 218.4497948248039 (-1077.92), 218.69274107603775 (-1148.4800000000002), 218.90881756311606 (-1219.04), 219.0682140872161 (-1289.6), 219.14976983531304 (-1360.1599999999996), 219.1526540902344 (-1430.7199999999998), 219.10141856151418 (-1501.28), 219.03491410822377 (-1571.8399999999997), 218.98779787976014 (-1642.3999999999999), 218.981490881708 (-1712.96), 219.02764895869566 (-1783.5199999999995), 219.13153474753133 (-1854.08), 219.28705690161908 (-1924.6400000000003), 219.47145018714525 (-1995.1999999999998), 219.65114558363953 (-2065.7599999999998), 219.79706908651914 (-2136.3199999999993), 219.8966375133614 (-2206.88), 219.9540854539076 (-2277.4399999999996), 219.98225491249744 (-2347.9999999999995), 220.01774508750256 (-2347.9999999999995), 220.0459145460924 (-2277.4399999999996), 220.1033624866386 (-2206.88), 220.20293091348086 (-2136.3199999999993), 220.34885441636047 (-2065.7599999999998), 220.52854981285475 (-1995.1999999999998), 220.71294309838092 (-1924.6400000000003), 220.86846525246867 (-1854.08), 220.97235104130434 (-1783.5199999999995), 221.018509118292 (-1712.96), 221.01220212023986 (-1642.3999999999999), 220.96508589177623 (-1571.8399999999997), 220.89858143848582 (-1501.28), 220.8473459097656 (-1430.7199999999998), 220.85023016468696 (-1360.1599999999996), 220.9317859127839 (-1289.6), 221.09118243688394 (-1219.04), 221.30725892396225 (-1148.4800000000002), 221.5502051751961 (-1077.92), 221.78823280767884 (-1007.3600000000001), 221.9929272817712 (-936.8000000000002), 222.1540481882389 (-866.24), 222.29962191556493 (-795.6800000000001), 222.50059962937934 (-725.1200000000001), 222.8475587174175 (-654.56), 223.4151289411251 (-584.0), 224.24636949998794 (-513.44), 225.37331182311294 (-442.8800000000001), 226.8556276635083 (-372.32000000000016), 228.7993759438912 (-301.76), 231.32552441082137 (-231.20000000000005), 234.48340078404289 (-160.6400000000001), 238.1430174409913 (-90.07999999999987), 241.94505405868117 (-19.519999999999925), 245.38509583716268 (51.039999999999964), 248.00801749652808 (121.59999999999994), 249.56447928208414 (192.1600000000001), 250.0 (262.72), 249.32396317779498 (333.28), 247.53061677321708 (403.84), 244.65800076416184 (474.4000000000001), 240.89725014839482 (544.9600000000002), 236.62228230057485 (615.52), 232.31088311094794 (686.08), 228.41825435598608 (756.6400000000001), 225.26715731359423 (827.2), 222.98805640882134 (897.7600000000001), 221.52387032460317 (968.32), 220.6934661322261 (1038.88), 220.27987807214086 (1109.44), 220.0996976719403 (1180.0)" drake-tooltip=":day: Sat
:tip: 2.75
:time: Dinner" stroke="#4c72b0" fill-opacity="0.4" fill="#4c72b0" stroke-width="1"></polyline> <polyline points="379.3499353759375 (911.2), 378.7646678198513 (868.4720000000001), 377.7987308784605 (825.7440000000001), 376.31580962041744 (783.0160000000001), 374.1984164274308 (740.288), 371.389000535377 (697.5600000000002), 367.93264517186157 (654.8320000000001), 364.0069022519093 (612.104), 359.92354232965295 (569.3760000000001), 356.09207383306045 (526.6480000000001), 352.9459889593829 (483.92000000000013), 350.8475560787598 (441.1920000000001), 350.0 (398.4640000000001), 350.39923255156395 (355.7360000000001), 351.8454227934299 (313.00800000000027), 354.0103767783605 (270.2800000000001), 356.5321571043249 (227.5520000000002), 359.0983691461458 (184.82400000000007), 361.4904362623417 (142.09600000000017), 363.585402769068 (99.36800000000028), 365.33311443244787 (56.6400000000001), 366.7321636805011 (13.912000000000205), 367.8171585976262 (-28.815999999999917), 368.653577932466 (-71.54399999999981), 369.32807001202906 (-114.27199999999993), 369.92732938131013 (-156.99999999999983), 370.51200035710866 (-199.72799999999972), 371.101206135634 (-242.4559999999999), 371.6794729591643 (-285.18399999999974), 372.2230215162329 (-327.9119999999999), 372.7281643569653 (-370.6399999999999), 373.22251801862086 (-413.36799999999994), 373.75187801532024 (-456.0959999999999), 374.35255707461585 (-498.8239999999997), 375.028004844037 (-541.5519999999999), 375.7438737057705 (-584.2799999999997), 376.4424563969882 (-627.0079999999999), 377.0660984551048 (-669.7359999999999), 377.5767722589319 (-712.4639999999997), 377.9645276072387 (-755.1919999999998), 378.2449381204457 (-797.9199999999998), 378.4498516309109 (-840.6479999999999), 378.61600368340754 (-883.3759999999997), 378.77467012453064 (-926.1039999999998), 378.944504149775 (-968.8319999999999), 379.12906365682255 (-1011.5599999999997), 379.31938700361627 (-1054.2879999999998), 379.5001958707293 (-1097.0159999999998), 379.6568980672828 (-1139.744), 379.78057397764354 (-1182.4719999999998), 379.86955405932184 (-1225.1999999999998), 380.13044594067816 (-1225.1999999999998), 380.21942602235646 (-1182.4719999999998), 380.3431019327172 (-1139.744), 380.4998041292707 (-1097.0159999999998), 380.68061299638373 (-1054.2879999999998), 380.87093634317745 (-1011.5599999999997), 381.055495850225 (-968.8319999999999), 381.22532987546936 (-926.1039999999998), 381.38399631659246 (-883.3759999999997), 381.5501483690891 (-840.6479999999999), 381.7550618795543 (-797.9199999999998), 382.0354723927613 (-755.1919999999998), 382.4232277410681 (-712.4639999999997), 382.9339015448952 (-669.7359999999999), 383.5575436030118 (-627.0079999999999), 384.2561262942295 (-584.2799999999997), 384.971995155963 (-541.5519999999999), 385.64744292538415 (-498.8239999999997), 386.24812198467976 (-456.0959999999999), 386.77748198137914 (-413.36799999999994), 387.2718356430347 (-370.6399999999999), 387.7769784837671 (-327.9119999999999), 388.3205270408357 (-285.18399999999974), 388.898793864366 (-242.4559999999999), 389.48799964289134 (-199.72799999999972), 390.07267061868987 (-156.99999999999983), 390.67192998797094 (-114.27199999999993), 391.346422067534 (-71.54399999999981), 392.1828414023738 (-28.815999999999917), 393.2678363194989 (13.912000000000205), 394.66688556755213 (56.6400000000001), 396.414597230932 (99.36800000000028), 398.5095637376583 (142.09600000000017), 400.9016308538542 (184.82400000000007), 403.4678428956751 (227.5520000000002), 405.9896232216395 (270.2800000000001), 408.1545772065701 (313.00800000000027), 409.60076744843605 (355.7360000000001), 410.0 (398.4640000000001), 409.1524439212402 (441.1920000000001), 407.0540110406171 (483.92000000000013), 403.90792616693955 (526.6480000000001), 400.07645767034705 (569.3760000000001), 395.9930977480907 (612.104), 392.06735482813843 (654.8320000000001), 388.610999464623 (697.5600000000002), 385.8015835725692 (740.288), 383.68419037958256 (783.0160000000001), 382.2012691215395 (825.7440000000001), 381.2353321801487 (868.4720000000001), 380.6500646240625 (911.2)" stroke="#55a868" fill-opacity="0.4" fill="#55a868" stroke-width="1"><title>:day: Thur
:tip: 2.3
:time: Lunch</title> points="379.3499353759375 (911.2), 378.7646678198513 (868.4720000000001), 377.7987308784605 (825.7440000000001), 376.31580962041744 (783.0160000000001), 374.1984164274308 (740.288), 371.389000535377 (697.5600000000002), 367.93264517186157 (654.8320000000001), 364.0069022519093 (612.104), 359.92354232965295 (569.3760000000001), 356.09207383306045 (526.6480000000001), 352.9459889593829 (483.92000000000013), 350.8475560787598 (441.1920000000001), 350.0 (398.4640000000001), 350.39923255156395 (355.7360000000001), 351.8454227934299 (313.00800000000027), 354.0103767783605 (270.2800000000001), 356.5321571043249 (227.5520000000002), 359.0983691461458 (184.82400000000007), 361.4904362623417 (142.09600000000017), 363.585402769068 (99.36800000000028), 365.33311443244787 (56.6400000000001), 366.7321636805011 (13.912000000000205), 367.8171585976262 (-28.815999999999917), 368.653577932466 (-71.54399999999981), 369.32807001202906 (-114.27199999999993), 369.92732938131013 (-156.99999999999983), 370.51200035710866 (-199.72799999999972), 371.101206135634 (-242.4559999999999), 371.6794729591643 (-285.18399999999974), 372.2230215162329 (-327.9119999999999), 372.7281643569653 (-370.6399999999999), 373.22251801862086 (-413.36799999999994), 373.75187801532024 (-456.0959999999999), 374.35255707461585 (-498.8239999999997), 375.028004844037 (-541.5519999999999), 375.7438737057705 (-584.2799999999997), 376.4424563969882 (-627.0079999999999), 377.0660984551048 (-669.7359999999999), 377.5767722589319 (-712.4639999999997), 377.9645276072387 (-755.1919999999998), 378.2449381204457 (-797.9199999999998), 378.4498516309109 (-840.6479999999999), 378.61600368340754 (-883.3759999999997), 378.77467012453064 (-926.1039999999998), 378.944504149775 (-968.8319999999999), 379.12906365682255 (-1011.5599999999997), 379.31938700361627 (-1054.2879999999998), 379.5001958707293 (-1097.0159999999998), 379.6568980672828 (-1139.744), 379.78057397764354 (-1182.4719999999998), 379.86955405932184 (-1225.1999999999998), 380.13044594067816 (-1225.1999999999998), 380.21942602235646 (-1182.4719999999998), 380.3431019327172 (-1139.744), 380.4998041292707 (-1097.0159999999998), 380.68061299638373 (-1054.2879999999998), 380.87093634317745 (-1011.5599999999997), 381.055495850225 (-968.8319999999999), 381.22532987546936 (-926.1039999999998), 381.38399631659246 (-883.3759999999997), 381.5501483690891 (-840.6479999999999), 381.7550618795543 (-797.9199999999998), 382.0354723927613 (-755.1919999999998), 382.4232277410681 (-712.4639999999997), 382.9339015448952 (-669.7359999999999), 383.5575436030118 (-627.0079999999999), 384.2561262942295 (-584.2799999999997), 384.971995155963 (-541.5519999999999), 385.64744292538415 (-498.8239999999997), 386.24812198467976 (-456.0959999999999), 386.77748198137914 (-413.36799999999994), 387.2718356430347 (-370.6399999999999), 387.7769784837671 (-327.9119999999999), 388.3205270408357 (-285.18399999999974), 388.898793864366 (-242.4559999999999), 389.48799964289134 (-199.72799999999972), 390.07267061868987 (-156.99999999999983), 390.67192998797094 (-114.27199999999993), 391.346422067534 (-71.54399999999981), 392.1828414023738 (-28.815999999999917), 393.2678363194989 (13.912000000000205), 394.66688556755213 (56.6400000000001), 396.414597230932 (99.36800000000028), 398.5095637376583 (142.09600000000017), 400.9016308538542 (184.82400000000007), 403.4678428956751 (227.5520000000002), 405.9896232216395 (270.2800000000001), 408.1545772065701 (313.00800000000027), 409.60076744843605 (355.7360000000001), 410.0 (398.4640000000001), 409.1524439212402 (441.1920000000001), 407.0540110406171 (483.92000000000013), 403.90792616693955 (526.6480000000001), 400.07645767034705 (569.3760000000001), 395.9930977480907 (612.104), 392.06735482813843 (654.8320000000001), 388.610999464623 (697.5600000000002), 385.8015835725692 (740.288), 383.68419037958256 (783.0160000000001), 382.2012691215395 (825.7440000000001), 381.2353321801487 (868.4720000000001), 380.6500646240625 (911.2)" drake-tooltip=":day: Thur
:tip: 2.3
:time: Lunch" stroke="#55a868" fill-opacity="0.4" fill="#55a868" stroke-width="1"></polyline> <polyline points="535.3602867695611 (884.88), 534.3608747176944 (855.6368000000001), 533.2711508644996 (826.3936000000001), 532.1147272428124 (797.1504), 530.9215254183564 (767.9072000000001), 529.7257513207935 (738.664), 528.5629952397809 (709.4208000000001), 527.4666870469861 (680.1776), 526.4642799259412 (650.9344), 525.5736456654804 (621.6912), 524.8002151268574 (592.4479999999999), 524.1353694959976 (563.2048), 523.5564735080671 (533.9616), 523.0287479829749 (504.7183999999999), 522.508928387272 (475.4752), 521.9503846425376 (446.23199999999997), 521.3091287876592 (416.9887999999999), 520.5499554603147 (387.74559999999997), 519.6518816970168 (358.50239999999985), 518.6120983114637 (329.2591999999999), 517.4478161401671 (300.0159999999998), 516.1956663575221 (270.77279999999985), 514.9086554300708 (241.52959999999987), 513.6510295144956 (212.2863999999998), 512.4917129666538 (183.04319999999984), 511.49719901615623 (153.79999999999987), 510.7248500492027 (124.55679999999978), 510.21749477373334 (95.31359999999981), 510.0 (66.07039999999984), 510.0781808934524 (36.82719999999978), 510.4400494405311 (7.583999999999833), 511.05904977747014 (-21.659200000000283), 511.89865127251414 (-50.90240000000023), 512.9175113558681 (-80.14560000000023), 514.0744020080746 (-109.38880000000029), 515.3322111716797 (-138.63200000000023), 516.6605526374361 (-167.87520000000023), 518.0367970360626 (-197.1184000000003), 519.4456175253508 (-226.36160000000018), 520.8773764290804 (-255.60480000000018), 522.3258275275474 (-284.8480000000003), 523.7856567507206 (-314.0912000000002), 525.250336047497 (-343.3344000000002), 526.7106425618053 (-372.5776000000003), 528.1540298536157 (-401.8208000000002), 529.5648646819266 (-431.0640000000003), 530.9253928371143 (-460.3072000000003), 532.2171927792882 (-489.5504000000002), 533.422827107482 (-518.7936000000003), 534.5274084545647 (-548.0368000000003), 535.5198482221892 (-577.2800000000002), 544.4801517778108 (-577.2800000000002), 545.4725915454353 (-548.0368000000003), 546.577172892518 (-518.7936000000003), 547.7828072207118 (-489.5504000000002), 549.0746071628857 (-460.3072000000003), 550.4351353180734 (-431.0640000000003), 551.8459701463843 (-401.8208000000002), 553.2893574381947 (-372.5776000000003), 554.749663952503 (-343.3344000000002), 556.2143432492794 (-314.0912000000002), 557.6741724724526 (-284.8480000000003), 559.1226235709196 (-255.60480000000018), 560.5543824746492 (-226.36160000000018), 561.9632029639374 (-197.1184000000003), 563.3394473625639 (-167.87520000000023), 564.6677888283203 (-138.63200000000023), 565.9255979919254 (-109.38880000000029), 567.0824886441319 (-80.14560000000023), 568.1013487274859 (-50.90240000000023), 568.9409502225299 (-21.659200000000283), 569.5599505594689 (7.583999999999833), 569.9218191065477 (36.82719999999978), 570.0 (66.07039999999984), 569.7825052262666 (95.31359999999981), 569.2751499507973 (124.55679999999978), 568.5028009838438 (153.79999999999987), 567.5082870333462 (183.04319999999984), 566.3489704855044 (212.2863999999998), 565.0913445699292 (241.52959999999987), 563.8043336424779 (270.77279999999985), 562.5521838598329 (300.0159999999998), 561.3879016885363 (329.2591999999999), 560.3481183029832 (358.50239999999985), 559.4500445396853 (387.74559999999997), 558.6908712123408 (416.9887999999999), 558.0496153574624 (446.23199999999997), 557.491071612728 (475.4752), 556.9712520170251 (504.7183999999999), 556.4435264919329 (533.9616), 555.8646305040024 (563.2048), 555.1997848731426 (592.4479999999999), 554.4263543345196 (621.6912), 553.5357200740588 (650.9344), 552.5333129530139 (680.1776), 551.4370047602191 (709.4208000000001), 550.2742486792065 (738.664), 549.0784745816436 (767.9072000000001), 547.8852727571876 (797.1504), 546.7288491355004 (826.3936000000001), 545.6391252823056 (855.6368000000001), 544.6397132304389 (884.88)" stroke="#4c72b0" fill-opacity="0.4" fill="#4c72b0" stroke-width="1"><title>:day: Fri
:tip: 3.0
:time: Dinner</title> points="535.3602867695611 (884.88), 534.3608747176944 (855.6368000000001), 533.2711508644996 (826.3936000000001), 532.1147272428124 (797.1504), 530.9215254183564 (767.9072000000001), 529.7257513207935 (738.664), 528.5629952397809 (709.4208000000001), 527.4666870469861 (680.1776), 526.4642799259412 (650.9344), 525.5736456654804 (621.6912), 524.8002151268574 (592.4479999999999), 524.1353694959976 (563.2048), 523.5564735080671 (533.9616), 523.0287479829749 (504.7183999999999), 522.508928387272 (475.4752), 521.9503846425376 (446.23199999999997), 521.3091287876592 (416.9887999999999), 520.5499554603147 (387.74559999999997), 519.6518816970168 (358.50239999999985), 518.6120983114637 (329.2591999999999), 517.4478161401671 (300.0159999999998), 516.1956663575221 (270.77279999999985), 514.9086554300708 (241.52959999999987), 513.6510295144956 (212.2863999999998), 512.4917129666538 (183.04319999999984), 511.49719901615623 (153.79999999999987), 510.7248500492027 (124.55679999999978), 510.21749477373334 (95.31359999999981), 510.0 (66.07039999999984), 510.0781808934524 (36.82719999999978), 510.4400494405311 (7.583999999999833), 511.05904977747014 (-21.659200000000283), 511.89865127251414 (-50.90240000000023), 512.9175113558681 (-80.14560000000023), 514.0744020080746 (-109.38880000000029), 515.3322111716797 (-138.63200000000023), 516.6605526374361 (-167.87520000000023), 518.0367970360626 (-197.1184000000003), 519.4456175253508 (-226.36160000000018), 520.8773764290804 (-255.60480000000018), 522.3258275275474 (-284.8480000000003), 523.7856567507206 (-314.0912000000002), 525.250336047497 (-343.3344000000002), 526.7106425618053 (-372.5776000000003), 528.1540298536157 (-401.8208000000002), 529.5648646819266 (-431.0640000000003), 530.9253928371143 (-460.3072000000003), 532.2171927792882 (-489.5504000000002), 533.422827107482 (-518.7936000000003), 534.5274084545647 (-548.0368000000003), 535.5198482221892 (-577.2800000000002), 544.4801517778108 (-577.2800000000002), 545.4725915454353 (-548.0368000000003), 546.577172892518 (-518.7936000000003), 547.7828072207118 (-489.5504000000002), 549.0746071628857 (-460.3072000000003), 550.4351353180734 (-431.0640000000003), 551.8459701463843 (-401.8208000000002), 553.2893574381947 (-372.5776000000003), 554.749663952503 (-343.3344000000002), 556.2143432492794 (-314.0912000000002), 557.6741724724526 (-284.8480000000003), 559.1226235709196 (-255.60480000000018), 560.5543824746492 (-226.36160000000018), 561.9632029639374 (-197.1184000000003), 563.3394473625639 (-167.87520000000023), 564.6677888283203 (-138.63200000000023), 565.9255979919254 (-109.38880000000029), 567.0824886441319 (-80.14560000000023), 568.1013487274859 (-50.90240000000023), 568.9409502225299 (-21.659200000000283), 569.5599505594689 (7.583999999999833), 569.9218191065477 (36.82719999999978), 570.0 (66.07039999999984), 569.7825052262666 (95.31359999999981), 569.2751499507973 (124.55679999999978), 568.5028009838438 (153.79999999999987), 567.5082870333462 (183.04319999999984), 566.3489704855044 (212.2863999999998), 565.0913445699292 (241.52959999999987), 563.8043336424779 (270.77279999999985), 562.5521838598329 (300.0159999999998), 561.3879016885363 (329.2591999999999), 560.3481183029832 (358.50239999999985), 559.4500445396853 (387.74559999999997), 558.6908712123408 (416.9887999999999), 558.0496153574624 (446.23199999999997), 557.491071612728 (475.4752), 556.9712520170251 (504.7183999999999), 556.4435264919329 (533.9616), 555.8646305040024 (563.2048), 555.1997848731426 (592.4479999999999), 554.4263543345196 (621.6912), 553.5357200740588 (650.9344), 552.5333129530139 (680.1776), 551.4370047602191 (709.4208000000001), 550.2742486792065 (738.664), 549.0784745816436 (767.9072000000001), 547.8852727571876 (797.1504), 546.7288491355004 (826.3936000000001), 545.6391252823056 (855.6368000000001), 544.6397132304389 (884.88)" drake-tooltip=":day: Fri
:tip: 3.0
:time: Dinner" stroke="#4c72b0" fill-opacity="0.4" fill="#4c72b0" stroke-width="1"></polyline> <polyline points="530.8568281456379 (620.0), 529.421986149189 (605.104), 527.8868911779028 (590.208), 526.2684615447675 (575.312), 524.5879289154506 (560.4159999999999), 522.8704652667744 (545.52), 521.1445832751805 (530.624), 519.4413196002341 (515.7280000000001), 517.7932246269115 (500.832), 516.233196556028 (485.936), 514.7932113280193 (471.03999999999996), 513.5030115921782 (456.144), 512.3888265465329 (441.24800000000005), 511.47219875720356 (426.352), 510.76899301248295 (411.456), 510.28865526847414 (396.56), 510.0337767590568 (381.664), 510.0 (366.76800000000003), 510.17628101418586 (351.87199999999996), 510.54549750986155 (336.9760000000001), 511.0853681907978 (322.08), 511.76962619604296 (307.184), 512.5693719875458 (292.288), 513.4545194844695 (277.39199999999994), 514.3952448651401 (262.4960000000001), 515.363350418228 (247.59999999999997), 516.333465537673 (232.704), 517.284022156813 (217.80800000000002), 518.1979608531623 (202.91200000000006), 519.0631445265747 (188.01600000000008), 519.8724769732233 (173.11999999999998), 520.6237421122751 (158.224), 521.3191947799744 (143.32800000000003), 521.9649451502304 (128.43200000000004), 522.5701858102378 (113.53600000000006), 523.1463136566978 (98.63999999999999), 523.7059987802173 (83.74399999999997), 524.2622502268641 (68.84800000000001), 524.8275247718112 (53.952000000000055), 525.4129201955114 (39.05600000000004), 526.0274892851863 (24.159999999999968), 526.6777048418437 (9.26400000000001), 527.3670990799362 (-5.632000000000005), 528.0960926315562 (-20.527999999999963), 528.8620187191526 (-35.42399999999992), 529.6593370633402 (-50.319999999999936), 530.4800202815568 (-65.21600000000001), 531.314083851266 (-80.11199999999997), 532.1502203872211 (-95.00799999999998), 532.9764913232347 (-109.90399999999994), 533.7810252275087 (-124.7999999999999), 546.2189747724913 (-124.7999999999999), 547.0235086767653 (-109.90399999999994), 547.8497796127789 (-95.00799999999998), 548.685916148734 (-80.11199999999997), 549.5199797184432 (-65.21600000000001), 550.3406629366598 (-50.319999999999936), 551.1379812808474 (-35.42399999999992), 551.9039073684438 (-20.527999999999963), 552.6329009200638 (-5.632000000000005), 553.3222951581563 (9.26400000000001), 553.9725107148137 (24.159999999999968), 554.5870798044886 (39.05600000000004), 555.1724752281888 (53.952000000000055), 555.7377497731359 (68.84800000000001), 556.2940012197827 (83.74399999999997), 556.8536863433022 (98.63999999999999), 557.4298141897622 (113.53600000000006), 558.0350548497696 (128.43200000000004), 558.6808052200256 (143.32800000000003), 559.3762578877249 (158.224), 560.1275230267767 (173.11999999999998), 560.9368554734253 (188.01600000000008), 561.8020391468377 (202.91200000000006), 562.715977843187 (217.80800000000002), 563.666534462327 (232.704), 564.636649581772 (247.59999999999997), 565.6047551348599 (262.4960000000001), 566.5454805155305 (277.39199999999994), 567.4306280124542 (292.288), 568.230373803957 (307.184), 568.9146318092022 (322.08), 569.4545024901385 (336.9760000000001), 569.8237189858141 (351.87199999999996), 570.0 (366.76800000000003), 569.9662232409432 (381.664), 569.7113447315259 (396.56), 569.231006987517 (411.456), 568.5278012427965 (426.352), 567.6111734534671 (441.24800000000005), 566.4969884078218 (456.144), 565.2067886719807 (471.03999999999996), 563.766803443972 (485.936), 562.2067753730885 (500.832), 560.5586803997659 (515.7280000000001), 558.8554167248195 (530.624), 557.1295347332256 (545.52), 555.4120710845494 (560.4159999999999), 553.7315384552325 (575.312), 552.1131088220972 (590.208), 550.578013850811 (605.104), 549.1431718543621 (620.0)" stroke="#55a868" fill-opacity="0.4" fill="#55a868" stroke-width="1"><title>:day: Fri
:tip: 2.2
:time: Lunch</title> points="530.8568281456379 (620.0), 529.421986149189 (605.104), 527.8868911779028 (590.208), 526.2684615447675 (575.312), 524.5879289154506 (560.4159999999999), 522.8704652667744 (545.52), 521.1445832751805 (530.624), 519.4413196002341 (515.7280000000001), 517.7932246269115 (500.832), 516.233196556028 (485.936), 514.7932113280193 (471.03999999999996), 513.5030115921782 (456.144), 512.3888265465329 (441.24800000000005), 511.47219875720356 (426.352), 510.76899301248295 (411.456), 510.28865526847414 (396.56), 510.0337767590568 (381.664), 510.0 (366.76800000000003), 510.17628101418586 (351.87199999999996), 510.54549750986155 (336.9760000000001), 511.0853681907978 (322.08), 511.76962619604296 (307.184), 512.5693719875458 (292.288), 513.4545194844695 (277.39199999999994), 514.3952448651401 (262.4960000000001), 515.363350418228 (247.59999999999997), 516.333465537673 (232.704), 517.284022156813 (217.80800000000002), 518.1979608531623 (202.91200000000006), 519.0631445265747 (188.01600000000008), 519.8724769732233 (173.11999999999998), 520.6237421122751 (158.224), 521.3191947799744 (143.32800000000003), 521.9649451502304 (128.43200000000004), 522.5701858102378 (113.53600000000006), 523.1463136566978 (98.63999999999999), 523.7059987802173 (83.74399999999997), 524.2622502268641 (68.84800000000001), 524.8275247718112 (53.952000000000055), 525.4129201955114 (39.05600000000004), 526.0274892851863 (24.159999999999968), 526.6777048418437 (9.26400000000001), 527.3670990799362 (-5.632000000000005), 528.0960926315562 (-20.527999999999963), 528.8620187191526 (-35.42399999999992), 529.6593370633402 (-50.319999999999936), 530.4800202815568 (-65.21600000000001), 531.314083851266 (-80.11199999999997), 532.1502203872211 (-95.00799999999998), 532.9764913232347 (-109.90399999999994), 533.7810252275087 (-124.7999999999999), 546.2189747724913 (-124.7999999999999), 547.0235086767653 (-109.90399999999994), 547.8497796127789 (-95.00799999999998), 548.685916148734 (-80.11199999999997), 549.5199797184432 (-65.21600000000001), 550.3406629366598 (-50.319999999999936), 551.1379812808474 (-35.42399999999992), 551.9039073684438 (-20.527999999999963), 552.6329009200638 (-5.632000000000005), 553.3222951581563 (9.26400000000001), 553.9725107148137 (24.159999999999968), 554.5870798044886 (39.05600000000004), 555.1724752281888 (53.952000000000055), 555.7377497731359 (68.84800000000001), 556.2940012197827 (83.74399999999997), 556.8536863433022 (98.63999999999999), 557.4298141897622 (113.53600000000006), 558.0350548497696 (128.43200000000004), 558.6808052200256 (143.32800000000003), 559.3762578877249 (158.224), 560.1275230267767 (173.11999999999998), 560.9368554734253 (188.01600000000008), 561.8020391468377 (202.91200000000006), 562.715977843187 (217.80800000000002), 563.666534462327 (232.704), 564.636649581772 (247.59999999999997), 565.6047551348599 (262.4960000000001), 566.5454805155305 (277.39199999999994), 567.4306280124542 (292.288), 568.230373803957 (307.184), 568.9146318092022 (322.08), 569.4545024901385 (336.9760000000001), 569.8237189858141 (351.87199999999996), 570.0 (366.76800000000003), 569.9662232409432 (381.664), 569.7113447315259 (396.56), 569.231006987517 (411.456), 568.5278012427965 (426.352), 567.6111734534671 (441.24800000000005), 566.4969884078218 (456.144), 565.2067886719807 (471.03999999999996), 563.766803443972 (485.936), 562.2067753730885 (500.832), 560.5586803997659 (515.7280000000001), 558.8554167248195 (530.624), 557.1295347332256 (545.52), 555.4120710845494 (560.4159999999999), 553.7315384552325 (575.312), 552.1131088220972 (590.208), 550.578013850811 (605.104), 549.1431718543621 (620.0)" drake-tooltip=":day: Fri
:tip: 2.2
:time: Lunch" stroke="#55a868" fill-opacity="0.4" fill="#55a868" stroke-width="1"></polyline> <polyline points="350.0 (116.00000000000006), 350.0 (116.00000000000006), 350.0 (116.00000000000006), 350.0 (116.00000000000006), 350.0 (116.00000000000006), 350.0 (116.00000000000006), 350.0 (116.00000000000006), 350.0 (116.00000000000006), 350.0 (116.00000000000006), 350.0 (116.00000000000006), 350.0 (116.00000000000006), 350.0 (116.00000000000006), 350.0 (116.00000000000006), 350.0 (116.00000000000006), 350.0 (116.00000000000006), 350.0 (116.00000000000006), 350.0 (116.00000000000006), 350.0 (116.00000000000006), 350.0 (116.00000000000006), 350.0 (116.00000000000006), 350.0 (116.00000000000006), 350.0 (116.00000000000006), 350.0 (116.00000000000006), 350.0 (116.00000000000006), 350.0 (116.00000000000006), 350.0 (116.00000000000006), 350.0 (116.00000000000006), 350.0 (116.00000000000006), 350.0 (116.00000000000006), 350.0 (116.00000000000006), 350.0 (116.00000000000006), 350.0 (116.00000000000006), 350.0 (116.00000000000006), 350.0 (116.00000000000006), 350.0 (116.00000000000006), 350.0 (116.00000000000006), 350.0 (116.00000000000006), 350.0 (116.00000000000006), 350.0 (116.00000000000006), 350.0 (116.00000000000006), 350.0 (116.00000000000006), 350.0 (116.00000000000006), 350.0 (116.00000000000006), 350.0 (116.00000000000006), 350.0 (116.00000000000006), 350.0 (116.00000000000006), 350.0 (116.00000000000006), 350.0 (116.00000000000006), 350.0 (116.00000000000006), 350.0 (116.00000000000006), 350.0 (116.00000000000006), 410.0 (116.00000000000006), 410.0 (116.00000000000006), 410.0 (116.00000000000006), 410.0 (116.00000000000006), 410.0 (116.00000000000006), 410.0 (116.00000000000006), 410.0 (116.00000000000006), 410.0 (116.00000000000006), 410.0 (116.00000000000006), 410.0 (116.00000000000006), 410.0 (116.00000000000006), 410.0 (116.00000000000006), 410.0 (116.00000000000006), 410.0 (116.00000000000006), 410.0 (116.00000000000006), 410.0 (116.00000000000006), 410.0 (116.00000000000006), 410.0 (116.00000000000006), 410.0 (116.00000000000006), 410.0 (116.00000000000006), 410.0 (116.00000000000006), 410.0 (116.00000000000006), 410.0 (116.00000000000006), 410.0 (116.00000000000006), 410.0 (116.00000000000006), 410.0 (116.00000000000006), 410.0 (116.00000000000006), 410.0 (116.00000000000006), 410.0 (116.00000000000006), 410.0 (116.00000000000006), 410.0 (116.00000000000006), 410.0 (116.00000000000006), 410.0 (116.00000000000006), 410.0 (116.00000000000006), 410.0 (116.00000000000006), 410.0 (116.00000000000006), 410.0 (116.00000000000006), 410.0 (116.00000000000006), 410.0 (116.00000000000006), 410.0 (116.00000000000006), 410.0 (116.00000000000006), 410.0 (116.00000000000006), 410.0 (116.00000000000006), 410.0 (116.00000000000006), 410.0 (116.00000000000006), 410.0 (116.00000000000006), 410.0 (116.00000000000006), 410.0 (116.00000000000006), 410.0 (116.00000000000006), 410.0 (116.00000000000006), 410.0 (116.00000000000006)" stroke="#4c72b0" fill-opacity="0.4" fill="#4c72b0" stroke-width="1"><title>:day: Thur
:tip: 3.0
:time: Dinner</title> points="350.0 (116.00000000000006), 350.0 (116.00000000000006), 350.0 (116.00000000000006), 350.0 (116.00000000000006), 350.0 (116.00000000000006), 350.0 (116.00000000000006), 350.0 (116.00000000000006), 350.0 (116.00000000000006), 350.0 (116.00000000000006), 350.0 (116.00000000000006), 350.0 (116.00000000000006), 350.0 (116.00000000000006), 350.0 (116.00000000000006), 350.0 (116.00000000000006), 350.0 (116.00000000000006), 350.0 (116.00000000000006), 350.0 (116.00000000000006), 350.0 (116.00000000000006), 350.0 (116.00000000000006), 350.0 (116.00000000000006), 350.0 (116.00000000000006), 350.0 (116.00000000000006), 350.0 (116.00000000000006), 350.0 (116.00000000000006), 350.0 (116.00000000000006), 350.0 (116.00000000000006), 350.0 (116.00000000000006), 350.0 (116.00000000000006), 350.0 (116.00000000000006), 350.0 (116.00000000000006), 350.0 (116.00000000000006), 350.0 (116.00000000000006), 350.0 (116.00000000000006), 350.0 (116.00000000000006), 350.0 (116.00000000000006), 350.0 (116.00000000000006), 350.0 (116.00000000000006), 350.0 (116.00000000000006), 350.0 (116.00000000000006), 350.0 (116.00000000000006), 350.0 (116.00000000000006), 350.0 (116.00000000000006), 350.0 (116.00000000000006), 350.0 (116.00000000000006), 350.0 (116.00000000000006), 350.0 (116.00000000000006), 350.0 (116.00000000000006), 350.0 (116.00000000000006), 350.0 (116.00000000000006), 350.0 (116.00000000000006), 350.0 (116.00000000000006), 410.0 (116.00000000000006), 410.0 (116.00000000000006), 410.0 (116.00000000000006), 410.0 (116.00000000000006), 410.0 (116.00000000000006), 410.0 (116.00000000000006), 410.0 (116.00000000000006), 410.0 (116.00000000000006), 410.0 (116.00000000000006), 410.0 (116.00000000000006), 410.0 (116.00000000000006), 410.0 (116.00000000000006), 410.0 (116.00000000000006), 410.0 (116.00000000000006), 410.0 (116.00000000000006), 410.0 (116.00000000000006), 410.0 (116.00000000000006), 410.0 (116.00000000000006), 410.0 (116.00000000000006), 410.0 (116.00000000000006), 410.0 (116.00000000000006), 410.0 (116.00000000000006), 410.0 (116.00000000000006), 410.0 (116.00000000000006), 410.0 (116.00000000000006), 410.0 (116.00000000000006), 410.0 (116.00000000000006), 410.0 (116.00000000000006), 410.0 (116.00000000000006), 410.0 (116.00000000000006), 410.0 (116.00000000000006), 410.0 (116.00000000000006), 410.0 (116.00000000000006), 410.0 (116.00000000000006), 410.0 (116.00000000000006), 410.0 (116.00000000000006), 410.0 (116.00000000000006), 410.0 (116.00000000000006), 410.0 (116.00000000000006), 410.0 (116.00000000000006), 410.0 (116.00000000000006), 410.0 (116.00000000000006), 410.0 (116.00000000000006), 410.0 (116.00000000000006), 410.0 (116.00000000000006), 410.0 (116.00000000000006), 410.0 (116.00000000000006), 410.0 (116.00000000000006), 410.0 (116.00000000000006), 410.0 (116.00000000000006), 410.0 (116.00000000000006)" drake-tooltip=":day: Thur
:tip: 3.0
:time: Dinner" stroke="#4c72b0" fill-opacity="0.4" fill="#4c72b0" stroke-width="1"></polyline> <rect width="100" height="40" x="70" y="290" stroke="#cccccc" fill-opacity="0.9" fill="#ffffff"></rect> <circle cx="80" cy="300" r="5" fill="#4c72b0"></circle> <text fill="#000000" font-size="10px" y="305" x="90"> Dinner</text> <circle cx="80" cy="320" r="5" fill="#55a868"></circle> <text fill="#000000" font-size="10px" y="325" x="90"> Lunch</text> <text font-weight="bold" fill="#000000" font-size="16px" text-anchor="middle" y="30" x="300"> Tip Distribution by Day and Time</text></svg>