<svg width="600" height="400" version="1.1" xmlns="http://www.w3.org/2000/svg" xmlns:xlink="http://www.w3.org/1999/xlink"> <rect width="600" height="400" x="0" y="0" fill="#ffffff"></rect> <line x1="60" x2="540" y1="340.0" y2="340.0" stroke-dasharray="none" stroke="#eeeeee" stroke-width="1"></line> <line x1="55" x2="60" y1="340.0" y2="340.0" stroke="#000000" stroke-width="1"></line> <text fill="#000000" font-size="10px" text-anchor="end" y="344.0" x="50"> 1.0</text> <line x1="60" x2="540" y1="284.0" y2="284.0" stroke-dasharray="none" stroke="#eeeeee" stroke-width="1"></line> <line x1="55" x2="60" y1="284.0" y2="284.0" stroke="#000000" stroke-width="1"></line> <text fill="#000000" font-size="10px" text-anchor="end" y="288.0" x="50"> 2.8</text> <line x1="60" x2="540" y1="228.0" y2="228.0" stroke-dasharray="none" stroke="#eeeeee" stroke-width="1"></line> <line x1="55" x2="60" y1="228.0" y2="228.0" stroke="#000000" stroke-width="1"></line> <text fill="#000000" font-size="10px" text-anchor="end" y="232.0" x="50"> 4.6</text> <line x1="60" x2="540" y1="172.0" y2="172.0" stroke-dasharray="none" stroke="#eeeeee" stroke-width="1"></line> <line x1="55" x2="60" y1="172.0" y2="172.0" stroke="#000000" stroke-width="1"></line> <text fill="#000000" font-size="10px" text-anchor="end" y="176.0" x="50"> 6.4</text> <line x1="60" x2="540" y1="116.0" y2="116.0" stroke-dasharray="none" stroke="#eeeeee" stroke-width="1"></line> <line x1="55" x2="60" y1="116.0" y2="116.0" stroke="#000000" stroke-width="1"></line> <text fill="#000000" font-size="10px" text-anchor="end" y="120.0" x="50"> 8.2</text> <line x1="60" x2="540" y1="60.0" y2="60.0" stroke-dasharray="none" stroke="#eeeeee" stroke-width="1"></line> <line x1="55" x2="60" y1="60.0" y2="60.0" stroke="#000000" stroke-width="1"></line> <text fill="#000000" font-size="10px" text-anchor="end" y="64.0" x="50"> 10.0</text> <line x1="60.0" x2="60.0" y1="60" y2="340" stroke-dasharray="none" stroke="#eeeeee" stroke-width="1"></line> <text fill="#000000" font-size="10px" text-anchor="middle" y="360" x="60.0"> Sun</text> <line x1="220.0" x2="220.0" y1="60" y2="340" stroke-dasharray="none" stroke="#eeeeee" stroke-width="1"></line> <text fill="#000000" font-size="10px" text-anchor="middle" y="360" x="220.0"> Sat</text> <line x1="380.0" x2="380.0" y1="60" y2="340" stroke-dasharray="none" stroke="#eeeeee" stroke-width="1"></line> <text fill="#000000" font-size="10px" text-anchor="middle" y="360" x="380.0"> Thur</text> <line x1="540.0" x2="540.0" y1="60" y2="340" stroke-dasharray="none" stroke="#eeeeee" stroke-width="1"></line> <text fill="#000000" font-size="10px" text-anchor="middle" y="360" x="540.0"> Fri</text> <line x1="60" x2="60" y1="60" y2="340" stroke="#000000" stroke-width="1"></line> <line x1="60" x2="540" y1="340" y2="340" stroke="#000000" stroke-width="1"></line> <text fill="#000000" font-size="12px" text-anchor="middle" y="380" x="300"> :day</text> <text transform="rotate(-90 10 200)" fill="#000000" font-size="12px" text-anchor="middle" y="200" x="10"> :tip</text> <polyline points="59.83013687808309 (373.8488888888889), 59.66013810251504 (369.0664888888889), 59.36059995454593 (364.2840888888889), 58.86416977597688 (359.5016888888889), 58.08763376668742 (354.7192888888889), 56.938975898053876 (349.9368888888889), 55.33264516547914 (345.15448888888886), 53.21471819011284 (340.37208888888887), 50.59546018307417 (335.5896888888889), 47.57941491532233 (330.8072888888889), 44.37610512654144 (326.0248888888889), 41.27432665168931 (321.2424888888889), 38.57517144349484 (316.4600888888889), 36.501014377712806 (311.6776888888889), 35.11763519984301 (306.8952888888889), 34.3090876253242 (302.1128888888889), 33.82372648809816 (297.3304888888889), 33.3754331049321 (292.5480888888889), 32.757388666665626 (287.7656888888889), 31.922144042114528 (282.98328888888886), 31.00019678399536 (278.2008888888889), 30.255873687581524 (273.4184888888889), 30.0 (268.6360888888889), 30.488405748621684 (263.8536888888889), 31.835957926562504 (259.0712888888889), 33.97059137138855 (254.2888888888889), 36.64156160129839 (249.5064888888889), 39.48144290111307 (244.7240888888889), 42.10519144175376 (239.9416888888889), 44.21675354521352 (235.15928888888888), 45.68883760130749 (230.37688888888889), 46.58765785585565 (225.5944888888889), 47.132297554010925 (220.8120888888889), 47.6036371840882 (216.0296888888889), 48.23996014230581 (211.2472888888889), 49.16236698227452 (206.4648888888889), 50.35718216996625 (201.68248888888888), 51.71297570729868 (196.9000888888889), 53.084778165221685 (192.1176888888889), 54.35179736588594 (187.3352888888889), 55.44738651310177 (182.5528888888889), 56.359134363290096 (177.7704888888889), 57.11019174051721 (172.98808888888888), 57.7359584788408 (168.2056888888889), 58.26631576557524 (163.4232888888889), 58.7177248431362 (158.6408888888889), 59.09454437817606 (153.8584888888889), 59.395713000590405 (149.0760888888889), 59.621915937646435 (144.2936888888889), 59.779601263573554 (139.5112888888889), 59.880847060587485 (134.72888888888892), 60.119152939412515 (134.72888888888892), 60.220398736426446 (139.5112888888889), 60.378084062353565 (144.2936888888889), 60.604286999409595 (149.0760888888889), 60.90545562182394 (153.8584888888889), 61.2822751568638 (158.6408888888889), 61.73368423442476 (163.4232888888889), 62.2640415211592 (168.2056888888889), 62.88980825948279 (172.98808888888888), 63.640865636709904 (177.7704888888889), 64.55261348689824 (182.5528888888889), 65.64820263411406 (187.3352888888889), 66.91522183477832 (192.1176888888889), 68.28702429270132 (196.9000888888889), 69.64281783003375 (201.68248888888888), 70.83763301772548 (206.4648888888889), 71.76003985769418 (211.2472888888889), 72.3963628159118 (216.0296888888889), 72.86770244598908 (220.8120888888889), 73.41234214414435 (225.5944888888889), 74.31116239869252 (230.37688888888889), 75.78324645478648 (235.15928888888888), 77.89480855824624 (239.9416888888889), 80.51855709888693 (244.7240888888889), 83.35843839870161 (249.5064888888889), 86.02940862861145 (254.2888888888889), 88.1640420734375 (259.0712888888889), 89.51159425137831 (263.8536888888889), 90.0 (268.6360888888889), 89.74412631241847 (273.4184888888889), 88.99980321600464 (278.2008888888889), 88.07785595788548 (282.98328888888886), 87.24261133333437 (287.7656888888889), 86.6245668950679 (292.5480888888889), 86.17627351190184 (297.3304888888889), 85.6909123746758 (302.1128888888889), 84.88236480015699 (306.8952888888889), 83.4989856222872 (311.6776888888889), 81.42482855650516 (316.4600888888889), 78.72567334831069 (321.2424888888889), 75.62389487345855 (326.0248888888889), 72.42058508467767 (330.8072888888889), 69.40453981692583 (335.5896888888889), 66.78528180988715 (340.37208888888887), 64.66735483452086 (345.15448888888886), 63.061024101946124 (349.9368888888889), 61.91236623331258 (354.7192888888889), 61.13583022402312 (359.5016888888889), 60.63940004545407 (364.2840888888889), 60.33986189748496 (369.0664888888889), 60.16986312191691 (373.8488888888889)" stroke="#4c72b0" fill-opacity="0.4" fill="#4c72b0" stroke-width="1"><title>:day: Sun
:tip: 3.1500000000000004
:time: Dinner</title> points="59.83013687808309 (373.8488888888889), 59.66013810251504 (369.0664888888889), 59.36059995454593 (364.2840888888889), 58.86416977597688 (359.5016888888889), 58.08763376668742 (354.7192888888889), 56.938975898053876 (349.9368888888889), 55.33264516547914 (345.15448888888886), 53.21471819011284 (340.37208888888887), 50.59546018307417 (335.5896888888889), 47.57941491532233 (330.8072888888889), 44.37610512654144 (326.0248888888889), 41.27432665168931 (321.2424888888889), 38.57517144349484 (316.4600888888889), 36.501014377712806 (311.6776888888889), 35.11763519984301 (306.8952888888889), 34.3090876253242 (302.1128888888889), 33.82372648809816 (297.3304888888889), 33.3754331049321 (292.5480888888889), 32.757388666665626 (287.7656888888889), 31.922144042114528 (282.98328888888886), 31.00019678399536 (278.2008888888889), 30.255873687581524 (273.4184888888889), 30.0 (268.6360888888889), 30.488405748621684 (263.8536888888889), 31.835957926562504 (259.0712888888889), 33.97059137138855 (254.2888888888889), 36.64156160129839 (249.5064888888889), 39.48144290111307 (244.7240888888889), 42.10519144175376 (239.9416888888889), 44.21675354521352 (235.15928888888888), 45.68883760130749 (230.37688888888889), 46.58765785585565 (225.5944888888889), 47.132297554010925 (220.8120888888889), 47.6036371840882 (216.0296888888889), 48.23996014230581 (211.2472888888889), 49.16236698227452 (206.4648888888889), 50.35718216996625 (201.68248888888888), 51.71297570729868 (196.9000888888889), 53.084778165221685 (192.1176888888889), 54.35179736588594 (187.3352888888889), 55.44738651310177 (182.5528888888889), 56.359134363290096 (177.7704888888889), 57.11019174051721 (172.98808888888888), 57.7359584788408 (168.2056888888889), 58.26631576557524 (163.4232888888889), 58.7177248431362 (158.6408888888889), 59.09454437817606 (153.8584888888889), 59.395713000590405 (149.0760888888889), 59.621915937646435 (144.2936888888889), 59.779601263573554 (139.5112888888889), 59.880847060587485 (134.72888888888892), 60.119152939412515 (134.72888888888892), 60.220398736426446 (139.5112888888889), 60.378084062353565 (144.2936888888889), 60.604286999409595 (149.0760888888889), 60.90545562182394 (153.8584888888889), 61.2822751568638 (158.6408888888889), 61.73368423442476 (163.4232888888889), 62.2640415211592 (168.2056888888889), 62.88980825948279 (172.98808888888888), 63.640865636709904 (177.7704888888889), 64.55261348689824 (182.5528888888889), 65.64820263411406 (187.3352888888889), 66.91522183477832 (192.1176888888889), 68.28702429270132 (196.9000888888889), 69.64281783003375 (201.68248888888888), 70.83763301772548 (206.4648888888889), 71.76003985769418 (211.2472888888889), 72.3963628159118 (216.0296888888889), 72.86770244598908 (220.8120888888889), 73.41234214414435 (225.5944888888889), 74.31116239869252 (230.37688888888889), 75.78324645478648 (235.15928888888888), 77.89480855824624 (239.9416888888889), 80.51855709888693 (244.7240888888889), 83.35843839870161 (249.5064888888889), 86.02940862861145 (254.2888888888889), 88.1640420734375 (259.0712888888889), 89.51159425137831 (263.8536888888889), 90.0 (268.6360888888889), 89.74412631241847 (273.4184888888889), 88.99980321600464 (278.2008888888889), 88.07785595788548 (282.98328888888886), 87.24261133333437 (287.7656888888889), 86.6245668950679 (292.5480888888889), 86.17627351190184 (297.3304888888889), 85.6909123746758 (302.1128888888889), 84.88236480015699 (306.8952888888889), 83.4989856222872 (311.6776888888889), 81.42482855650516 (316.4600888888889), 78.72567334831069 (321.2424888888889), 75.62389487345855 (326.0248888888889), 72.42058508467767 (330.8072888888889), 69.40453981692583 (335.5896888888889), 66.78528180988715 (340.37208888888887), 64.66735483452086 (345.15448888888886), 63.061024101946124 (349.9368888888889), 61.91236623331258 (354.7192888888889), 61.13583022402312 (359.5016888888889), 60.63940004545407 (364.2840888888889), 60.33986189748496 (369.0664888888889), 60.16986312191691 (373.8488888888889)" drake-tooltip=":day: Sun
:tip: 3.1500000000000004
:time: Dinner" stroke="#4c72b0" fill-opacity="0.4" fill="#4c72b0" stroke-width="1"></polyline> <polyline points="219.9003023280597 (396.0), 219.72012192785914 (388.16), 219.3065338677739 (380.32), 218.47612967539683 (372.48), 217.01194359117866 (364.64), 214.73284268640577 (356.8), 211.58174564401392 (348.96), 207.68911688905206 (341.12), 203.37771769942515 (333.28), 199.10274985160518 (325.44), 195.34199923583816 (317.6), 192.46938322678292 (309.76), 190.67603682220502 (301.91999999999996), 190.0 (294.08), 190.43552071791586 (286.24), 191.99198250347192 (278.4), 194.61490416283732 (270.56), 198.05494594131883 (262.72), 201.8569825590087 (254.88), 205.51659921595711 (247.03999999999996), 208.67447558917863 (239.2), 211.2006240561088 (231.36), 213.1443723364917 (223.51999999999998), 214.62668817688706 (215.67999999999998), 215.75363050001206 (207.84), 216.5848710588749 (200.0), 217.1524412825825 (192.16), 217.49940037062066 (184.32), 217.70037808443507 (176.48), 217.8459518117611 (168.64000000000001), 218.0070727182288 (160.79999999999995), 218.21176719232116 (152.95999999999998), 218.4497948248039 (145.11999999999998), 218.69274107603775 (137.27999999999997), 218.90881756311606 (129.44), 219.0682140872161 (121.60000000000002), 219.14976983531304 (113.76000000000005), 219.1526540902344 (105.92000000000004), 219.10141856151418 (98.08000000000001), 219.03491410822377 (90.24000000000004), 218.98779787976014 (82.40000000000003), 218.981490881708 (74.56), 219.02764895869566 (66.72000000000003), 219.13153474753133 (58.879999999999995), 219.28705690161908 (51.039999999999964), 219.47145018714525 (43.200000000000045), 219.65114558363953 (35.35999999999996), 219.79706908651914 (27.52000000000004), 219.8966375133614 (19.680000000000007), 219.9540854539076 (11.840000000000032), 219.98225491249744 (4.0), 220.01774508750256 (4.0), 220.0459145460924 (11.840000000000032), 220.1033624866386 (19.680000000000007), 220.20293091348086 (27.52000000000004), 220.34885441636047 (35.35999999999996), 220.52854981285475 (43.200000000000045), 220.71294309838092 (51.039999999999964), 220.86846525246867 (58.879999999999995), 220.97235104130434 (66.72000000000003), 221.018509118292 (74.56), 221.01220212023986 (82.40000000000003), 220.96508589177623 (90.24000000000004), 220.89858143848582 (98.08000000000001), 220.8473459097656 (105.92000000000004), 220.85023016468696 (113.76000000000005), 220.9317859127839 (121.60000000000002), 221.09118243688394 (129.44), 221.30725892396225 (137.27999999999997), 221.5502051751961 (145.11999999999998), 221.78823280767884 (152.95999999999998), 221.9929272817712 (160.79999999999995), 222.1540481882389 (168.64000000000001), 222.29962191556493 (176.48), 222.50059962937934 (184.32), 222.8475587174175 (192.16), 223.4151289411251 (200.0), 224.24636949998794 (207.84), 225.37331182311294 (215.67999999999998), 226.8556276635083 (223.51999999999998), 228.7993759438912 (231.36), 231.32552441082137 (239.2), 234.48340078404289 (247.03999999999996), 238.1430174409913 (254.88), 241.94505405868117 (262.72), 245.38509583716268 (270.56), 248.00801749652808 (278.4), 249.56447928208414 (286.24), 250.0 (294.08), 249.32396317779498 (301.91999999999996), 247.53061677321708 (309.76), 244.65800076416184 (317.6), 240.89725014839482 (325.44), 236.62228230057485 (333.28), 232.31088311094794 (341.12), 228.41825435598608 (348.96), 225.26715731359423 (356.8), 222.98805640882134 (364.64), 221.52387032460317 (372.48), 220.6934661322261 (380.32), 220.27987807214086 (388.16), 220.0996976719403 (396.0)" stroke="#4c72b0" fill-opacity="0.4" fill="#4c72b0" stroke-width="1"><title>:day: Sat
:tip: 2.75
:time: Dinner</title> points="219.9003023280597 (396.0), 219.72012192785914 (388.16), 219.3065338677739 (380.32), 218.47612967539683 (372.48), 217.01194359117866 (364.64), 214.73284268640577 (356.8), 211.58174564401392 (348.96), 207.68911688905206 (341.12), 203.37771769942515 (333.28), 199.10274985160518 (325.44), 195.34199923583816 (317.6), 192.46938322678292 (309.76), 190.67603682220502 (301.91999999999996), 190.0 (294.08), 190.43552071791586 (286.24), 191.99198250347192 (278.4), 194.61490416283732 (270.56), 198.05494594131883 (262.72), 201.8569825590087 (254.88), 205.51659921595711 (247.03999999999996), 208.67447558917863 (239.2), 211.2006240561088 (231.36), 213.1443723364917 (223.51999999999998), 214.62668817688706 (215.67999999999998), 215.75363050001206 (207.84), 216.5848710588749 (200.0), 217.1524412825825 (192.16), 217.49940037062066 (184.32), 217.70037808443507 (176.48), 217.8459518117611 (168.64000000000001), 218.0070727182288 (160.79999999999995), 218.21176719232116 (152.95999999999998), 218.4497948248039 (145.11999999999998), 218.69274107603775 (137.27999999999997), 218.90881756311606 (129.44), 219.0682140872161 (121.60000000000002), 219.14976983531304 (113.76000000000005), 219.1526540902344 (105.92000000000004), 219.10141856151418 (98.08000000000001), 219.03491410822377 (90.24000000000004), 218.98779787976014 (82.40000000000003), 218.981490881708 (74.56), 219.02764895869566 (66.72000000000003), 219.13153474753133 (58.879999999999995), 219.28705690161908 (51.039999999999964), 219.47145018714525 (43.200000000000045), 219.65114558363953 (35.35999999999996), 219.79706908651914 (27.52000000000004), 219.8966375133614 (19.680000000000007), 219.9540854539076 (11.840000000000032), 219.98225491249744 (4.0), 220.01774508750256 (4.0), 220.0459145460924 (11.840000000000032), 220.1033624866386 (19.680000000000007), 220.20293091348086 (27.52000000000004), 220.34885441636047 (35.35999999999996), 220.52854981285475 (43.200000000000045), 220.71294309838092 (51.039999999999964), 220.86846525246867 (58.879999999999995), 220.97235104130434 (66.72000000000003), 221.018509118292 (74.56), 221.01220212023986 (82.40000000000003), 220.96508589177623 (90.24000000000004), 220.89858143848582 (98.08000000000001), 220.8473459097656 (105.92000000000004), 220.85023016468696 (113.76000000000005), 220.9317859127839 (121.60000000000002), 221.09118243688394 (129.44), 221.30725892396225 (137.27999999999997), 221.5502051751961 (145.11999999999998), 221.78823280767884 (152.95999999999998), 221.9929272817712 (160.79999999999995), 222.1540481882389 (168.64000000000001), 222.29962191556493 (176.48), 222.50059962937934 (184.32), 222.8475587174175 (192.16), 223.4151289411251 (200.0), 224.24636949998794 (207.84), 225.37331182311294 (215.67999999999998), 226.8556276635083 (223.51999999999998), 228.7993759438912 (231.36), 231.32552441082137 (239.2), 234.48340078404289 (247.03999999999996), 238.1430174409913 (254.88), 241.94505405868117 (262.72), 245.38509583716268 (270.56), 248.00801749652808 (278.4), 249.56447928208414 (286.24), 250.0 (294.08), 249.32396317779498 (301.91999999999996), 247.53061677321708 (309.76), 244.65800076416184 (317.6), 240.89725014839482 (325.44), 236.62228230057485 (333.28), 232.31088311094794 (341.12), 228.41825435598608 (348.96), 225.26715731359423 (356.8), 222.98805640882134 (364.64), 221.52387032460317 (372.48), 220.6934661322261 (380.32), 220.27987807214086 (388.16), 220.0996976719403 (396.0)" drake-tooltip=":day: Sat
:tip: 2.75
:time: Dinner" stroke="#4c72b0" fill-opacity="0.4" fill="#4c72b0" stroke-width="1"></polyline> <polyline points="379.3499353759375 (366.1333333333333), 378.7646678198513 (361.3857777777778), 377.7987308784605 (356.6382222222222), 376.31580962041744 (351.8906666666667), 374.1984164274308 (347.1431111111111), 371.389000535377 (342.3955555555556), 367.93264517186157 (337.648), 364.0069022519093 (332.9004444444445), 359.92354232965295 (328.15288888888887), 356.09207383306045 (323.4053333333333), 352.9459889593829 (318.65777777777777), 350.8475560787598 (313.9102222222222), 350.0 (309.16266666666667), 350.39923255156395 (304.4151111111111), 351.8454227934299 (299.66755555555557), 354.0103767783605 (294.92), 356.5321571043249 (290.17244444444447), 359.0983691461458 (285.42488888888886), 361.4904362623417 (280.6773333333333), 363.585402769068 (275.9297777777778), 365.33311443244787 (271.1822222222222), 366.7321636805011 (266.43466666666666), 367.8171585976262 (261.6871111111111), 368.653577932466 (256.93955555555556), 369.32807001202906 (252.192), 369.92732938131013 (247.44444444444446), 370.51200035710866 (242.6968888888889), 371.101206135634 (237.94933333333333), 371.6794729591643 (233.2017777777778), 372.2230215162329 (228.45422222222223), 372.7281643569653 (223.70666666666668), 373.22251801862086 (218.9591111111111), 373.75187801532024 (214.21155555555558), 374.35255707461585 (209.46400000000003), 375.028004844037 (204.71644444444445), 375.7438737057705 (199.9688888888889), 376.4424563969882 (195.22133333333332), 377.0660984551048 (190.4737777777778), 377.5767722589319 (185.72622222222225), 377.9645276072387 (180.97866666666667), 378.2449381204457 (176.23111111111115), 378.4498516309109 (171.48355555555557), 378.61600368340754 (166.73600000000002), 378.77467012453064 (161.9884444444445), 378.944504149775 (157.24088888888892), 379.12906365682255 (152.49333333333334), 379.31938700361627 (147.74577777777776), 379.5001958707293 (142.99822222222224), 379.6568980672828 (138.25066666666666), 379.78057397764354 (133.5031111111111), 379.86955405932184 (128.7555555555556), 380.13044594067816 (128.7555555555556), 380.21942602235646 (133.5031111111111), 380.3431019327172 (138.25066666666666), 380.4998041292707 (142.99822222222224), 380.68061299638373 (147.74577777777776), 380.87093634317745 (152.49333333333334), 381.055495850225 (157.24088888888892), 381.22532987546936 (161.9884444444445), 381.38399631659246 (166.73600000000002), 381.5501483690891 (171.48355555555557), 381.7550618795543 (176.23111111111115), 382.0354723927613 (180.97866666666667), 382.4232277410681 (185.72622222222225), 382.9339015448952 (190.4737777777778), 383.5575436030118 (195.22133333333332), 384.2561262942295 (199.9688888888889), 384.971995155963 (204.71644444444445), 385.64744292538415 (209.46400000000003), 386.24812198467976 (214.21155555555558), 386.77748198137914 (218.9591111111111), 387.2718356430347 (223.70666666666668), 387.7769784837671 (228.45422222222223), 388.3205270408357 (233.2017777777778), 388.898793864366 (237.94933333333333), 389.48799964289134 (242.6968888888889), 390.07267061868987 (247.44444444444446), 390.67192998797094 (252.192), 391.346422067534 (256.93955555555556), 392.1828414023738 (261.6871111111111), 393.2678363194989 (266.43466666666666), 394.66688556755213 (271.1822222222222), 396.414597230932 (275.9297777777778), 398.5095637376583 (280.6773333333333), 400.9016308538542 (285.42488888888886), 403.4678428956751 (290.17244444444447), 405.9896232216395 (294.92), 408.1545772065701 (299.66755555555557), 409.60076744843605 (304.4151111111111), 410.0 (309.16266666666667), 409.1524439212402 (313.9102222222222), 407.0540110406171 (318.65777777777777), 403.90792616693955 (323.4053333333333), 400.07645767034705 (328.15288888888887), 395.9930977480907 (332.9004444444445), 392.06735482813843 (337.648), 388.610999464623 (342.3955555555556), 385.8015835725692 (347.1431111111111), 383.68419037958256 (351.8906666666667), 382.2012691215395 (356.6382222222222), 381.2353321801487 (361.3857777777778), 380.6500646240625 (366.1333333333333)" stroke="#55a868" fill-opacity="0.4" fill="#55a868" stroke-width="1"><title>:day: Thur
:tip: 2.3
:time: Lunch</title> points="379.3499353759375 (366.1333333333333), 378.7646678198513 (361.3857777777778), 377.7987308784605 (356.6382222222222), 376.31580962041744 (351.8906666666667), 374.1984164274308 (347.1431111111111), 371.389000535377 (342.3955555555556), 367.93264517186157 (337.648), 364.0069022519093 (332.9004444444445), 359.92354232965295 (328.15288888888887), 356.09207383306045 (323.4053333333333), 352.9459889593829 (318.65777777777777), 350.8475560787598 (313.9102222222222), 350.0 (309.16266666666667), 350.39923255156395 (304.4151111111111), 351.8454227934299 (299.66755555555557), 354.0103767783605 (294.92), 356.5321571043249 (290.17244444444447), 359.0983691461458 (285.42488888888886), 361.4904362623417 (280.6773333333333), 363.585402769068 (275.9297777777778), 365.33311443244787 (271.1822222222222), 366.7321636805011 (266.43466666666666), 367.8171585976262 (261.6871111111111), 368.653577932466 (256.93955555555556), 369.32807001202906 (252.192), 369.92732938131013 (247.44444444444446), 370.51200035710866 (242.6968888888889), 371.101206135634 (237.94933333333333), 371.6794729591643 (233.2017777777778), 372.2230215162329 (228.45422222222223), 372.7281643569653 (223.70666666666668), 373.22251801862086 (218.9591111111111), 373.75187801532024 (214.21155555555558), 374.35255707461585 (209.46400000000003), 375.028004844037 (204.71644444444445), 375.7438737057705 (199.9688888888889), 376.4424563969882 (195.22133333333332), 377.0660984551048 (190.4737777777778), 377.5767722589319 (185.72622222222225), 377.9645276072387 (180.97866666666667), 378.2449381204457 (176.23111111111115), 378.4498516309109 (171.48355555555557), 378.61600368340754 (166.73600000000002), 378.77467012453064 (161.9884444444445), 378.944504149775 (157.24088888888892), 379.12906365682255 (152.49333333333334), 379.31938700361627 (147.74577777777776), 379.5001958707293 (142.99822222222224), 379.6568980672828 (138.25066666666666), 379.78057397764354 (133.5031111111111), 379.86955405932184 (128.7555555555556), 380.13044594067816 (128.7555555555556), 380.21942602235646 (133.5031111111111), 380.3431019327172 (138.25066666666666), 380.4998041292707 (142.99822222222224), 380.68061299638373 (147.74577777777776), 380.87093634317745 (152.49333333333334), 381.055495850225 (157.24088888888892), 381.22532987546936 (161.9884444444445), 381.38399631659246 (166.73600000000002), 381.5501483690891 (171.48355555555557), 381.7550618795543 (176.23111111111115), 382.0354723927613 (180.97866666666667), 382.4232277410681 (185.72622222222225), 382.9339015448952 (190.4737777777778), 383.5575436030118 (195.22133333333332), 384.2561262942295 (199.9688888888889), 384.971995155963 (204.71644444444445), 385.64744292538415 (209.46400000000003), 386.24812198467976 (214.21155555555558), 386.77748198137914 (218.9591111111111), 387.2718356430347 (223.70666666666668), 387.7769784837671 (228.45422222222223), 388.3205270408357 (233.2017777777778), 388.898793864366 (237.94933333333333), 389.48799964289134 (242.6968888888889), 390.07267061868987 (247.44444444444446), 390.67192998797094 (252.192), 391.346422067534 (256.93955555555556), 392.1828414023738 (261.6871111111111), 393.2678363194989 (266.43466666666666), 394.66688556755213 (271.1822222222222), 396.414597230932 (275.9297777777778), 398.5095637376583 (280.6773333333333), 400.9016308538542 (285.42488888888886), 403.4678428956751 (290.17244444444447), 405.9896232216395 (294.92), 408.1545772065701 (299.66755555555557), 409.60076744843605 (304.4151111111111), 410.0 (309.16266666666667), 409.1524439212402 (313.9102222222222), 407.0540110406171 (318.65777777777777), 403.90792616693955 (323.4053333333333), 400.07645767034705 (328.15288888888887), 395.9930977480907 (332.9004444444445), 392.06735482813843 (337.648), 388.610999464623 (342.3955555555556), 385.8015835725692 (347.1431111111111), 383.68419037958256 (351.8906666666667), 382.2012691215395 (356.6382222222222), 381.2353321801487 (361.3857777777778), 380.6500646240625 (366.1333333333333)" drake-tooltip=":day: Thur
:tip: 2.3
:time: Lunch" stroke="#55a868" fill-opacity="0.4" fill="#55a868" stroke-width="1"></polyline> <polyline points="535.3602867695611 (363.2088888888889), 534.3608747176944 (359.95964444444445), 533.2711508644996 (356.7104), 532.1147272428124 (353.46115555555554), 530.9215254183564 (350.21191111111114), 529.7257513207935 (346.9626666666667), 528.5629952397809 (343.7134222222222), 527.4666870469861 (340.46417777777776), 526.4642799259412 (337.2149333333333), 525.5736456654804 (333.9656888888889), 524.8002151268574 (330.71644444444445), 524.1353694959976 (327.4672), 523.5564735080671 (324.21795555555553), 523.0287479829749 (320.9687111111111), 522.508928387272 (317.7194666666667), 521.9503846425376 (314.4702222222222), 521.3091287876592 (311.22097777777776), 520.5499554603147 (307.9717333333333), 519.6518816970168 (304.72248888888885), 518.6120983114637 (301.47324444444445), 517.4478161401671 (298.22399999999993), 516.1956663575221 (294.97475555555553), 514.9086554300708 (291.72551111111113), 513.6510295144956 (288.4762666666666), 512.4917129666538 (285.2270222222222), 511.49719901615623 (281.97777777777776), 510.7248500492027 (278.7285333333333), 510.21749477373334 (275.47928888888885), 510.0 (272.2300444444444), 510.0781808934524 (268.9808), 510.4400494405311 (265.73155555555553), 511.05904977747014 (262.4823111111111), 511.89865127251414 (259.2330666666666), 512.9175113558681 (255.98382222222222), 514.0744020080746 (252.73457777777776), 515.3322111716797 (249.4853333333333), 516.6605526374361 (246.23608888888884), 518.0367970360626 (242.9868444444444), 519.4456175253508 (239.7376), 520.8773764290804 (236.48835555555553), 522.3258275275474 (233.23911111111107), 523.7856567507206 (229.98986666666664), 525.250336047497 (226.74062222222219), 526.7106425618053 (223.49137777777773), 528.1540298536157 (220.2421333333333), 529.5648646819266 (216.99288888888884), 530.9253928371143 (213.74364444444439), 532.2171927792882 (210.49439999999998), 533.422827107482 (207.24515555555553), 534.5274084545647 (203.99591111111107), 535.5198482221892 (200.74666666666664), 544.4801517778108 (200.74666666666664), 545.4725915454353 (203.99591111111107), 546.577172892518 (207.24515555555553), 547.7828072207118 (210.49439999999998), 549.0746071628857 (213.74364444444439), 550.4351353180734 (216.99288888888884), 551.8459701463843 (220.2421333333333), 553.2893574381947 (223.49137777777773), 554.749663952503 (226.74062222222219), 556.2143432492794 (229.98986666666664), 557.6741724724526 (233.23911111111107), 559.1226235709196 (236.48835555555553), 560.5543824746492 (239.7376), 561.9632029639374 (242.9868444444444), 563.3394473625639 (246.23608888888884), 564.6677888283203 (249.4853333333333), 565.9255979919254 (252.73457777777776), 567.0824886441319 (255.98382222222222), 568.1013487274859 (259.2330666666666), 568.9409502225299 (262.4823111111111), 569.5599505594689 (265.73155555555553), 569.9218191065477 (268.9808), 570.0 (272.2300444444444), 569.7825052262666 (275.47928888888885), 569.2751499507973 (278.7285333333333), 568.5028009838438 (281.97777777777776), 567.5082870333462 (285.2270222222222), 566.3489704855044 (288.4762666666666), 565.0913445699292 (291.72551111111113), 563.8043336424779 (294.97475555555553), 562.5521838598329 (298.22399999999993), 561.3879016885363 (301.47324444444445), 560.3481183029832 (304.72248888888885), 559.4500445396853 (307.9717333333333), 558.6908712123408 (311.22097777777776), 558.0496153574624 (314.4702222222222), 557.491071612728 (317.7194666666667), 556.9712520170251 (320.9687111111111), 556.4435264919329 (324.21795555555553), 555.8646305040024 (327.4672), 555.1997848731426 (330.71644444444445), 554.4263543345196 (333.9656888888889), 553.5357200740588 (337.2149333333333), 552.5333129530139 (340.46417777777776), 551.4370047602191 (343.7134222222222), 550.2742486792065 (346.9626666666667), 549.0784745816436 (350.21191111111114), 547.8852727571876 (353.46115555555554), 546.7288491355004 (356.7104), 545.6391252823056 (359.95964444444445), 544.6397132304389 (363.2088888888889)" stroke="#4c72b0" fill-opacity="0.4" fill="#4c72b0" stroke-width="1"><title>:day: Fri
:tip: 3.0
:time: Dinner</title> points="535.3602867695611 (363.2088888888889), 534.3608747176944 (359.95964444444445), 533.2711508644996 (356.7104), 532.1147272428124 (353.46115555555554), 530.9215254183564 (350.21191111111114), 529.7257513207935 (346.9626666666667), 528.5629952397809 (343.7134222222222), 527.4666870469861 (340.46417777777776), 526.4642799259412 (337.2149333333333), 525.5736456654804 (333.9656888888889), 524.8002151268574 (330.71644444444445), 524.1353694959976 (327.4672), 523.5564735080671 (324.21795555555553), 523.0287479829749 (320.9687111111111), 522.508928387272 (317.7194666666667), 521.9503846425376 (314.4702222222222), 521.3091287876592 (311.22097777777776), 520.5499554603147 (307.9717333333333), 519.6518816970168 (304.72248888888885), 518.6120983114637 (301.47324444444445), 517.4478161401671 (298.22399999999993), 516.1956663575221 (294.97475555555553), 514.9086554300708 (291.72551111111113), 513.6510295144956 (288.4762666666666), 512.4917129666538 (285.2270222222222), 511.49719901615623 (281.97777777777776), 510.7248500492027 (278.7285333333333), 510.21749477373334 (275.47928888888885), 510.0 (272.2300444444444), 510.0781808934524 (268.9808), 510.4400494405311 (265.73155555555553), 511.05904977747014 (262.4823111111111), 511.89865127251414 (259.2330666666666), 512.9175113558681 (255.98382222222222), 514.0744020080746 (252.73457777777776), 515.3322111716797 (249.4853333333333), 516.6605526374361 (246.23608888888884), 518.0367970360626 (242.9868444444444), 519.4456175253508 (239.7376), 520.8773764290804 (236.48835555555553), 522.3258275275474 (233.23911111111107), 523.7856567507206 (229.98986666666664), 525.250336047497 (226.74062222222219), 526.7106425618053 (223.49137777777773), 528.1540298536157 (220.2421333333333), 529.5648646819266 (216.99288888888884), 530.9253928371143 (213.74364444444439), 532.2171927792882 (210.49439999999998), 533.422827107482 (207.24515555555553), 534.5274084545647 (203.99591111111107), 535.5198482221892 (200.74666666666664), 544.4801517778108 (200.74666666666664), 545.4725915454353 (203.99591111111107), 546.577172892518 (207.24515555555553), 547.7828072207118 (210.49439999999998), 549.0746071628857 (213.74364444444439), 550.4351353180734 (216.99288888888884), 551.8459701463843 (220.2421333333333), 553.2893574381947 (223.49137777777773), 554.749663952503 (226.74062222222219), 556.2143432492794 (229.98986666666664), 557.6741724724526 (233.23911111111107), 559.1226235709196 (236.48835555555553), 560.5543824746492 (239.7376), 561.9632029639374 (242.9868444444444), 563.3394473625639 (246.23608888888884), 564.6677888283203 (249.4853333333333), 565.9255979919254 (252.73457777777776), 567.0824886441319 (255.98382222222222), 568.1013487274859 (259.2330666666666), 568.9409502225299 (262.4823111111111), 569.5599505594689 (265.73155555555553), 569.9218191065477 (268.9808), 570.0 (272.2300444444444), 569.7825052262666 (275.47928888888885), 569.2751499507973 (278.7285333333333), 568.5028009838438 (281.97777777777776), 567.5082870333462 (285.2270222222222), 566.3489704855044 (288.4762666666666), 565.0913445699292 (291.72551111111113), 563.8043336424779 (294.97475555555553), 562.5521838598329 (298.22399999999993), 561.3879016885363 (301.47324444444445), 560.3481183029832 (304.72248888888885), 559.4500445396853 (307.9717333333333), 558.6908712123408 (311.22097777777776), 558.0496153574624 (314.4702222222222), 557.491071612728 (317.7194666666667), 556.9712520170251 (320.9687111111111), 556.4435264919329 (324.21795555555553), 555.8646305040024 (327.4672), 555.1997848731426 (330.71644444444445), 554.4263543345196 (333.9656888888889), 553.5357200740588 (337.2149333333333), 552.5333129530139 (340.46417777777776), 551.4370047602191 (343.7134222222222), 550.2742486792065 (346.9626666666667), 549.0784745816436 (350.21191111111114), 547.8852727571876 (353.46115555555554), 546.7288491355004 (356.7104), 545.6391252823056 (359.95964444444445), 544.6397132304389 (363.2088888888889)" drake-tooltip=":day: Fri
:tip: 3.0
:time: Dinner" stroke="#4c72b0" fill-opacity="0.4" fill="#4c72b0" stroke-width="1"></polyline> <polyline points="530.8568281456379 (333.77777777777777), 529.421986149189 (332.12266666666665), 527.8868911779028 (330.4675555555556), 526.2684615447675 (328.81244444444445), 524.5879289154506 (327.1573333333333), 522.8704652667744 (325.5022222222222), 521.1445832751805 (323.84711111111113), 519.4413196002341 (322.192), 517.7932246269115 (320.5368888888889), 516.233196556028 (318.88177777777776), 514.7932113280193 (317.2266666666667), 513.5030115921782 (315.57155555555556), 512.3888265465329 (313.91644444444444), 511.47219875720356 (312.2613333333333), 510.76899301248295 (310.6062222222222), 510.28865526847414 (308.9511111111111), 510.0337767590568 (307.296), 510.0 (305.64088888888887), 510.17628101418586 (303.9857777777778), 510.54549750986155 (302.3306666666667), 511.0853681907978 (300.67555555555555), 511.76962619604296 (299.0204444444444), 512.5693719875458 (297.3653333333333), 513.4545194844695 (295.7102222222222), 514.3952448651401 (294.0551111111111), 515.363350418228 (292.4), 516.333465537673 (290.7448888888889), 517.284022156813 (289.0897777777778), 518.1979608531623 (287.43466666666666), 519.0631445265747 (285.7795555555556), 519.8724769732233 (284.1244444444444), 520.6237421122751 (282.46933333333334), 521.3191947799744 (280.8142222222222), 521.9649451502304 (279.1591111111111), 522.5701858102378 (277.504), 523.1463136566978 (275.8488888888889), 523.7059987802173 (274.19377777777777), 524.2622502268641 (272.5386666666667), 524.8275247718112 (270.8835555555556), 525.4129201955114 (269.22844444444445), 526.0274892851863 (267.5733333333333), 526.6777048418437 (265.9182222222222), 527.3670990799362 (264.26311111111113), 528.0960926315562 (262.608), 528.8620187191526 (260.9528888888889), 529.6593370633402 (259.2977777777778), 530.4800202815568 (257.6426666666666), 531.314083851266 (255.98755555555556), 532.1502203872211 (254.33244444444443), 532.9764913232347 (252.6773333333333), 533.7810252275087 (251.02222222222224), 546.2189747724913 (251.02222222222224), 547.0235086767653 (252.6773333333333), 547.8497796127789 (254.33244444444443), 548.685916148734 (255.98755555555556), 549.5199797184432 (257.6426666666666), 550.3406629366598 (259.2977777777778), 551.1379812808474 (260.9528888888889), 551.9039073684438 (262.608), 552.6329009200638 (264.26311111111113), 553.3222951581563 (265.9182222222222), 553.9725107148137 (267.5733333333333), 554.5870798044886 (269.22844444444445), 555.1724752281888 (270.8835555555556), 555.7377497731359 (272.5386666666667), 556.2940012197827 (274.19377777777777), 556.8536863433022 (275.8488888888889), 557.4298141897622 (277.504), 558.0350548497696 (279.1591111111111), 558.6808052200256 (280.8142222222222), 559.3762578877249 (282.46933333333334), 560.1275230267767 (284.1244444444444), 560.9368554734253 (285.7795555555556), 561.8020391468377 (287.43466666666666), 562.715977843187 (289.0897777777778), 563.666534462327 (290.7448888888889), 564.636649581772 (292.4), 565.6047551348599 (294.0551111111111), 566.5454805155305 (295.7102222222222), 567.4306280124542 (297.3653333333333), 568.230373803957 (299.0204444444444), 568.9146318092022 (300.67555555555555), 569.4545024901385 (302.3306666666667), 569.8237189858141 (303.9857777777778), 570.0 (305.64088888888887), 569.9662232409432 (307.296), 569.7113447315259 (308.9511111111111), 569.231006987517 (310.6062222222222), 568.5278012427965 (312.2613333333333), 567.6111734534671 (313.91644444444444), 566.4969884078218 (315.57155555555556), 565.2067886719807 (317.2266666666667), 563.766803443972 (318.88177777777776), 562.2067753730885 (320.5368888888889), 560.5586803997659 (322.192), 558.8554167248195 (323.84711111111113), 557.1295347332256 (325.5022222222222), 555.4120710845494 (327.1573333333333), 553.7315384552325 (328.81244444444445), 552.1131088220972 (330.4675555555556), 550.578013850811 (332.12266666666665), 549.1431718543621 (333.77777777777777)" stroke="#55a868" fill-opacity="0.4" fill="#55a868" stroke-width="1"><title>:day: Fri
:tip: 2.2
:time: Lunch</title> points="530.8568281456379 (333.77777777777777), 529.421986149189 (332.12266666666665), 527.8868911779028 (330.4675555555556), 526.2684615447675 (328.81244444444445), 524.5879289154506 (327.1573333333333), 522.8704652667744 (325.5022222222222), 521.1445832751805 (323.84711111111113), 519.4413196002341 (322.192), 517.7932246269115 (320.5368888888889), 516.233196556028 (318.88177777777776), 514.7932113280193 (317.2266666666667), 513.5030115921782 (315.57155555555556), 512.3888265465329 (313.91644444444444), 511.47219875720356 (312.2613333333333), 510.76899301248295 (310.6062222222222), 510.28865526847414 (308.9511111111111), 510.0337767590568 (307.296), 510.0 (305.64088888888887), 510.17628101418586 (303.9857777777778), 510.54549750986155 (302.3306666666667), 511.0853681907978 (300.67555555555555), 511.76962619604296 (299.0204444444444), 512.5693719875458 (297.3653333333333), 513.4545194844695 (295.7102222222222), 514.3952448651401 (294.0551111111111), 515.363350418228 (292.4), 516.333465537673 (290.7448888888889), 517.284022156813 (289.0897777777778), 518.1979608531623 (287.43466666666666), 519.0631445265747 (285.7795555555556), 519.8724769732233 (284.1244444444444), 520.6237421122751 (282.46933333333334), 521.3191947799744 (280.8142222222222), 521.9649451502304 (279.1591111111111), 522.5701858102378 (277.504), 523.1463136566978 (275.8488888888889), 523.7059987802173 (274.19377777777777), 524.2622502268641 (272.5386666666667), 524.8275247718112 (270.8835555555556), 525.4129201955114 (269.22844444444445), 526.0274892851863 (267.5733333333333), 526.6777048418437 (265.9182222222222), 527.3670990799362 (264.26311111111113), 528.0960926315562 (262.608), 528.8620187191526 (260.9528888888889), 529.6593370633402 (259.2977777777778), 530.4800202815568 (257.6426666666666), 531.314083851266 (255.98755555555556), 532.1502203872211 (254.33244444444443), 532.9764913232347 (252.6773333333333), 533.7810252275087 (251.02222222222224), 546.2189747724913 (251.02222222222224), 547.0235086767653 (252.6773333333333), 547.8497796127789 (254.33244444444443), 548.685916148734 (255.98755555555556), 549.5199797184432 (257.6426666666666), 550.3406629366598 (259.2977777777778), 551.1379812808474 (260.9528888888889), 551.9039073684438 (262.608), 552.6329009200638 (264.26311111111113), 553.3222951581563 (265.9182222222222), 553.9725107148137 (267.5733333333333), 554.5870798044886 (269.22844444444445), 555.1724752281888 (270.8835555555556), 555.7377497731359 (272.5386666666667), 556.2940012197827 (274.19377777777777), 556.8536863433022 (275.8488888888889), 557.4298141897622 (277.504), 558.0350548497696 (279.1591111111111), 558.6808052200256 (280.8142222222222), 559.3762578877249 (282.46933333333334), 560.1275230267767 (284.1244444444444), 560.9368554734253 (285.7795555555556), 561.8020391468377 (287.43466666666666), 562.715977843187 (289.0897777777778), 563.666534462327 (290.7448888888889), 564.636649581772 (292.4), 565.6047551348599 (294.0551111111111), 566.5454805155305 (295.7102222222222), 567.4306280124542 (297.3653333333333), 568.230373803957 (299.0204444444444), 568.9146318092022 (300.67555555555555), 569.4545024901385 (302.3306666666667), 569.8237189858141 (303.9857777777778), 570.0 (305.64088888888887), 569.9662232409432 (307.296), 569.7113447315259 (308.9511111111111), 569.231006987517 (310.6062222222222), 568.5278012427965 (312.2613333333333), 567.6111734534671 (313.91644444444444), 566.4969884078218 (315.57155555555556), 565.2067886719807 (317.2266666666667), 563.766803443972 (318.88177777777776), 562.2067753730885 (320.5368888888889), 560.5586803997659 (322.192), 558.8554167248195 (323.84711111111113), 557.1295347332256 (325.5022222222222), 555.4120710845494 (327.1573333333333), 553.7315384552325 (328.81244444444445), 552.1131088220972 (330.4675555555556), 550.578013850811 (332.12266666666665), 549.1431718543621 (333.77777777777777)" drake-tooltip=":day: Fri
:tip: 2.2
:time: Lunch" stroke="#55a868" fill-opacity="0.4" fill="#55a868" stroke-width="1"></polyline> <polyline points="350.0 (277.77777777777777), 350.0 (277.77777777777777), 350.0 (277.77777777777777), 350.0 (277.77777777777777), 350.0 (277.77777777777777), 350.0 (277.77777777777777), 350.0 (277.77777777777777), 350.0 (277.77777777777777), 350.0 (277.77777777777777), 350.0 (277.77777777777777), 350.0 (277.77777777777777), 350.0 (277.77777777777777), 350.0 (277.77777777777777), 350.0 (277.77777777777777), 350.0 (277.77777777777777), 350.0 (277.77777777777777), 350.0 (277.77777777777777), 350.0 (277.77777777777777), 350.0 (277.77777777777777), 350.0 (277.77777777777777), 350.0 (277.77777777777777), 350.0 (277.77777777777777), 350.0 (277.77777777777777), 350.0 (277.77777777777777), 350.0 (277.77777777777777), 350.0 (277.77777777777777), 350.0 (277.77777777777777), 350.0 (277.77777777777777), 350.0 (277.77777777777777), 350.0 (277.77777777777777), 350.0 (277.77777777777777), 350.0 (277.77777777777777), 350.0 (277.77777777777777), 350.0 (277.77777777777777), 350.0 (277.77777777777777), 350.0 (277.77777777777777), 350.0 (277.77777777777777), 350.0 (277.77777777777777), 350.0 (277.77777777777777), 350.0 (277.77777777777777), 350.0 (277.77777777777777), 350.0 (277.77777777777777), 350.0 (277.77777777777777), 350.0 (277.77777777777777), 350.0 (277.77777777777777), 350.0 (277.77777777777777), 350.0 (277.77777777777777), 350.0 (277.77777777777777), 350.0 (277.77777777777777), 350.0 (277.77777777777777), 350.0 (277.77777777777777), 410.0 (277.77777777777777), 410.0 (277.77777777777777), 410.0 (277.77777777777777), 410.0 (277.77777777777777), 410.0 (277.77777777777777), 410.0 (277.77777777777777), 410.0 (277.77777777777777), 410.0 (277.77777777777777), 410.0 (277.77777777777777), 410.0 (277.77777777777777), 410.0 (277.77777777777777), 410.0 (277.77777777777777), 410.0 (277.77777777777777), 410.0 (277.77777777777777), 410.0 (277.77777777777777), 410.0 (277.77777777777777), 410.0 (277.77777777777777), 410.0 (277.77777777777777), 410.0 (277.77777777777777), 410.0 (277.77777777777777), 410.0 (277.77777777777777), 410.0 (277.77777777777777), 410.0 (277.77777777777777), 410.0 (277.77777777777777), 410.0 (277.77777777777777), 410.0 (277.77777777777777), 410.0 (277.77777777777777), 410.0 (277.77777777777777), 410.0 (277.77777777777777), 410.0 (277.77777777777777), 410.0 (277.77777777777777), 410.0 (277.77777777777777), 410.0 (277.77777777777777), 410.0 (277.77777777777777), 410.0 (277.77777777777777), 410.0 (277.77777777777777), 410.0 (277.77777777777777), 410.0 (277.77777777777777), 410.0 (277.77777777777777), 410.0 (277.77777777777777), 410.0 (277.77777777777777), 410.0 (277.77777777777777), 410.0 (277.77777777777777), 410.0 (277.77777777777777), 410.0 (277.77777777777777), 410.0 (277.77777777777777), 410.0 (277.77777777777777), 410.0 (277.77777777777777), 410.0 (277.77777777777777), 410.0 (277.77777777777777), 410.0 (277.77777777777777)" stroke="#4c72b0" fill-opacity="0.4" fill="#4c72b0" stroke-width="1"><title>:day: Thur
:tip: 3.0
:time: Dinner</title> points="350.0 (277.77777777777777), 350.0 (277.77777777777777), 350.0 (277.77777777777777), 350.0 (277.77777777777777), 350.0 (277.77777777777777), 350.0 (277.77777777777777), 350.0 (277.77777777777777), 350.0 (277.77777777777777), 350.0 (277.77777777777777), 350.0 (277.77777777777777), 350.0 (277.77777777777777), 350.0 (277.77777777777777), 350.0 (277.77777777777777), 350.0 (277.77777777777777), 350.0 (277.77777777777777), 350.0 (277.77777777777777), 350.0 (277.77777777777777), 350.0 (277.77777777777777), 350.0 (277.77777777777777), 350.0 (277.77777777777777), 350.0 (277.77777777777777), 350.0 (277.77777777777777), 350.0 (277.77777777777777), 350.0 (277.77777777777777), 350.0 (277.77777777777777), 350.0 (277.77777777777777), 350.0 (277.77777777777777), 350.0 (277.77777777777777), 350.0 (277.77777777777777), 350.0 (277.77777777777777), 350.0 (277.77777777777777), 350.0 (277.77777777777777), 350.0 (277.77777777777777), 350.0 (277.77777777777777), 350.0 (277.77777777777777), 350.0 (277.77777777777777), 350.0 (277.77777777777777), 350.0 (277.77777777777777), 350.0 (277.77777777777777), 350.0 (277.77777777777777), 350.0 (277.77777777777777), 350.0 (277.77777777777777), 350.0 (277.77777777777777), 350.0 (277.77777777777777), 350.0 (277.77777777777777), 350.0 (277.77777777777777), 350.0 (277.77777777777777), 350.0 (277.77777777777777), 350.0 (277.77777777777777), 350.0 (277.77777777777777), 350.0 (277.77777777777777), 410.0 (277.77777777777777), 410.0 (277.77777777777777), 410.0 (277.77777777777777), 410.0 (277.77777777777777), 410.0 (277.77777777777777), 410.0 (277.77777777777777), 410.0 (277.77777777777777), 410.0 (277.77777777777777), 410.0 (277.77777777777777), 410.0 (277.77777777777777), 410.0 (277.77777777777777), 410.0 (277.77777777777777), 410.0 (277.77777777777777), 410.0 (277.77777777777777), 410.0 (277.77777777777777), 410.0 (277.77777777777777), 410.0 (277.77777777777777), 410.0 (277.77777777777777), 410.0 (277.77777777777777), 410.0 (277.77777777777777), 410.0 (277.77777777777777), 410.0 (277.77777777777777), 410.0 (277.77777777777777), 410.0 (277.77777777777777), 410.0 (277.77777777777777), 410.0 (277.77777777777777), 410.0 (277.77777777777777), 410.0 (277.77777777777777), 410.0 (277.77777777777777), 410.0 (277.77777777777777), 410.0 (277.77777777777777), 410.0 (277.77777777777777), 410.0 (277.77777777777777), 410.0 (277.77777777777777), 410.0 (277.77777777777777), 410.0 (277.77777777777777), 410.0 (277.77777777777777), 410.0 (277.77777777777777), 410.0 (277.77777777777777), 410.0 (277.77777777777777), 410.0 (277.77777777777777), 410.0 (277.77777777777777), 410.0 (277.77777777777777), 410.0 (277.77777777777777), 410.0 (277.77777777777777), 410.0 (277.77777777777777), 410.0 (277.77777777777777), 410.0 (277.77777777777777), 410.0 (277.77777777777777), 410.0 (277.77777777777777), 410.0 (277.77777777777777)" drake-tooltip=":day: Thur
:tip: 3.0
:time: Dinner" stroke="#4c72b0" fill-opacity="0.4" fill="#4c72b0" stroke-width="1"></polyline> <rect width="100" height="40" x="430" y="70" stroke="#cccccc" fill-opacity="0.9" fill="#ffffff"></rect> <circle cx="440" cy="80" r="5" fill="#4c72b0"></circle> <text fill="#000000" font-size="10px" y="85" x="450"> Dinner</text> <circle cx="440" cy="100" r="5" fill="#55a868"></circle> <text fill="#000000" font-size="10px" y="105" x="450"> Lunch</text> <text font-weight="bold" fill="#000000" font-size="16px" text-anchor="middle" y="30" x="300"> Tip Distribution by Day and Time</text></svg>