<svg width="600" height="400" version="1.1" xmlns="http://www.w3.org/2000/svg" xmlns:xlink="http://www.w3.org/1999/xlink"> <rect width="600" height="400" x="0" y="0" fill="#ffffff"></rect> <line x1="60" x2="540" y1="340.0" y2="340.0" stroke-dasharray="none" stroke="#eeeeee" stroke-width="1"></line> <line x1="55" x2="60" y1="340.0" y2="340.0" stroke="#000000" stroke-width="1"></line> <text fill="#000000" font-size="10px" text-anchor="end" y="344.0" x="50"> -0.8</text> <line x1="60" x2="540" y1="284.0" y2="284.0" stroke-dasharray="none" stroke="#eeeeee" stroke-width="1"></line> <line x1="55" x2="60" y1="284.0" y2="284.0" stroke="#000000" stroke-width="1"></line> <text fill="#000000" font-size="10px" text-anchor="end" y="288.0" x="50"> 1.7</text> <line x1="60" x2="540" y1="228.0" y2="228.0" stroke-dasharray="none" stroke="#eeeeee" stroke-width="1"></line> <line x1="55" x2="60" y1="228.0" y2="228.0" stroke="#000000" stroke-width="1"></line> <text fill="#000000" font-size="10px" text-anchor="end" y="232.0" x="50"> 4.2</text> <line x1="60" x2="540" y1="172.0" y2="172.0" stroke-dasharray="none" stroke="#eeeeee" stroke-width="1"></line> <line x1="55" x2="60" y1="172.0" y2="172.0" stroke="#000000" stroke-width="1"></line> <text fill="#000000" font-size="10px" text-anchor="end" y="176.0" x="50"> 6.8</text> <line x1="60" x2="540" y1="116.0" y2="116.0" stroke-dasharray="none" stroke="#eeeeee" stroke-width="1"></line> <line x1="55" x2="60" y1="116.0" y2="116.0" stroke="#000000" stroke-width="1"></line> <text fill="#000000" font-size="10px" text-anchor="end" y="120.0" x="50"> 9.3</text> <line x1="60" x2="540" y1="60.0" y2="60.0" stroke-dasharray="none" stroke="#eeeeee" stroke-width="1"></line> <line x1="55" x2="60" y1="60.0" y2="60.0" stroke="#000000" stroke-width="1"></line> <text fill="#000000" font-size="10px" text-anchor="end" y="64.0" x="50"> 11.8</text> <line x1="60.0" x2="60.0" y1="60" y2="340" stroke-dasharray="none" stroke="#eeeeee" stroke-width="1"></line> <text fill="#000000" font-size="10px" text-anchor="middle" y="360" x="60.0"> Thur</text> <line x1="220.0" x2="220.0" y1="60" y2="340" stroke-dasharray="none" stroke="#eeeeee" stroke-width="1"></line> <text fill="#000000" font-size="10px" text-anchor="middle" y="360" x="220.0"> Fri</text> <line x1="380.0" x2="380.0" y1="60" y2="340" stroke-dasharray="none" stroke="#eeeeee" stroke-width="1"></line> <text fill="#000000" font-size="10px" text-anchor="middle" y="360" x="380.0"> Sat</text> <line x1="540.0" x2="540.0" y1="60" y2="340" stroke-dasharray="none" stroke="#eeeeee" stroke-width="1"></line> <text fill="#000000" font-size="10px" text-anchor="middle" y="360" x="540.0"> Sun</text> <line x1="60" x2="60" y1="60" y2="340" stroke="#000000" stroke-width="1"></line> <line x1="60" x2="540" y1="340" y2="340" stroke="#000000" stroke-width="1"></line> <text fill="#000000" font-size="12px" text-anchor="middle" y="380" x="300"> :day</text> <text transform="rotate(-90 10 200)" fill="#000000" font-size="12px" text-anchor="middle" y="200" x="10"> :tip</text> <polyline points="59.34993537593748,318.6666666666667 58.7646678198513,315.27555555555557 57.798730878460496,311.88444444444445 56.31580962041745,308.49333333333334 54.19841642743082,305.1022222222222 51.38900053537704,301.7111111111111 47.932645171861594,298.32 44.0069022519093,294.9288888888889 39.923542329652946,291.5377777777778 36.092073833060454,288.14666666666665 32.94598895938289,284.7555555555556 30.847556078759766,281.3644444444444 30.0,277.97333333333336 30.399232551563973,274.58222222222224 31.84542279342991,271.1911111111111 34.01037677836055,267.8 36.53215710432485,264.4088888888889 39.09836914614577,261.0177777777778 41.49043626234172,257.62666666666667 43.585402769068,254.23555555555558 45.33311443244787,250.84444444444446 46.732163680501095,247.45333333333338 47.81715859762619,244.06222222222223 48.65357793246603,240.67111111111114 49.328070012029066,237.27999999999997 49.92732938131011,233.88888888888889 50.51200035710864,230.4977777777778 51.10120613563403,227.10666666666668 51.679472959164286,223.71555555555557 52.22302151623292,220.32444444444445 52.728164356965266,216.93333333333334 53.22251801862088,213.54222222222222 53.75187801532024,210.1511111111111 54.352557074615866,206.76000000000002 55.028004844037035,203.3688888888889 55.74387370577051,199.9777777777778 56.44245639698819,196.58666666666667 57.06609845510479,193.19555555555556 57.5767722589319,189.80444444444447 57.96452760723872,186.41333333333333 58.24493812044565,183.02222222222224 58.449851630910956,179.6311111111111 58.61600368340752,176.24 58.77467012453066,172.8488888888889 58.944504149775014,169.4577777777778 59.12906365682256,166.06666666666666 59.31938700361627,162.67555555555558 59.5001958707293,159.28444444444446 59.65689806728279,155.89333333333332 59.780573977643535,152.5022222222222 59.86955405932182,149.11111111111111 60.13044594067818,149.11111111111111 60.219426022356465,152.5022222222222 60.34310193271721,155.89333333333332 60.4998041292707,159.28444444444446 60.68061299638373,162.67555555555558 60.87093634317744,166.06666666666666 61.055495850224986,169.4577777777778 61.22532987546934,172.8488888888889 61.38399631659248,176.24 61.550148369089044,179.6311111111111 61.75506187955435,183.02222222222224 62.03547239276128,186.41333333333333 62.4232277410681,189.80444444444447 62.93390154489521,193.19555555555556 63.55754360301181,196.58666666666667 64.25612629422949,199.9777777777778 64.97199515596297,203.3688888888889 65.64744292538413,206.76000000000002 66.24812198467977,210.1511111111111 66.77748198137911,213.54222222222222 67.27183564303473,216.93333333333334 67.77697848376708,220.32444444444445 68.32052704083571,223.71555555555557 68.89879386436597,227.10666666666668 69.48799964289137,230.4977777777778 70.0726706186899,233.88888888888889 70.67192998797093,237.27999999999997 71.34642206753398,240.67111111111114 72.18284140237381,244.06222222222223 73.2678363194989,247.45333333333338 74.66688556755213,250.84444444444446 76.414597230932,254.23555555555558 78.50956373765828,257.62666666666667 80.90163085385423,261.0177777777778 83.46784289567515,264.4088888888889 85.98962322163945,267.8 88.15457720657008,271.1911111111111 89.60076744843603,274.58222222222224 90.0,277.97333333333336 89.15244392124023,281.3644444444444 87.05401104061711,284.7555555555556 83.90792616693955,288.14666666666665 80.07645767034705,291.5377777777778 75.9930977480907,294.9288888888889 72.0673548281384,298.32 68.61099946462295,301.7111111111111 65.80158357256919,305.1022222222222 63.68419037958255,308.49333333333334 62.201269121539504,311.88444444444445 61.2353321801487,315.27555555555557 60.65006462406252,318.6666666666667" stroke="#4c72b0" fill="#4c72b0" fill-opacity="0.4" stroke-width="1"><title>:day: Thur
:tip: 2.3
:time: Lunch</title> points="59.34993537593748,318.6666666666667 58.7646678198513,315.27555555555557 57.798730878460496,311.88444444444445 56.31580962041745,308.49333333333334 54.19841642743082,305.1022222222222 51.38900053537704,301.7111111111111 47.932645171861594,298.32 44.0069022519093,294.9288888888889 39.923542329652946,291.5377777777778 36.092073833060454,288.14666666666665 32.94598895938289,284.7555555555556 30.847556078759766,281.3644444444444 30.0,277.97333333333336 30.399232551563973,274.58222222222224 31.84542279342991,271.1911111111111 34.01037677836055,267.8 36.53215710432485,264.4088888888889 39.09836914614577,261.0177777777778 41.49043626234172,257.62666666666667 43.585402769068,254.23555555555558 45.33311443244787,250.84444444444446 46.732163680501095,247.45333333333338 47.81715859762619,244.06222222222223 48.65357793246603,240.67111111111114 49.328070012029066,237.27999999999997 49.92732938131011,233.88888888888889 50.51200035710864,230.4977777777778 51.10120613563403,227.10666666666668 51.679472959164286,223.71555555555557 52.22302151623292,220.32444444444445 52.728164356965266,216.93333333333334 53.22251801862088,213.54222222222222 53.75187801532024,210.1511111111111 54.352557074615866,206.76000000000002 55.028004844037035,203.3688888888889 55.74387370577051,199.9777777777778 56.44245639698819,196.58666666666667 57.06609845510479,193.19555555555556 57.5767722589319,189.80444444444447 57.96452760723872,186.41333333333333 58.24493812044565,183.02222222222224 58.449851630910956,179.6311111111111 58.61600368340752,176.24 58.77467012453066,172.8488888888889 58.944504149775014,169.4577777777778 59.12906365682256,166.06666666666666 59.31938700361627,162.67555555555558 59.5001958707293,159.28444444444446 59.65689806728279,155.89333333333332 59.780573977643535,152.5022222222222 59.86955405932182,149.11111111111111 60.13044594067818,149.11111111111111 60.219426022356465,152.5022222222222 60.34310193271721,155.89333333333332 60.4998041292707,159.28444444444446 60.68061299638373,162.67555555555558 60.87093634317744,166.06666666666666 61.055495850224986,169.4577777777778 61.22532987546934,172.8488888888889 61.38399631659248,176.24 61.550148369089044,179.6311111111111 61.75506187955435,183.02222222222224 62.03547239276128,186.41333333333333 62.4232277410681,189.80444444444447 62.93390154489521,193.19555555555556 63.55754360301181,196.58666666666667 64.25612629422949,199.9777777777778 64.97199515596297,203.3688888888889 65.64744292538413,206.76000000000002 66.24812198467977,210.1511111111111 66.77748198137911,213.54222222222222 67.27183564303473,216.93333333333334 67.77697848376708,220.32444444444445 68.32052704083571,223.71555555555557 68.89879386436597,227.10666666666668 69.48799964289137,230.4977777777778 70.0726706186899,233.88888888888889 70.67192998797093,237.27999999999997 71.34642206753398,240.67111111111114 72.18284140237381,244.06222222222223 73.2678363194989,247.45333333333338 74.66688556755213,250.84444444444446 76.414597230932,254.23555555555558 78.50956373765828,257.62666666666667 80.90163085385423,261.0177777777778 83.46784289567515,264.4088888888889 85.98962322163945,267.8 88.15457720657008,271.1911111111111 89.60076744843603,274.58222222222224 90.0,277.97333333333336 89.15244392124023,281.3644444444444 87.05401104061711,284.7555555555556 83.90792616693955,288.14666666666665 80.07645767034705,291.5377777777778 75.9930977480907,294.9288888888889 72.0673548281384,298.32 68.61099946462295,301.7111111111111 65.80158357256919,305.1022222222222 63.68419037958255,308.49333333333334 62.201269121539504,311.88444444444445 61.2353321801487,315.27555555555557 60.65006462406252,318.6666666666667" stroke="#4c72b0" fill="#4c72b0" fill-opacity="0.4" stroke-width="1" drake-tooltip=":day: Thur
:tip: 2.3
:time: Lunch"></polyline> <line x1="30.0" x2="90.0" y1="271.1111111111111" y2="271.1111111111111" stroke="black" stroke-width="2"></line> <polyline points="30.0,255.55555555555554 30.0,255.55555555555554 30.0,255.55555555555554 30.0,255.55555555555554 30.0,255.55555555555554 30.0,255.55555555555554 30.0,255.55555555555554 30.0,255.55555555555554 30.0,255.55555555555554 30.0,255.55555555555554 30.0,255.55555555555554 30.0,255.55555555555554 30.0,255.55555555555554 30.0,255.55555555555554 30.0,255.55555555555554 30.0,255.55555555555554 30.0,255.55555555555554 30.0,255.55555555555554 30.0,255.55555555555554 30.0,255.55555555555554 30.0,255.55555555555554 30.0,255.55555555555554 30.0,255.55555555555554 30.0,255.55555555555554 30.0,255.55555555555554 30.0,255.55555555555554 30.0,255.55555555555554 30.0,255.55555555555554 30.0,255.55555555555554 30.0,255.55555555555554 30.0,255.55555555555554 30.0,255.55555555555554 30.0,255.55555555555554 30.0,255.55555555555554 30.0,255.55555555555554 30.0,255.55555555555554 30.0,255.55555555555554 30.0,255.55555555555554 30.0,255.55555555555554 30.0,255.55555555555554 30.0,255.55555555555554 30.0,255.55555555555554 30.0,255.55555555555554 30.0,255.55555555555554 30.0,255.55555555555554 30.0,255.55555555555554 30.0,255.55555555555554 30.0,255.55555555555554 30.0,255.55555555555554 30.0,255.55555555555554 30.0,255.55555555555554 90.0,255.55555555555554 90.0,255.55555555555554 90.0,255.55555555555554 90.0,255.55555555555554 90.0,255.55555555555554 90.0,255.55555555555554 90.0,255.55555555555554 90.0,255.55555555555554 90.0,255.55555555555554 90.0,255.55555555555554 90.0,255.55555555555554 90.0,255.55555555555554 90.0,255.55555555555554 90.0,255.55555555555554 90.0,255.55555555555554 90.0,255.55555555555554 90.0,255.55555555555554 90.0,255.55555555555554 90.0,255.55555555555554 90.0,255.55555555555554 90.0,255.55555555555554 90.0,255.55555555555554 90.0,255.55555555555554 90.0,255.55555555555554 90.0,255.55555555555554 90.0,255.55555555555554 90.0,255.55555555555554 90.0,255.55555555555554 90.0,255.55555555555554 90.0,255.55555555555554 90.0,255.55555555555554 90.0,255.55555555555554 90.0,255.55555555555554 90.0,255.55555555555554 90.0,255.55555555555554 90.0,255.55555555555554 90.0,255.55555555555554 90.0,255.55555555555554 90.0,255.55555555555554 90.0,255.55555555555554 90.0,255.55555555555554 90.0,255.55555555555554 90.0,255.55555555555554 90.0,255.55555555555554 90.0,255.55555555555554 90.0,255.55555555555554 90.0,255.55555555555554 90.0,255.55555555555554 90.0,255.55555555555554 90.0,255.55555555555554 90.0,255.55555555555554" stroke="#55a868" fill="#55a868" fill-opacity="0.4" stroke-width="1"><title>:day: Thur
:tip: 3.0
:time: Dinner</title> points="30.0,255.55555555555554 30.0,255.55555555555554 30.0,255.55555555555554 30.0,255.55555555555554 30.0,255.55555555555554 30.0,255.55555555555554 30.0,255.55555555555554 30.0,255.55555555555554 30.0,255.55555555555554 30.0,255.55555555555554 30.0,255.55555555555554 30.0,255.55555555555554 30.0,255.55555555555554 30.0,255.55555555555554 30.0,255.55555555555554 30.0,255.55555555555554 30.0,255.55555555555554 30.0,255.55555555555554 30.0,255.55555555555554 30.0,255.55555555555554 30.0,255.55555555555554 30.0,255.55555555555554 30.0,255.55555555555554 30.0,255.55555555555554 30.0,255.55555555555554 30.0,255.55555555555554 30.0,255.55555555555554 30.0,255.55555555555554 30.0,255.55555555555554 30.0,255.55555555555554 30.0,255.55555555555554 30.0,255.55555555555554 30.0,255.55555555555554 30.0,255.55555555555554 30.0,255.55555555555554 30.0,255.55555555555554 30.0,255.55555555555554 30.0,255.55555555555554 30.0,255.55555555555554 30.0,255.55555555555554 30.0,255.55555555555554 30.0,255.55555555555554 30.0,255.55555555555554 30.0,255.55555555555554 30.0,255.55555555555554 30.0,255.55555555555554 30.0,255.55555555555554 30.0,255.55555555555554 30.0,255.55555555555554 30.0,255.55555555555554 30.0,255.55555555555554 90.0,255.55555555555554 90.0,255.55555555555554 90.0,255.55555555555554 90.0,255.55555555555554 90.0,255.55555555555554 90.0,255.55555555555554 90.0,255.55555555555554 90.0,255.55555555555554 90.0,255.55555555555554 90.0,255.55555555555554 90.0,255.55555555555554 90.0,255.55555555555554 90.0,255.55555555555554 90.0,255.55555555555554 90.0,255.55555555555554 90.0,255.55555555555554 90.0,255.55555555555554 90.0,255.55555555555554 90.0,255.55555555555554 90.0,255.55555555555554 90.0,255.55555555555554 90.0,255.55555555555554 90.0,255.55555555555554 90.0,255.55555555555554 90.0,255.55555555555554 90.0,255.55555555555554 90.0,255.55555555555554 90.0,255.55555555555554 90.0,255.55555555555554 90.0,255.55555555555554 90.0,255.55555555555554 90.0,255.55555555555554 90.0,255.55555555555554 90.0,255.55555555555554 90.0,255.55555555555554 90.0,255.55555555555554 90.0,255.55555555555554 90.0,255.55555555555554 90.0,255.55555555555554 90.0,255.55555555555554 90.0,255.55555555555554 90.0,255.55555555555554 90.0,255.55555555555554 90.0,255.55555555555554 90.0,255.55555555555554 90.0,255.55555555555554 90.0,255.55555555555554 90.0,255.55555555555554 90.0,255.55555555555554 90.0,255.55555555555554 90.0,255.55555555555554" stroke="#55a868" fill="#55a868" fill-opacity="0.4" stroke-width="1" drake-tooltip=":day: Thur
:tip: 3.0
:time: Dinner"></polyline> <line x1="30.0" x2="90.0" y1="255.55555555555554" y2="255.55555555555554" stroke="black" stroke-width="2"></line> <polyline points="210.85682814563793,295.55555555555554 209.42198614918902,294.37333333333333 207.88689117790278,293.1911111111111 206.2684615447675,292.0088888888889 204.5879289154506,290.82666666666665 202.87046526677437,289.64444444444445 201.14458327518045,288.4622222222222 199.44131960023412,287.28 197.79322462691152,286.09777777777776 196.233196556028,284.91555555555556 194.79321132801928,283.73333333333335 193.5030115921781,282.55111111111114 192.38882654653287,281.3688888888889 191.47219875720353,280.18666666666667 190.76899301248292,279.0044444444444 190.28865526847414,277.8222222222222 190.03377675905682,276.64 190.0,275.4577777777778 190.17628101418586,274.27555555555557 190.54549750986155,273.09333333333336 191.08536819079777,271.9111111111111 191.76962619604294,270.7288888888889 192.56937198754576,269.5466666666667 193.45451948446953,268.3644444444444 194.39524486514006,267.1822222222222 195.3633504182281,266.0 196.333465537673,264.8177777777778 197.28402215681297,263.6355555555556 198.19796085316227,262.4533333333333 199.0631445265746,261.2711111111111 199.87247697322329,260.08888888888885 200.62374211227507,258.90666666666664 201.31919477997434,257.72444444444443 201.96494515023042,256.5422222222222 202.5701858102379,255.36 203.1463136566978,254.17777777777778 203.70599878021727,252.99555555555554 204.2622502268641,251.81333333333333 204.82752477181128,250.6311111111111 205.4129201955115,249.4488888888889 206.0274892851863,248.26666666666665 206.67770484184365,247.08444444444444 207.3670990799362,245.90222222222224 208.0960926315562,244.72 208.86201871915264,243.5377777777778 209.65933706334022,242.35555555555555 210.48002028155673,241.17333333333332 211.31408385126593,239.9911111111111 212.15022038722105,238.80888888888887 212.9764913232346,237.62666666666667 213.7810252275088,236.44444444444446 226.2189747724912,236.44444444444446 227.0235086767654,237.62666666666667 227.84977961277895,238.80888888888887 228.68591614873407,239.9911111111111 229.51997971844327,241.17333333333332 230.34066293665978,242.35555555555555 231.13798128084736,243.5377777777778 231.9039073684438,244.72 232.6329009200638,245.90222222222224 233.32229515815635,247.08444444444444 233.9725107148137,248.26666666666665 234.5870798044885,249.4488888888889 235.17247522818872,250.6311111111111 235.7377497731359,251.81333333333333 236.29400121978273,252.99555555555554 236.8536863433022,254.17777777777778 237.4298141897621,255.36 238.03505484976958,256.5422222222222 238.68080522002566,257.72444444444443 239.37625788772493,258.90666666666664 240.12752302677671,260.08888888888885 240.9368554734254,261.2711111111111 241.80203914683773,262.4533333333333 242.71597784318703,263.6355555555556 243.666534462327,264.8177777777778 244.6366495817719,266.0 245.60475513485994,267.1822222222222 246.54548051553047,268.3644444444444 247.43062801245424,269.5466666666667 248.23037380395706,270.7288888888889 248.91463180920223,271.9111111111111 249.45450249013845,273.09333333333336 249.82371898581414,274.27555555555557 250.0,275.4577777777778 249.96622324094318,276.64 249.71134473152586,277.8222222222222 249.23100698751708,279.0044444444444 248.52780124279647,280.18666666666667 247.61117345346713,281.3688888888889 246.4969884078219,282.55111111111114 245.20678867198072,283.73333333333335 243.766803443972,284.91555555555556 242.20677537308848,286.09777777777776 240.55868039976588,287.28 238.85541672481955,288.4622222222222 237.12953473322563,289.64444444444445 235.4120710845494,290.82666666666665 233.7315384552325,292.0088888888889 232.11310882209722,293.1911111111111 230.57801385081098,294.37333333333333 229.14317185436207,295.55555555555554" stroke="#4c72b0" fill="#4c72b0" fill-opacity="0.4" stroke-width="1"><title>:day: Fri
:tip: 2.2
:time: Lunch</title> points="210.85682814563793,295.55555555555554 209.42198614918902,294.37333333333333 207.88689117790278,293.1911111111111 206.2684615447675,292.0088888888889 204.5879289154506,290.82666666666665 202.87046526677437,289.64444444444445 201.14458327518045,288.4622222222222 199.44131960023412,287.28 197.79322462691152,286.09777777777776 196.233196556028,284.91555555555556 194.79321132801928,283.73333333333335 193.5030115921781,282.55111111111114 192.38882654653287,281.3688888888889 191.47219875720353,280.18666666666667 190.76899301248292,279.0044444444444 190.28865526847414,277.8222222222222 190.03377675905682,276.64 190.0,275.4577777777778 190.17628101418586,274.27555555555557 190.54549750986155,273.09333333333336 191.08536819079777,271.9111111111111 191.76962619604294,270.7288888888889 192.56937198754576,269.5466666666667 193.45451948446953,268.3644444444444 194.39524486514006,267.1822222222222 195.3633504182281,266.0 196.333465537673,264.8177777777778 197.28402215681297,263.6355555555556 198.19796085316227,262.4533333333333 199.0631445265746,261.2711111111111 199.87247697322329,260.08888888888885 200.62374211227507,258.90666666666664 201.31919477997434,257.72444444444443 201.96494515023042,256.5422222222222 202.5701858102379,255.36 203.1463136566978,254.17777777777778 203.70599878021727,252.99555555555554 204.2622502268641,251.81333333333333 204.82752477181128,250.6311111111111 205.4129201955115,249.4488888888889 206.0274892851863,248.26666666666665 206.67770484184365,247.08444444444444 207.3670990799362,245.90222222222224 208.0960926315562,244.72 208.86201871915264,243.5377777777778 209.65933706334022,242.35555555555555 210.48002028155673,241.17333333333332 211.31408385126593,239.9911111111111 212.15022038722105,238.80888888888887 212.9764913232346,237.62666666666667 213.7810252275088,236.44444444444446 226.2189747724912,236.44444444444446 227.0235086767654,237.62666666666667 227.84977961277895,238.80888888888887 228.68591614873407,239.9911111111111 229.51997971844327,241.17333333333332 230.34066293665978,242.35555555555555 231.13798128084736,243.5377777777778 231.9039073684438,244.72 232.6329009200638,245.90222222222224 233.32229515815635,247.08444444444444 233.9725107148137,248.26666666666665 234.5870798044885,249.4488888888889 235.17247522818872,250.6311111111111 235.7377497731359,251.81333333333333 236.29400121978273,252.99555555555554 236.8536863433022,254.17777777777778 237.4298141897621,255.36 238.03505484976958,256.5422222222222 238.68080522002566,257.72444444444443 239.37625788772493,258.90666666666664 240.12752302677671,260.08888888888885 240.9368554734254,261.2711111111111 241.80203914683773,262.4533333333333 242.71597784318703,263.6355555555556 243.666534462327,264.8177777777778 244.6366495817719,266.0 245.60475513485994,267.1822222222222 246.54548051553047,268.3644444444444 247.43062801245424,269.5466666666667 248.23037380395706,270.7288888888889 248.91463180920223,271.9111111111111 249.45450249013845,273.09333333333336 249.82371898581414,274.27555555555557 250.0,275.4577777777778 249.96622324094318,276.64 249.71134473152586,277.8222222222222 249.23100698751708,279.0044444444444 248.52780124279647,280.18666666666667 247.61117345346713,281.3688888888889 246.4969884078219,282.55111111111114 245.20678867198072,283.73333333333335 243.766803443972,284.91555555555556 242.20677537308848,286.09777777777776 240.55868039976588,287.28 238.85541672481955,288.4622222222222 237.12953473322563,289.64444444444445 235.4120710845494,290.82666666666665 233.7315384552325,292.0088888888889 232.11310882209722,293.1911111111111 230.57801385081098,294.37333333333333 229.14317185436207,295.55555555555554" stroke="#4c72b0" fill="#4c72b0" fill-opacity="0.4" stroke-width="1" drake-tooltip=":day: Fri
:tip: 2.2
:time: Lunch"></polyline> <line x1="190.0" x2="250.0" y1="273.3333333333333" y2="273.3333333333333" stroke="black" stroke-width="2"></line> <polyline points="215.36028676956107,316.5777777777778 214.36087471769434,314.25688888888885 213.27115086449965,311.93600000000004 212.1147272428123,309.6151111111111 210.9215254183564,307.29422222222223 209.7257513207935,304.97333333333336 208.56299523978092,302.6524444444444 207.46668704698604,300.33155555555555 206.4642799259413,298.0106666666667 205.57364566548043,295.68977777777775 204.80021512685744,293.3688888888889 204.1353694959976,291.048 203.55647350806717,288.72711111111107 203.0287479829749,286.4062222222222 202.50892838727208,284.0853333333333 201.95038464253764,281.76444444444445 201.30912878765926,279.4435555555555 200.5499554603147,277.12266666666665 199.65188169701682,274.8017777777778 198.61209831146374,272.4808888888889 197.4478161401671,270.15999999999997 196.1956663575221,267.8391111111111 194.9086554300708,265.5182222222222 193.65102951449555,263.1973333333333 192.4917129666539,260.8764444444444 191.49719901615623,258.55555555555554 190.7248500492027,256.2346666666666 190.21749477373334,253.91377777777777 190.0,251.59288888888887 190.07818089345238,249.27199999999996 190.44004944053108,246.9511111111111 191.05904977747016,244.6302222222222 191.89865127251417,242.3093333333333 192.91751135586816,239.98844444444444 194.07440200807451,237.66755555555554 195.3322111716797,235.34666666666664 196.66055263743613,233.02577777777776 198.03679703606255,230.70488888888886 199.44561752535088,228.384 200.87737642908039,226.06311111111108 202.32582752754737,223.7422222222222 203.78565675072065,221.42133333333334 205.25033604749694,219.1004444444444 206.71064256180532,216.77955555555553 208.1540298536157,214.45866666666666 209.5648646819266,212.13777777777776 210.92539283711432,209.81688888888885 212.2171927792882,207.49599999999998 213.42282710748205,205.17511111111108 214.52740845456466,202.8542222222222 215.51984822218927,200.53333333333333 224.48015177781073,200.53333333333333 225.47259154543534,202.8542222222222 226.57717289251795,205.17511111111108 227.7828072207118,207.49599999999998 229.07460716288568,209.81688888888885 230.4351353180734,212.13777777777776 231.8459701463843,214.45866666666666 233.28935743819468,216.77955555555553 234.74966395250306,219.1004444444444 236.21434324927935,221.42133333333334 237.67417247245263,223.7422222222222 239.12262357091961,226.06311111111108 240.55438247464912,228.384 241.96320296393745,230.70488888888886 243.33944736256387,233.02577777777776 244.6677888283203,235.34666666666664 245.92559799192549,237.66755555555554 247.08248864413184,239.98844444444444 248.10134872748583,242.3093333333333 248.94095022252984,244.6302222222222 249.55995055946892,246.9511111111111 249.92181910654762,249.27199999999996 250.0,251.59288888888887 249.78250522626666,253.91377777777777 249.2751499507973,256.2346666666666 248.50280098384377,258.55555555555554 247.5082870333461,260.8764444444444 246.34897048550445,263.1973333333333 245.0913445699292,265.5182222222222 243.8043336424779,267.8391111111111 242.5521838598329,270.15999999999997 241.38790168853626,272.4808888888889 240.34811830298318,274.8017777777778 239.4500445396853,277.12266666666665 238.69087121234074,279.4435555555555 238.04961535746236,281.76444444444445 237.49107161272792,284.0853333333333 236.9712520170251,286.4062222222222 236.44352649193283,288.72711111111107 235.8646305040024,291.048 235.19978487314256,293.3688888888889 234.42635433451957,295.68977777777775 233.5357200740587,298.0106666666667 232.53331295301396,300.33155555555555 231.43700476021908,302.6524444444444 230.2742486792065,304.97333333333336 229.0784745816436,307.29422222222223 227.8852727571877,309.6151111111111 226.72884913550035,311.93600000000004 225.63912528230566,314.25688888888885 224.63971323043893,316.5777777777778" stroke="#55a868" fill="#55a868" fill-opacity="0.4" stroke-width="1"><title>:day: Fri
:tip: 3.0
:time: Dinner</title> points="215.36028676956107,316.5777777777778 214.36087471769434,314.25688888888885 213.27115086449965,311.93600000000004 212.1147272428123,309.6151111111111 210.9215254183564,307.29422222222223 209.7257513207935,304.97333333333336 208.56299523978092,302.6524444444444 207.46668704698604,300.33155555555555 206.4642799259413,298.0106666666667 205.57364566548043,295.68977777777775 204.80021512685744,293.3688888888889 204.1353694959976,291.048 203.55647350806717,288.72711111111107 203.0287479829749,286.4062222222222 202.50892838727208,284.0853333333333 201.95038464253764,281.76444444444445 201.30912878765926,279.4435555555555 200.5499554603147,277.12266666666665 199.65188169701682,274.8017777777778 198.61209831146374,272.4808888888889 197.4478161401671,270.15999999999997 196.1956663575221,267.8391111111111 194.9086554300708,265.5182222222222 193.65102951449555,263.1973333333333 192.4917129666539,260.8764444444444 191.49719901615623,258.55555555555554 190.7248500492027,256.2346666666666 190.21749477373334,253.91377777777777 190.0,251.59288888888887 190.07818089345238,249.27199999999996 190.44004944053108,246.9511111111111 191.05904977747016,244.6302222222222 191.89865127251417,242.3093333333333 192.91751135586816,239.98844444444444 194.07440200807451,237.66755555555554 195.3322111716797,235.34666666666664 196.66055263743613,233.02577777777776 198.03679703606255,230.70488888888886 199.44561752535088,228.384 200.87737642908039,226.06311111111108 202.32582752754737,223.7422222222222 203.78565675072065,221.42133333333334 205.25033604749694,219.1004444444444 206.71064256180532,216.77955555555553 208.1540298536157,214.45866666666666 209.5648646819266,212.13777777777776 210.92539283711432,209.81688888888885 212.2171927792882,207.49599999999998 213.42282710748205,205.17511111111108 214.52740845456466,202.8542222222222 215.51984822218927,200.53333333333333 224.48015177781073,200.53333333333333 225.47259154543534,202.8542222222222 226.57717289251795,205.17511111111108 227.7828072207118,207.49599999999998 229.07460716288568,209.81688888888885 230.4351353180734,212.13777777777776 231.8459701463843,214.45866666666666 233.28935743819468,216.77955555555553 234.74966395250306,219.1004444444444 236.21434324927935,221.42133333333334 237.67417247245263,223.7422222222222 239.12262357091961,226.06311111111108 240.55438247464912,228.384 241.96320296393745,230.70488888888886 243.33944736256387,233.02577777777776 244.6677888283203,235.34666666666664 245.92559799192549,237.66755555555554 247.08248864413184,239.98844444444444 248.10134872748583,242.3093333333333 248.94095022252984,244.6302222222222 249.55995055946892,246.9511111111111 249.92181910654762,249.27199999999996 250.0,251.59288888888887 249.78250522626666,253.91377777777777 249.2751499507973,256.2346666666666 248.50280098384377,258.55555555555554 247.5082870333461,260.8764444444444 246.34897048550445,263.1973333333333 245.0913445699292,265.5182222222222 243.8043336424779,267.8391111111111 242.5521838598329,270.15999999999997 241.38790168853626,272.4808888888889 240.34811830298318,274.8017777777778 239.4500445396853,277.12266666666665 238.69087121234074,279.4435555555555 238.04961535746236,281.76444444444445 237.49107161272792,284.0853333333333 236.9712520170251,286.4062222222222 236.44352649193283,288.72711111111107 235.8646305040024,291.048 235.19978487314256,293.3688888888889 234.42635433451957,295.68977777777775 233.5357200740587,298.0106666666667 232.53331295301396,300.33155555555555 231.43700476021908,302.6524444444444 230.2742486792065,304.97333333333336 229.0784745816436,307.29422222222223 227.8852727571877,309.6151111111111 226.72884913550035,311.93600000000004 225.63912528230566,314.25688888888885 224.63971323043893,316.5777777777778" stroke="#55a868" fill="#55a868" fill-opacity="0.4" stroke-width="1" drake-tooltip=":day: Fri
:tip: 3.0
:time: Dinner"></polyline> <line x1="190.0" x2="250.0" y1="255.55555555555554" y2="255.55555555555554" stroke="black" stroke-width="2"></line> <polyline points="379.9003023280597,340.0 379.72012192785917,334.4 379.3065338677739,328.8 378.47612967539686,323.2 377.01194359117864,317.6 374.7328426864058,312.0 371.58174564401395,306.4 367.68911688905206,300.8 363.37771769942515,295.2 359.10274985160515,289.6 355.34199923583816,284.0 352.46938322678295,278.4 350.676036822205,272.8 350.0,267.2 350.4355207179159,261.6 351.99198250347195,256.0 354.6149041628373,250.39999999999998 358.05494594131886,244.8 361.8569825590087,239.2 365.5165992159571,233.6 368.67447558917866,228.0 371.20062405610884,222.4 373.1443723364917,216.79999999999998 374.62668817688706,211.2 375.75363050001204,205.6 376.5848710588749,200.0 377.1524412825825,194.4 377.49940037062066,188.79999999999998 377.70037808443504,183.2 377.8459518117611,177.60000000000002 378.0070727182288,171.99999999999997 378.21176719232113,166.4 378.44979482480386,160.79999999999998 378.69274107603775,155.2 378.90881756311603,149.60000000000002 379.0682140872161,143.99999999999997 379.149769835313,138.4 379.1526540902344,132.8 379.1014185615142,127.19999999999999 379.03491410822375,121.6 378.98779787976014,116.0 378.981490881708,110.39999999999998 379.02764895869564,104.80000000000001 379.13153474753136,99.19999999999996 379.2870569016191,93.59999999999997 379.47145018714525,88.0 379.6511455836395,82.39999999999998 379.7970690865191,76.80000000000001 379.8966375133614,71.19999999999999 379.95408545390757,65.59999999999997 379.9822549124974,60.0 380.0177450875026,60.0 380.04591454609243,65.59999999999997 380.1033624866386,71.19999999999999 380.2029309134809,76.80000000000001 380.3488544163605,82.39999999999998 380.52854981285475,88.0 380.7129430983809,93.59999999999997 380.86846525246864,99.19999999999996 380.97235104130436,104.80000000000001 381.018509118292,110.39999999999998 381.01220212023986,116.0 380.96508589177625,121.6 380.8985814384858,127.19999999999999 380.8473459097656,132.8 380.850230164687,138.4 380.9317859127839,143.99999999999997 381.09118243688397,149.60000000000002 381.30725892396225,155.2 381.55020517519614,160.79999999999998 381.78823280767887,166.4 381.9929272817712,171.99999999999997 382.1540481882389,177.60000000000002 382.29962191556496,183.2 382.50059962937934,188.79999999999998 382.8475587174175,194.4 383.4151289411251,200.0 384.24636949998796,205.6 385.37331182311294,211.2 386.8556276635083,216.79999999999998 388.79937594389116,222.4 391.32552441082134,228.0 394.4834007840429,233.6 398.1430174409913,239.2 401.94505405868114,244.8 405.3850958371627,250.39999999999998 408.00801749652805,256.0 409.5644792820841,261.6 410.0,267.2 409.323963177795,272.8 407.53061677321705,278.4 404.65800076416184,284.0 400.89725014839485,289.6 396.62228230057485,295.2 392.31088311094794,300.8 388.41825435598605,306.4 385.2671573135942,312.0 382.98805640882136,317.6 381.52387032460314,323.2 380.6934661322261,328.8 380.27987807214083,334.4 380.0996976719403,340.0" stroke="#55a868" fill="#55a868" fill-opacity="0.4" stroke-width="1"><title>:day: Sat
:tip: 2.75
:time: Dinner</title> points="379.9003023280597,340.0 379.72012192785917,334.4 379.3065338677739,328.8 378.47612967539686,323.2 377.01194359117864,317.6 374.7328426864058,312.0 371.58174564401395,306.4 367.68911688905206,300.8 363.37771769942515,295.2 359.10274985160515,289.6 355.34199923583816,284.0 352.46938322678295,278.4 350.676036822205,272.8 350.0,267.2 350.4355207179159,261.6 351.99198250347195,256.0 354.6149041628373,250.39999999999998 358.05494594131886,244.8 361.8569825590087,239.2 365.5165992159571,233.6 368.67447558917866,228.0 371.20062405610884,222.4 373.1443723364917,216.79999999999998 374.62668817688706,211.2 375.75363050001204,205.6 376.5848710588749,200.0 377.1524412825825,194.4 377.49940037062066,188.79999999999998 377.70037808443504,183.2 377.8459518117611,177.60000000000002 378.0070727182288,171.99999999999997 378.21176719232113,166.4 378.44979482480386,160.79999999999998 378.69274107603775,155.2 378.90881756311603,149.60000000000002 379.0682140872161,143.99999999999997 379.149769835313,138.4 379.1526540902344,132.8 379.1014185615142,127.19999999999999 379.03491410822375,121.6 378.98779787976014,116.0 378.981490881708,110.39999999999998 379.02764895869564,104.80000000000001 379.13153474753136,99.19999999999996 379.2870569016191,93.59999999999997 379.47145018714525,88.0 379.6511455836395,82.39999999999998 379.7970690865191,76.80000000000001 379.8966375133614,71.19999999999999 379.95408545390757,65.59999999999997 379.9822549124974,60.0 380.0177450875026,60.0 380.04591454609243,65.59999999999997 380.1033624866386,71.19999999999999 380.2029309134809,76.80000000000001 380.3488544163605,82.39999999999998 380.52854981285475,88.0 380.7129430983809,93.59999999999997 380.86846525246864,99.19999999999996 380.97235104130436,104.80000000000001 381.018509118292,110.39999999999998 381.01220212023986,116.0 380.96508589177625,121.6 380.8985814384858,127.19999999999999 380.8473459097656,132.8 380.850230164687,138.4 380.9317859127839,143.99999999999997 381.09118243688397,149.60000000000002 381.30725892396225,155.2 381.55020517519614,160.79999999999998 381.78823280767887,166.4 381.9929272817712,171.99999999999997 382.1540481882389,177.60000000000002 382.29962191556496,183.2 382.50059962937934,188.79999999999998 382.8475587174175,194.4 383.4151289411251,200.0 384.24636949998796,205.6 385.37331182311294,211.2 386.8556276635083,216.79999999999998 388.79937594389116,222.4 391.32552441082134,228.0 394.4834007840429,233.6 398.1430174409913,239.2 401.94505405868114,244.8 405.3850958371627,250.39999999999998 408.00801749652805,256.0 409.5644792820841,261.6 410.0,267.2 409.323963177795,272.8 407.53061677321705,278.4 404.65800076416184,284.0 400.89725014839485,289.6 396.62228230057485,295.2 392.31088311094794,300.8 388.41825435598605,306.4 385.2671573135942,312.0 382.98805640882136,317.6 381.52387032460314,323.2 380.6934661322261,328.8 380.27987807214083,334.4 380.0996976719403,340.0" stroke="#55a868" fill="#55a868" fill-opacity="0.4" stroke-width="1" drake-tooltip=":day: Sat
:tip: 2.75
:time: Dinner"></polyline> <line x1="350.0" x2="410.0" y1="261.1111111111111" y2="261.1111111111111" stroke="black" stroke-width="2"></line> <polyline points="539.8301368780831,324.1777777777778 539.660138102515,320.76177777777775 539.3605999545459,317.34577777777776 538.8641697759768,313.92977777777776 538.0876337666874,310.51377777777776 536.9389758980539,307.09777777777776 535.3326451654791,303.68177777777777 533.2147181901129,300.26577777777777 530.5954601830741,296.8497777777778 527.5794149153223,293.4337777777778 524.3761051265415,290.0177777777778 521.2743266516893,286.6017777777778 518.5751714434948,283.1857777777778 516.5010143777129,279.7697777777778 515.117635199843,276.3537777777778 514.3090876253242,272.9377777777778 513.8237264880981,269.52177777777774 513.3754331049321,266.1057777777778 512.7573886666656,262.68977777777775 511.92214404211455,259.2737777777778 511.00019678399536,255.85777777777778 510.2558736875815,252.44177777777776 510.0,249.02577777777776 510.4884057486217,245.60977777777777 511.8359579265625,242.19377777777777 513.9705913713885,238.77777777777777 516.6415616012983,235.36177777777777 519.481442901113,231.94577777777778 522.1051914417537,228.52977777777778 524.2167535452135,225.11377777777778 525.6888376013075,221.6977777777778 526.5876578558557,218.2817777777778 527.132297554011,214.8657777777778 527.6036371840883,211.4497777777778 528.2399601423058,208.0337777777778 529.1623669822745,204.6177777777778 530.3571821699662,201.20177777777778 531.7129757072987,197.78577777777778 533.0847781652217,194.36977777777778 534.3517973658859,190.9537777777778 535.4473865131017,187.5377777777778 536.3591343632901,184.1217777777778 537.1101917405172,180.7057777777778 537.7359584788408,177.2897777777778 538.2663157655752,173.8737777777778 538.7177248431362,170.4577777777778 539.094544378176,167.0417777777778 539.3957130005904,163.6257777777778 539.6219159376465,160.2097777777778 539.7796012635736,156.7937777777778 539.8808470605875,153.3777777777778 540.1191529394125,153.3777777777778 540.2203987364264,156.7937777777778 540.3780840623535,160.2097777777778 540.6042869994096,163.6257777777778 540.905455621824,167.0417777777778 541.2822751568638,170.4577777777778 541.7336842344248,173.8737777777778 542.2640415211592,177.2897777777778 542.8898082594828,180.7057777777778 543.6408656367099,184.1217777777778 544.5526134868983,187.5377777777778 545.6482026341141,190.9537777777778 546.9152218347783,194.36977777777778 548.2870242927013,197.78577777777778 549.6428178300338,201.20177777777778 550.8376330177255,204.6177777777778 551.7600398576942,208.0337777777778 552.3963628159117,211.4497777777778 552.867702445989,214.8657777777778 553.4123421441443,218.2817777777778 554.3111623986925,221.6977777777778 555.7832464547865,225.11377777777778 557.8948085582463,228.52977777777778 560.518557098887,231.94577777777778 563.3584383987017,235.36177777777777 566.0294086286115,238.77777777777777 568.1640420734375,242.19377777777777 569.5115942513784,245.60977777777777 570.0,249.02577777777776 569.7441263124185,252.44177777777776 568.9998032160047,255.85777777777778 568.0778559578855,259.2737777777778 567.2426113333344,262.68977777777775 566.6245668950679,266.1057777777778 566.1762735119019,269.52177777777774 565.6909123746758,272.9377777777778 564.882364800157,276.3537777777778 563.4989856222871,279.7697777777778 561.4248285565052,283.1857777777778 558.7256733483107,286.6017777777778 555.6238948734585,290.0177777777778 552.4205850846777,293.4337777777778 549.4045398169259,296.8497777777778 546.7852818098871,300.26577777777777 544.6673548345209,303.68177777777777 543.0610241019461,307.09777777777776 541.9123662333126,310.51377777777776 541.1358302240232,313.92977777777776 540.6394000454541,317.34577777777776 540.339861897485,320.76177777777775 540.1698631219169,324.1777777777778" stroke="#55a868" fill="#55a868" fill-opacity="0.4" stroke-width="1"><title>:day: Sun
:tip: 3.1500000000000004
:time: Dinner</title> points="539.8301368780831,324.1777777777778 539.660138102515,320.76177777777775 539.3605999545459,317.34577777777776 538.8641697759768,313.92977777777776 538.0876337666874,310.51377777777776 536.9389758980539,307.09777777777776 535.3326451654791,303.68177777777777 533.2147181901129,300.26577777777777 530.5954601830741,296.8497777777778 527.5794149153223,293.4337777777778 524.3761051265415,290.0177777777778 521.2743266516893,286.6017777777778 518.5751714434948,283.1857777777778 516.5010143777129,279.7697777777778 515.117635199843,276.3537777777778 514.3090876253242,272.9377777777778 513.8237264880981,269.52177777777774 513.3754331049321,266.1057777777778 512.7573886666656,262.68977777777775 511.92214404211455,259.2737777777778 511.00019678399536,255.85777777777778 510.2558736875815,252.44177777777776 510.0,249.02577777777776 510.4884057486217,245.60977777777777 511.8359579265625,242.19377777777777 513.9705913713885,238.77777777777777 516.6415616012983,235.36177777777777 519.481442901113,231.94577777777778 522.1051914417537,228.52977777777778 524.2167535452135,225.11377777777778 525.6888376013075,221.6977777777778 526.5876578558557,218.2817777777778 527.132297554011,214.8657777777778 527.6036371840883,211.4497777777778 528.2399601423058,208.0337777777778 529.1623669822745,204.6177777777778 530.3571821699662,201.20177777777778 531.7129757072987,197.78577777777778 533.0847781652217,194.36977777777778 534.3517973658859,190.9537777777778 535.4473865131017,187.5377777777778 536.3591343632901,184.1217777777778 537.1101917405172,180.7057777777778 537.7359584788408,177.2897777777778 538.2663157655752,173.8737777777778 538.7177248431362,170.4577777777778 539.094544378176,167.0417777777778 539.3957130005904,163.6257777777778 539.6219159376465,160.2097777777778 539.7796012635736,156.7937777777778 539.8808470605875,153.3777777777778 540.1191529394125,153.3777777777778 540.2203987364264,156.7937777777778 540.3780840623535,160.2097777777778 540.6042869994096,163.6257777777778 540.905455621824,167.0417777777778 541.2822751568638,170.4577777777778 541.7336842344248,173.8737777777778 542.2640415211592,177.2897777777778 542.8898082594828,180.7057777777778 543.6408656367099,184.1217777777778 544.5526134868983,187.5377777777778 545.6482026341141,190.9537777777778 546.9152218347783,194.36977777777778 548.2870242927013,197.78577777777778 549.6428178300338,201.20177777777778 550.8376330177255,204.6177777777778 551.7600398576942,208.0337777777778 552.3963628159117,211.4497777777778 552.867702445989,214.8657777777778 553.4123421441443,218.2817777777778 554.3111623986925,221.6977777777778 555.7832464547865,225.11377777777778 557.8948085582463,228.52977777777778 560.518557098887,231.94577777777778 563.3584383987017,235.36177777777777 566.0294086286115,238.77777777777777 568.1640420734375,242.19377777777777 569.5115942513784,245.60977777777777 570.0,249.02577777777776 569.7441263124185,252.44177777777776 568.9998032160047,255.85777777777778 568.0778559578855,259.2737777777778 567.2426113333344,262.68977777777775 566.6245668950679,266.1057777777778 566.1762735119019,269.52177777777774 565.6909123746758,272.9377777777778 564.882364800157,276.3537777777778 563.4989856222871,279.7697777777778 561.4248285565052,283.1857777777778 558.7256733483107,286.6017777777778 555.6238948734585,290.0177777777778 552.4205850846777,293.4337777777778 549.4045398169259,296.8497777777778 546.7852818098871,300.26577777777777 544.6673548345209,303.68177777777777 543.0610241019461,307.09777777777776 541.9123662333126,310.51377777777776 541.1358302240232,313.92977777777776 540.6394000454541,317.34577777777776 540.339861897485,320.76177777777775 540.1698631219169,324.1777777777778" stroke="#55a868" fill="#55a868" fill-opacity="0.4" stroke-width="1" drake-tooltip=":day: Sun
:tip: 3.1500000000000004
:time: Dinner"></polyline> <line x1="510.0" x2="570.0" y1="252.22222222222223" y2="252.22222222222223" stroke="black" stroke-width="2"></line> <rect width="100" height="40" x="430" y="70" stroke="#cccccc" fill-opacity="0.9" fill="#ffffff"></rect> <circle cx="440" cy="80" r="5" fill="#4c72b0"></circle> <text fill="#000000" font-size="10px" y="85" x="450"> Lunch</text> <circle cx="440" cy="100" r="5" fill="#55a868"></circle> <text fill="#000000" font-size="10px" y="105" x="450"> Dinner</text> <text font-weight="bold" fill="#000000" font-size="16px" text-anchor="middle" y="30" x="300"> Tip Distribution by Day and Time</text></svg>