<svg width="600" height="400" version="1.1" xmlns="http://www.w3.org/2000/svg" xmlns:xlink="http://www.w3.org/1999/xlink"> <rect width="600" height="400" x="0" y="0" fill="#ffffff"></rect> <line x1="60" x2="540" y1="340.0" y2="340.0" stroke-dasharray="none" stroke="#eeeeee" stroke-width="1"></line> <line x1="55" x2="60" y1="340.0" y2="340.0" stroke="#000000" stroke-width="1"></line> <text fill="#000000" font-size="10px" text-anchor="end" y="344.0" x="50"> 1.4</text> <line x1="60" x2="540" y1="284.0" y2="284.0" stroke-dasharray="none" stroke="#eeeeee" stroke-width="1"></line> <line x1="55" x2="60" y1="284.0" y2="284.0" stroke="#000000" stroke-width="1"></line> <text fill="#000000" font-size="10px" text-anchor="end" y="288.0" x="50"> 2.2</text> <line x1="60" x2="540" y1="228.0" y2="228.0" stroke-dasharray="none" stroke="#eeeeee" stroke-width="1"></line> <line x1="55" x2="60" y1="228.0" y2="228.0" stroke="#000000" stroke-width="1"></line> <text fill="#000000" font-size="10px" text-anchor="end" y="232.0" x="50"> 3.0</text> <line x1="60" x2="540" y1="172.0" y2="172.0" stroke-dasharray="none" stroke="#eeeeee" stroke-width="1"></line> <line x1="55" x2="60" y1="172.0" y2="172.0" stroke="#000000" stroke-width="1"></line> <text fill="#000000" font-size="10px" text-anchor="end" y="176.0" x="50"> 3.7</text> <line x1="60" x2="540" y1="116.0" y2="116.0" stroke-dasharray="none" stroke="#eeeeee" stroke-width="1"></line> <line x1="55" x2="60" y1="116.0" y2="116.0" stroke="#000000" stroke-width="1"></line> <text fill="#000000" font-size="10px" text-anchor="end" y="120.0" x="50"> 4.5</text> <line x1="60" x2="540" y1="60.0" y2="60.0" stroke-dasharray="none" stroke="#eeeeee" stroke-width="1"></line> <line x1="55" x2="60" y1="60.0" y2="60.0" stroke="#000000" stroke-width="1"></line> <text fill="#000000" font-size="10px" text-anchor="end" y="64.0" x="50"> 5.2</text> <line x1="60.0" x2="60.0" y1="60" y2="340" stroke-dasharray="none" stroke="#eeeeee" stroke-width="1"></line> <line x1="60.0" x2="60.0" y1="340" y2="345" stroke="#000000" stroke-width="1"></line> <text fill="#000000" font-size="10px" text-anchor="middle" y="360" x="60.0"> 1.0</text> <line x1="156.0" x2="156.0" y1="60" y2="340" stroke-dasharray="none" stroke="#eeeeee" stroke-width="1"></line> <line x1="156.0" x2="156.0" y1="340" y2="345" stroke="#000000" stroke-width="1"></line> <text fill="#000000" font-size="10px" text-anchor="middle" y="360" x="156.0"> 2.0</text> <line x1="252.0" x2="252.0" y1="60" y2="340" stroke-dasharray="none" stroke="#eeeeee" stroke-width="1"></line> <line x1="252.0" x2="252.0" y1="340" y2="345" stroke="#000000" stroke-width="1"></line> <text fill="#000000" font-size="10px" text-anchor="middle" y="360" x="252.0"> 3.0</text> <line x1="348.0" x2="348.0" y1="60" y2="340" stroke-dasharray="none" stroke="#eeeeee" stroke-width="1"></line> <line x1="348.0" x2="348.0" y1="340" y2="345" stroke="#000000" stroke-width="1"></line> <text fill="#000000" font-size="10px" text-anchor="middle" y="360" x="348.0"> 4.0</text> <line x1="444.0" x2="444.0" y1="60" y2="340" stroke-dasharray="none" stroke="#eeeeee" stroke-width="1"></line> <line x1="444.0" x2="444.0" y1="340" y2="345" stroke="#000000" stroke-width="1"></line> <text fill="#000000" font-size="10px" text-anchor="middle" y="360" x="444.0"> 5.0</text> <line x1="540.0" x2="540.0" y1="60" y2="340" stroke-dasharray="none" stroke="#eeeeee" stroke-width="1"></line> <line x1="540.0" x2="540.0" y1="340" y2="345" stroke="#000000" stroke-width="1"></line> <text fill="#000000" font-size="10px" text-anchor="middle" y="360" x="540.0"> 6.0</text> <line x1="60" x2="60" y1="60" y2="340" stroke="#000000" stroke-width="1"></line> <line x1="60" x2="540" y1="340" y2="340" stroke="#000000" stroke-width="1"></line> <text fill="#000000" font-size="12px" text-anchor="middle" y="380" x="300"> :size</text> <text transform="rotate(-90 10 200)" fill="#000000" font-size="12px" text-anchor="middle" y="200" x="10"> :avg_tip</text> <circle cx="60.0" cy="340.0" r="3" stroke="none" fill-opacity="0.0" fill="blue"><title>:size: 1
:avg_tip: 1.4375</title> cx="60.0" cy="340.0" r="3" drake-tooltip=":size: 1
:avg_tip: 1.4375" stroke="none" fill-opacity="0.0" fill="blue"></circle> <circle cx="156.0" cy="255.3673521198273" r="3" stroke="none" fill-opacity="0.0" fill="blue"><title>:size: 2
:avg_tip: 2.582307692307693</title> cx="156.0" cy="255.3673521198273" r="3" drake-tooltip=":size: 2
:avg_tip: 2.582307692307693" stroke="none" fill-opacity="0.0" fill="blue"></circle> <line x1="60.0" x2="156.0" y1="340.0" y2="255.3673521198273" stroke="blue" stroke-width="2"></line> <circle cx="252.0" cy="195.42331075212786" r="3" stroke="none" fill-opacity="0.0" fill="blue"><title>:size: 3
:avg_tip: 3.393157894736842</title> cx="252.0" cy="195.42331075212786" r="3" drake-tooltip=":size: 3
:avg_tip: 3.393157894736842" stroke="none" fill-opacity="0.0" fill="blue"></circle> <line x1="156.0" x2="252.0" y1="255.3673521198273" y2="195.42331075212786" stroke="blue" stroke-width="2"></line> <circle cx="348.0" cy="140.55088752118445" r="3" stroke="none" fill-opacity="0.0" fill="blue"><title>:size: 4
:avg_tip: 4.135405405405407</title> cx="348.0" cy="140.55088752118445" r="3" drake-tooltip=":size: 4
:avg_tip: 4.135405405405407" stroke="none" fill-opacity="0.0" fill="blue"></circle> <line x1="252.0" x2="348.0" y1="195.42331075212786" y2="140.55088752118445" stroke="blue" stroke-width="2"></line> <circle cx="444.0" cy="148.49108910891084" r="3" stroke="none" fill-opacity="0.0" fill="blue"><title>:size: 5
:avg_tip: 4.0280000000000005</title> cx="444.0" cy="148.49108910891084" r="3" drake-tooltip=":size: 5
:avg_tip: 4.0280000000000005" stroke="none" fill-opacity="0.0" fill="blue"></circle> <line x1="348.0" x2="444.0" y1="140.55088752118445" y2="148.49108910891084" stroke="blue" stroke-width="2"></line> <circle cx="540.0" cy="60.0" r="3" stroke="none" fill-opacity="0.0" fill="blue"><title>:size: 6
:avg_tip: 5.225</title> cx="540.0" cy="60.0" r="3" drake-tooltip=":size: 6
:avg_tip: 5.225" stroke="none" fill-opacity="0.0" fill="blue"></circle> <line x1="444.0" x2="540.0" y1="148.49108910891084" y2="60.0" stroke="blue" stroke-width="2"></line> <text font-weight="bold" fill="#000000" font-size="16px" text-anchor="middle" y="30" x="300"> Average Tip by Party Size</text></svg>