<svg width="600" height="400" version="1.1" xmlns="http://www.w3.org/2000/svg" xmlns:xlink="http://www.w3.org/1999/xlink"> <rect width="600" height="400" x="0" y="0" fill="#ffffff"></rect> <line x1="60" x2="540" y1="340.0" y2="340.0" stroke-dasharray="none" stroke="#eeeeee" stroke-width="1"></line> <line x1="55" x2="60" y1="340.0" y2="340.0" stroke="#000000" stroke-width="1"></line> <text fill="#000000" font-size="10px" text-anchor="end" y="344.0" x="50"> 3.1</text> <line x1="60" x2="540" y1="284.0" y2="284.0" stroke-dasharray="none" stroke="#eeeeee" stroke-width="1"></line> <line x1="55" x2="60" y1="284.0" y2="284.0" stroke="#000000" stroke-width="1"></line> <text fill="#000000" font-size="10px" text-anchor="end" y="288.0" x="50"> 12.6</text> <line x1="60" x2="540" y1="228.0" y2="228.0" stroke-dasharray="none" stroke="#eeeeee" stroke-width="1"></line> <line x1="55" x2="60" y1="228.0" y2="228.0" stroke="#000000" stroke-width="1"></line> <text fill="#000000" font-size="10px" text-anchor="end" y="232.0" x="50"> 22.2</text> <line x1="60" x2="540" y1="172.0" y2="172.0" stroke-dasharray="none" stroke="#eeeeee" stroke-width="1"></line> <line x1="55" x2="60" y1="172.0" y2="172.0" stroke="#000000" stroke-width="1"></line> <text fill="#000000" font-size="10px" text-anchor="end" y="176.0" x="50"> 31.7</text> <line x1="60" x2="540" y1="116.0" y2="116.0" stroke-dasharray="none" stroke="#eeeeee" stroke-width="1"></line> <line x1="55" x2="60" y1="116.0" y2="116.0" stroke="#000000" stroke-width="1"></line> <text fill="#000000" font-size="10px" text-anchor="end" y="120.0" x="50"> 41.3</text> <line x1="60" x2="540" y1="60.0" y2="60.0" stroke-dasharray="none" stroke="#eeeeee" stroke-width="1"></line> <line x1="55" x2="60" y1="60.0" y2="60.0" stroke="#000000" stroke-width="1"></line> <text fill="#000000" font-size="10px" text-anchor="end" y="64.0" x="50"> 50.8</text> <line x1="60.0" x2="60.0" y1="60" y2="340" stroke-dasharray="none" stroke="#eeeeee" stroke-width="1"></line> <text fill="#000000" font-size="10px" text-anchor="middle" y="360" x="60.0"> Sun</text> <line x1="220.0" x2="220.0" y1="60" y2="340" stroke-dasharray="none" stroke="#eeeeee" stroke-width="1"></line> <text fill="#000000" font-size="10px" text-anchor="middle" y="360" x="220.0"> Sat</text> <line x1="380.0" x2="380.0" y1="60" y2="340" stroke-dasharray="none" stroke="#eeeeee" stroke-width="1"></line> <text fill="#000000" font-size="10px" text-anchor="middle" y="360" x="380.0"> Thur</text> <line x1="540.0" x2="540.0" y1="60" y2="340" stroke-dasharray="none" stroke="#eeeeee" stroke-width="1"></line> <text fill="#000000" font-size="10px" text-anchor="middle" y="360" x="540.0"> Fri</text> <line x1="60" x2="60" y1="60" y2="340" stroke="#000000" stroke-width="1"></line> <line x1="60" x2="540" y1="340" y2="340" stroke="#000000" stroke-width="1"></line> <text fill="#000000" font-size="12px" text-anchor="middle" y="380" x="300"> :day</text> <text transform="rotate(-90 10 200)" fill="#000000" font-size="12px" text-anchor="middle" y="200" x="10"> :total_bill</text> <line x1="60.0" x2="60.0" y1="315.48387096774195" y2="75.48387096774195" stroke="black"></line> <rect width="30" height="62.22873900293254" x="45.0" y="207.87390029325516" stroke="black" fill="steelblue"><title>:day: Sun
:total_bill: 19.63</title> width="30" height="62.22873900293254" x="45.0" y="207.87390029325516" drake-tooltip=":day: Sun
:total_bill: 19.63" stroke="black" fill="steelblue"></rect> <line x1="45.0" x2="75.0" y1="242.87390029325513" y2="242.87390029325513" stroke="black" stroke-width="2"></line> <line x1="220.0" x2="220.0" y1="340.0" y2="60.0" stroke="black"></line> <rect width="30" height="63.548387096774206" x="205.0" y="212.9032258064516" stroke="black" fill="steelblue"><title>:day: Sat
:total_bill: 18.24</title> width="30" height="63.548387096774206" x="205.0" y="212.9032258064516" drake-tooltip=":day: Sat
:total_bill: 18.24" stroke="black" fill="steelblue"></rect> <line x1="205.0" x2="235.0" y1="251.02639296187684" y2="251.02639296187684" stroke="black" stroke-width="2"></line> <line x1="380.0" x2="380.0" y1="313.95894428152496" y2="105.16129032258067" stroke="black"></line> <rect width="30" height="45.234604105571805" x="365.0" y="239.79472140762465" stroke="black" fill="steelblue"><title>:day: Thur
:total_bill: 16.2</title> width="30" height="45.234604105571805" x="365.0" y="239.79472140762465" drake-tooltip=":day: Thur
:total_bill: 16.2" stroke="black" fill="steelblue"></rect> <line x1="365.0" x2="395.0" y1="262.99120234604106" y2="262.99120234604106" stroke="black" stroke-width="2"></line> <line x1="540.0" x2="540.0" y1="324.2815249266862" y2="122.40469208211144" stroke="black"></line> <rect width="30" height="56.62756598240475" x="525.0" y="230.4398826979472" stroke="black" fill="steelblue"><title>:day: Fri
:total_bill: 15.38</title> width="30" height="56.62756598240475" x="525.0" y="230.4398826979472" drake-tooltip=":day: Fri
:total_bill: 15.38" stroke="black" fill="steelblue"></rect> <line x1="525.0" x2="555.0" y1="267.80058651026394" y2="267.80058651026394" stroke="black" stroke-width="2"></line> <text font-weight="bold" fill="#000000" font-size="16px" text-anchor="middle" y="30" x="300"> Bill Amount by Day of Week</text></svg>