<svg width="600" height="400" version="1.1" xmlns="http://www.w3.org/2000/svg" xmlns:xlink="http://www.w3.org/1999/xlink"> <rect width="600" height="400" x="0" y="0" fill="#ffffff"></rect> <line x1="60" x2="540" y1="340.0" y2="340.0" stroke-dasharray="none" stroke="#eeeeee" stroke-width="1"></line> <line x1="55" x2="60" y1="340.0" y2="340.0" stroke="#000000" stroke-width="1"></line> <text fill="#000000" font-size="10px" text-anchor="end" y="344.0" x="50"> 1.0</text> <line x1="60" x2="540" y1="284.0" y2="284.0" stroke-dasharray="none" stroke="#eeeeee" stroke-width="1"></line> <line x1="55" x2="60" y1="284.0" y2="284.0" stroke="#000000" stroke-width="1"></line> <text fill="#000000" font-size="10px" text-anchor="end" y="288.0" x="50"> 8.2</text> <line x1="60" x2="540" y1="228.0" y2="228.0" stroke-dasharray="none" stroke="#eeeeee" stroke-width="1"></line> <line x1="55" x2="60" y1="228.0" y2="228.0" stroke="#000000" stroke-width="1"></line> <text fill="#000000" font-size="10px" text-anchor="end" y="232.0" x="50"> 15.4</text> <line x1="60" x2="540" y1="172.0" y2="172.0" stroke-dasharray="none" stroke="#eeeeee" stroke-width="1"></line> <line x1="55" x2="60" y1="172.0" y2="172.0" stroke="#000000" stroke-width="1"></line> <text fill="#000000" font-size="10px" text-anchor="end" y="176.0" x="50"> 22.6</text> <line x1="60" x2="540" y1="116.0" y2="116.0" stroke-dasharray="none" stroke="#eeeeee" stroke-width="1"></line> <line x1="55" x2="60" y1="116.0" y2="116.0" stroke="#000000" stroke-width="1"></line> <text fill="#000000" font-size="10px" text-anchor="end" y="120.0" x="50"> 29.8</text> <line x1="60" x2="540" y1="60.0" y2="60.0" stroke-dasharray="none" stroke="#eeeeee" stroke-width="1"></line> <line x1="55" x2="60" y1="60.0" y2="60.0" stroke="#000000" stroke-width="1"></line> <text fill="#000000" font-size="10px" text-anchor="end" y="64.0" x="50"> 37.0</text> <line x1="60.0" x2="60.0" y1="60" y2="340" stroke-dasharray="none" stroke="#eeeeee" stroke-width="1"></line> <line x1="60.0" x2="60.0" y1="340" y2="345" stroke="#000000" stroke-width="1"></line> <text fill="#000000" font-size="10px" text-anchor="middle" y="360" x="60.0"> 4.3</text> <line x1="156.0" x2="156.0" y1="60" y2="340" stroke-dasharray="none" stroke="#eeeeee" stroke-width="1"></line> <line x1="156.0" x2="156.0" y1="340" y2="345" stroke="#000000" stroke-width="1"></line> <text fill="#000000" font-size="10px" text-anchor="middle" y="360" x="156.0"> 13.3</text> <line x1="252.0" x2="252.0" y1="60" y2="340" stroke-dasharray="none" stroke="#eeeeee" stroke-width="1"></line> <line x1="252.0" x2="252.0" y1="340" y2="345" stroke="#000000" stroke-width="1"></line> <text fill="#000000" font-size="10px" text-anchor="middle" y="360" x="252.0"> 22.4</text> <line x1="348.0" x2="348.0" y1="60" y2="340" stroke-dasharray="none" stroke="#eeeeee" stroke-width="1"></line> <line x1="348.0" x2="348.0" y1="340" y2="345" stroke="#000000" stroke-width="1"></line> <text fill="#000000" font-size="10px" text-anchor="middle" y="360" x="348.0"> 31.5</text> <line x1="444.0" x2="444.0" y1="60" y2="340" stroke-dasharray="none" stroke="#eeeeee" stroke-width="1"></line> <line x1="444.0" x2="444.0" y1="340" y2="345" stroke="#000000" stroke-width="1"></line> <text fill="#000000" font-size="10px" text-anchor="middle" y="360" x="444.0"> 40.5</text> <line x1="540.0" x2="540.0" y1="60" y2="340" stroke-dasharray="none" stroke="#eeeeee" stroke-width="1"></line> <line x1="540.0" x2="540.0" y1="340" y2="345" stroke="#000000" stroke-width="1"></line> <text fill="#000000" font-size="10px" text-anchor="middle" y="360" x="540.0"> 49.6</text> <line x1="60" x2="60" y1="60" y2="340" stroke="#000000" stroke-width="1"></line> <line x1="60" x2="540" y1="340" y2="340" stroke="#000000" stroke-width="1"></line> <text fill="#000000" font-size="12px" text-anchor="middle" y="380" x="300"> :total_bill</text> <rect width="24.0" height="0.0" x="48.0" y="340.0" fill-opacity="0.6" stroke="white" fill="steelblue"><title>:total_bill: 4.2635
Y: 1.0</title> width="24.0" height="0.0" x="48.0" y="340.0" drake-tooltip=":total_bill: 4.2635
Y: 1.0" fill-opacity="0.6" stroke="white" fill="steelblue"></rect> <rect width="24.0" height="38.88888888888889" x="73.26315789473685" y="301.1111111111111" fill-opacity="0.6" stroke="white" fill="steelblue"><title>:total_bill: 6.6505
Y: 6.0</title> width="24.0" height="38.88888888888889" x="73.26315789473685" y="301.1111111111111" drake-tooltip=":total_bill: 6.6505
Y: 6.0" fill-opacity="0.6" stroke="white" fill="steelblue"></rect> <rect width="24.0" height="93.33333333333333" x="98.52631578947368" y="246.66666666666669" fill-opacity="0.6" stroke="white" fill="steelblue"><title>:total_bill: 9.0375
Y: 13.0</title> width="24.0" height="93.33333333333333" x="98.52631578947368" y="246.66666666666669" drake-tooltip=":total_bill: 9.0375
Y: 13.0" fill-opacity="0.6" stroke="white" fill="steelblue"></rect> <rect width="24.0" height="217.77777777777777" x="123.78947368421052" y="122.22222222222223" fill-opacity="0.6" stroke="white" fill="steelblue"><title>:total_bill: 11.4245
Y: 29.0</title> width="24.0" height="217.77777777777777" x="123.78947368421052" y="122.22222222222223" drake-tooltip=":total_bill: 11.4245
Y: 29.0" fill-opacity="0.6" stroke="white" fill="steelblue"></rect> <rect width="24.0" height="233.33333333333334" x="149.0526315789474" y="106.66666666666666" fill-opacity="0.6" stroke="white" fill="steelblue"><title>:total_bill: 13.8115
Y: 31.0</title> width="24.0" height="233.33333333333334" x="149.0526315789474" y="106.66666666666666" drake-tooltip=":total_bill: 13.8115
Y: 31.0" fill-opacity="0.6" stroke="white" fill="steelblue"></rect> <rect width="24.0" height="280.0" x="174.31578947368422" y="60.0" fill-opacity="0.6" stroke="white" fill="steelblue"><title>:total_bill: 16.1985
Y: 37.0</title> width="24.0" height="280.0" x="174.31578947368422" y="60.0" drake-tooltip=":total_bill: 16.1985
Y: 37.0" fill-opacity="0.6" stroke="white" fill="steelblue"></rect> <rect width="24.0" height="210.0" x="199.57894736842104" y="130.0" fill-opacity="0.6" stroke="white" fill="steelblue"><title>:total_bill: 18.5855
Y: 28.0</title> width="24.0" height="210.0" x="199.57894736842104" y="130.0" drake-tooltip=":total_bill: 18.5855
Y: 28.0" fill-opacity="0.6" stroke="white" fill="steelblue"></rect> <rect width="24.0" height="171.11111111111111" x="224.8421052631579" y="168.88888888888889" fill-opacity="0.6" stroke="white" fill="steelblue"><title>:total_bill: 20.9725
Y: 23.0</title> width="24.0" height="171.11111111111111" x="224.8421052631579" y="168.88888888888889" drake-tooltip=":total_bill: 20.9725
Y: 23.0" fill-opacity="0.6" stroke="white" fill="steelblue"></rect> <rect width="24.0" height="132.22222222222223" x="250.10526315789474" y="207.77777777777777" fill-opacity="0.6" stroke="white" fill="steelblue"><title>:total_bill: 23.3595
Y: 18.0</title> width="24.0" height="132.22222222222223" x="250.10526315789474" y="207.77777777777777" drake-tooltip=":total_bill: 23.3595
Y: 18.0" fill-opacity="0.6" stroke="white" fill="steelblue"></rect> <rect width="24.0" height="93.33333333333333" x="275.36842105263156" y="246.66666666666669" fill-opacity="0.6" stroke="white" fill="steelblue"><title>:total_bill: 25.7465
Y: 13.0</title> width="24.0" height="93.33333333333333" x="275.36842105263156" y="246.66666666666669" drake-tooltip=":total_bill: 25.7465
Y: 13.0" fill-opacity="0.6" stroke="white" fill="steelblue"></rect> <rect width="24.0" height="70.0" x="300.63157894736844" y="270.0" fill-opacity="0.6" stroke="white" fill="steelblue"><title>:total_bill: 28.1335
Y: 10.0</title> width="24.0" height="70.0" x="300.63157894736844" y="270.0" drake-tooltip=":total_bill: 28.1335
Y: 10.0" fill-opacity="0.6" stroke="white" fill="steelblue"></rect> <rect width="24.0" height="62.22222222222222" x="325.89473684210526" y="277.77777777777777" fill-opacity="0.6" stroke="white" fill="steelblue"><title>:total_bill: 30.520500000000002
Y: 9.0</title> width="24.0" height="62.22222222222222" x="325.89473684210526" y="277.77777777777777" drake-tooltip=":total_bill: 30.520500000000002
Y: 9.0" fill-opacity="0.6" stroke="white" fill="steelblue"></rect> <rect width="24.0" height="31.11111111111111" x="351.1578947368421" y="308.8888888888889" fill-opacity="0.6" stroke="white" fill="steelblue"><title>:total_bill: 32.9075
Y: 5.0</title> width="24.0" height="31.11111111111111" x="351.1578947368421" y="308.8888888888889" drake-tooltip=":total_bill: 32.9075
Y: 5.0" fill-opacity="0.6" stroke="white" fill="steelblue"></rect> <rect width="24.0" height="46.666666666666664" x="376.4210526315789" y="293.33333333333337" fill-opacity="0.6" stroke="white" fill="steelblue"><title>:total_bill: 35.2945
Y: 7.0</title> width="24.0" height="46.666666666666664" x="376.4210526315789" y="293.33333333333337" drake-tooltip=":total_bill: 35.2945
Y: 7.0" fill-opacity="0.6" stroke="white" fill="steelblue"></rect> <rect width="24.0" height="15.555555555555555" x="401.6842105263158" y="324.44444444444446" fill-opacity="0.6" stroke="white" fill="steelblue"><title>:total_bill: 37.6815
Y: 3.0</title> width="24.0" height="15.555555555555555" x="401.6842105263158" y="324.44444444444446" drake-tooltip=":total_bill: 37.6815
Y: 3.0" fill-opacity="0.6" stroke="white" fill="steelblue"></rect> <rect width="24.0" height="23.333333333333332" x="426.94736842105266" y="316.6666666666667" fill-opacity="0.6" stroke="white" fill="steelblue"><title>:total_bill: 40.0685
Y: 4.0</title> width="24.0" height="23.333333333333332" x="426.94736842105266" y="316.6666666666667" drake-tooltip=":total_bill: 40.0685
Y: 4.0" fill-opacity="0.6" stroke="white" fill="steelblue"></rect> <rect width="24.0" height="0.0" x="452.2105263157895" y="340.0" fill-opacity="0.6" stroke="white" fill="steelblue"><title>:total_bill: 42.4555
Y: 1.0</title> width="24.0" height="0.0" x="452.2105263157895" y="340.0" drake-tooltip=":total_bill: 42.4555
Y: 1.0" fill-opacity="0.6" stroke="white" fill="steelblue"></rect> <rect width="24.0" height="7.777777777777778" x="477.4736842105263" y="332.22222222222223" fill-opacity="0.6" stroke="white" fill="steelblue"><title>:total_bill: 44.8425
Y: 2.0</title> width="24.0" height="7.777777777777778" x="477.4736842105263" y="332.22222222222223" drake-tooltip=":total_bill: 44.8425
Y: 2.0" fill-opacity="0.6" stroke="white" fill="steelblue"></rect> <rect width="24.0" height="15.555555555555555" x="502.7368421052631" y="324.44444444444446" fill-opacity="0.6" stroke="white" fill="steelblue"><title>:total_bill: 47.2295
Y: 3.0</title> width="24.0" height="15.555555555555555" x="502.7368421052631" y="324.44444444444446" drake-tooltip=":total_bill: 47.2295
Y: 3.0" fill-opacity="0.6" stroke="white" fill="steelblue"></rect> <rect width="24.0" height="0.0" x="528.0" y="340.0" fill-opacity="0.6" stroke="white" fill="steelblue"><title>:total_bill: 49.6165
Y: 1.0</title> width="24.0" height="0.0" x="528.0" y="340.0" drake-tooltip=":total_bill: 49.6165
Y: 1.0" fill-opacity="0.6" stroke="white" fill="steelblue"></rect> <text font-weight="bold" fill="#000000" font-size="16px" text-anchor="middle" y="30" x="300"> Distribution of Bill Amounts</text></svg>